<?xml version="1.0" standalone="no"?>
<!DOCTYPE svg PUBLIC "-//W3C//DTD SVG 20010904//EN"
 "http://www.w3.org/TR/2001/REC-SVG-20010904/DTD/svg10.dtd">
<svg version="1.0" xmlns="http://www.w3.org/2000/svg"
 width="298.000000pt" height="145.000000pt" viewBox="0 0 298.000000 145.000000"
 preserveAspectRatio="xMidYMid meet">
<metadata>
Created by potrace 1.13, written by Peter Selinger 2001-2015
</metadata>
<g transform="translate(0.000000,145.000000) scale(0.100000,-0.100000)"
fill="#B08858" stroke="none">
<path d="M485 1320 c-23 -25 -31 -107 -15 -154 18 -56 89 -119 190 -168 l90
-45 -57 4 c-32 3 -67 8 -78 12 -11 5 -51 21 -90 37 -85 35 -123 67 -144 125
-13 35 -22 45 -43 47 -37 4 -52 -25 -38 -76 16 -61 67 -94 185 -122 l70 -16
-74 -7 c-142 -14 -287 -79 -360 -162 -73 -84 -117 -219 -109 -337 10 -126 102
-264 215 -319 70 -35 187 -38 267 -9 136 51 205 186 164 322 -44 147 -290 140
-405 -11 -61 -79 -52 -131 20 -117 34 6 63 33 111 101 23 34 89 64 140 65 30
0 45 -7 72 -34 29 -29 34 -41 34 -80 0 -158 -175 -278 -336 -231 -47 13 -69
28 -119 78 -75 75 -106 147 -106 245 0 253 340 460 661 403 36 -7 21 -9 -70
-10 -187 -2 -311 -44 -412 -139 -84 -78 -115 -172 -60 -180 29 -4 58 21 84 72
31 60 116 139 188 174 72 35 168 62 215 61 25 0 21 -3 -25 -18 -129 -41 -240
-154 -210 -212 6 -10 21 -19 34 -19 26 0 46 19 70 68 45 87 142 158 234 168
l47 5 -38 -15 c-22 -8 -50 -25 -64 -38 -73 -67 -85 -208 -18 -208 32 0 45 27
45 94 0 70 14 101 59 128 80 50 201 19 493 -127 134 -67 521 -286 515 -292 -2
-1 -33 9 -70 23 -98 35 -229 56 -304 48 -75 -8 -175 -52 -198 -88 -24 -37 -16
-70 18 -74 20 -3 40 8 80 41 76 66 124 82 232 80 107 -1 274 -45 360 -94 30
-17 55 -32 55 -32 0 -1 -48 -2 -108 -2 -91 0 -113 -4 -149 -23 -83 -43 -103
-159 -27 -150 23 2 31 11 44 45 21 58 46 81 104 98 81 24 170 11 280 -41 154
-72 238 -96 356 -102 179 -8 296 33 389 134 63 68 91 141 91 232 0 124 -34
206 -114 280 -84 78 -180 107 -326 99 -161 -8 -259 -63 -317 -176 -73 -139
-25 -285 116 -358 52 -28 74 -33 129 -33 49 0 76 5 100 20 60 37 32 76 -45 65
-111 -16 -157 -12 -201 18 -92 60 -125 163 -81 253 106 214 440 254 604 72 49
-54 73 -115 82 -204 7 -80 -9 -126 -66 -187 -117 -126 -314 -165 -537 -108
-171 44 -247 91 -325 200 -47 65 -53 123 -18 171 48 64 -21 117 -70 54 -49
-62 -16 -170 80 -267 l58 -58 -60 33 c-78 41 -194 165 -246 261 -40 76 -43 99
-31 272 3 38 2 40 -29 43 -37 4 -48 -11 -58 -78 -16 -107 36 -221 160 -348 50
-50 89 -92 88 -92 -3 0 -225 129 -413 239 -183 108 -360 196 -485 242 -70 26
-102 44 -143 84 -87 81 -100 122 -57 173 28 33 33 80 10 88 -28 11 -64 -6 -81
-38 -44 -85 1 -172 132 -255 16 -10 14 -10 -12 -4 -63 17 -186 109 -230 172
-39 56 -48 101 -29 146 22 52 13 83 -24 83 -15 0 -36 -9 -46 -20z"/>
</g>
</svg>
