<?xml version="1.0" standalone="no"?>
<!DOCTYPE svg PUBLIC "-//W3C//DTD SVG 20010904//EN"
 "http://www.w3.org/TR/2001/REC-SVG-20010904/DTD/svg10.dtd">
<svg version="1.0" xmlns="http://www.w3.org/2000/svg"
 width="298.000000pt" height="125.000000pt" viewBox="0 0 298.000000 125.000000"
 preserveAspectRatio="xMidYMid meet">
<metadata>
Created by potrace 1.13, written by Peter Selinger 2001-2015
</metadata>
<g transform="translate(0.000000,125.000000) scale(0.100000,-0.100000)"
fill="#B08858" stroke="none">
<path d="M2433 1241 c-20 -13 -22 -43 -6 -82 20 -51 8 -96 -41 -161 -37 -48
-168 -144 -216 -158 -17 -5 -30 -7 -30 -6 0 1 23 17 51 36 60 38 104 95 113
146 13 66 -47 140 -98 121 -24 -9 -19 -52 10 -97 36 -54 27 -81 -49 -156 -53
-52 -74 -64 -147 -90 -122 -42 -326 -147 -633 -327 -147 -86 -269 -157 -270
-157 -1 0 36 39 83 88 47 48 98 108 113 134 37 64 61 161 53 221 -7 62 -21 79
-60 75 -35 -3 -34 2 -21 -148 7 -74 6 -77 -34 -155 -53 -105 -166 -229 -250
-273 l-60 -33 58 58 c68 69 101 132 101 195 0 54 -29 98 -65 98 -41 0 -47 -30
-19 -88 21 -43 23 -58 15 -86 -23 -84 -136 -199 -232 -236 -160 -61 -329 -83
-443 -56 -142 34 -259 124 -286 222 -16 57 -2 161 30 225 104 204 417 248 586
82 118 -115 110 -255 -19 -341 -43 -29 -85 -32 -203 -17 -61 8 -84 -9 -62 -44
18 -30 70 -44 141 -39 78 5 147 39 197 95 46 53 64 112 58 197 -5 79 -42 144
-110 196 -69 52 -129 71 -238 77 -277 15 -450 -140 -439 -395 5 -95 40 -172
109 -236 94 -88 198 -120 365 -114 123 5 193 25 363 102 109 49 183 62 262 45
64 -14 98 -43 119 -100 14 -36 21 -45 45 -47 76 -9 56 107 -27 150 -36 19 -58
23 -149 23 -58 0 -104 3 -102 6 1 3 31 20 66 37 98 49 246 85 353 86 105 1
152 -17 227 -83 55 -49 100 -54 106 -13 5 34 -19 64 -77 95 -104 57 -245 56
-420 -2 -47 -16 -87 -28 -88 -27 -4 3 278 167 414 241 132 71 306 148 416 185
77 25 130 22 182 -10 41 -25 55 -58 55 -126 0 -67 13 -94 45 -94 33 0 48 32
43 92 -6 60 -45 113 -109 147 l-44 23 43 -6 c94 -14 167 -69 237 -179 31 -50
40 -58 63 -55 23 3 27 8 30 40 3 32 -3 44 -39 83 -51 55 -94 82 -167 106 -62
19 -44 25 34 10 136 -26 258 -102 321 -198 52 -82 73 -103 100 -103 57 0 41
80 -33 160 -100 107 -239 159 -434 161 -91 1 -106 3 -70 10 196 34 420 -31
551 -162 117 -117 145 -246 82 -381 -58 -124 -156 -193 -273 -192 -139 1 -260
110 -260 233 0 52 15 84 50 104 62 37 161 7 207 -63 38 -58 63 -79 100 -86
117 -22 51 136 -85 203 -47 23 -70 28 -134 28 -62 0 -82 -4 -104 -21 -51 -38
-66 -68 -72 -143 -4 -62 -1 -77 22 -125 52 -107 154 -160 291 -154 59 2 93 9
130 28 105 51 198 183 211 301 13 114 -34 270 -105 352 -75 85 -219 150 -364
164 l-72 7 70 16 c39 9 89 26 113 39 89 46 114 161 35 161 -17 0 -27 -10 -39
-37 -27 -63 -29 -66 -65 -95 -43 -35 -185 -84 -263 -91 l-60 -6 78 34 c164 71
234 154 223 262 -3 30 -13 63 -22 73 -18 20 -48 31 -62 21z"/>
</g>
</svg>
