<svg xmlns="http://www.w3.org/2000/svg" viewBox="0 0 39 39"><path d="M1 1h7v7h-7zM13 1h2v1h-1v2h1v1h1v1h1v1h-1v2h1v1h-1v2h-1v3h-1v2h-1v2h-1v-1h-1v-1h1v-1h-3v-1h1v-1h1v1h2v-1h-1v-1h2v-1h-2v1h-2v1h-1v1h-1v-1h-2v-1h2v-1h2v-2h2v1h3v-1h-2v-1h2v-3h-1v2h-1v-2h-1v-1h1zM17 1h1v1h-1zM21 1h3v2h-1v-1h-1v1h1v3h-1v-2h-1zM26 1h2v2h-1v-1h-1zM29 1h1v2h-1zM31 1h7v7h-7zM2 2v5h5v-5zM9 2h1v3h-1zM15 2h1v2h-1zM25 2h1v1h-1zM32 2v5h5v-5zM3 3h3v3h-3zM33 3h3v3h-3zM11 4h1v1h-1zM17 4h2v1h-2zM26 4h1v1h-1zM28 4h1v1h-1zM10 5h1v1h-1zM19 5h2v1h-1v2h-1zM24 5h1v1h-1zM29 5h1v1h-1zM21 6h1v4h1v-4h1v4h1v1h-1v1h1v1h-2v-1h-1v1h1v1h2v1h-1v1h1v1h4v1h1v-1h-1v-1h-2v-2h3v1h1v2h1v1h-1v1h-2v1h1v1h-2v-1h-1v-2h-2v4h1v1h-2v-1h-1v-2h1v-1h-3v-1h2v-3h-1v2h-2v-1h1v-1h-1v-1h1v-3h-1v-1h1zM26 6h2v2h-1v-1h-1zM9 7h1v1h1v1h-1v1h-1zM11 7h1v1h-1zM17 7h1v2h-1zM25 7h1v1h-1zM29 7h1v2h-1zM1 9h1v1h2v1h1v-1h2v1h1v1h-4v1h-1v-2h-2zM7 9h1v1h-1zM18 9h2v1h-2zM26 9h3v2h1v2h-3v-2h1v-1h-2zM30 9h2v1h-2zM34 9h3v2h1v3h-1v-2h-1v-1h-2v1h1v4h1v-1h2v2h-1v2h-1v-1h-1v-1h-1v-1h-1v1h-1v-3h-1v-1h1v-1h1v-1h-1v-1h2zM25 11h1v1h-1zM31 11h1v1h-1zM16 12h2v3h-1v1h-1v-2h1v-1h-1zM1 13h2v1h-2zM4 13h1v1h-1zM33 13v2h1v-2zM5 14h1v1h-1zM1 15h1v1h1v-1h2v1h-1v1h-2v2h-1zM6 15h2v1h-1v1h-1zM19 15h1v1h-1zM7 17h1v1h-1zM9 17h1v3h-1v1h-1v-1h-2v-1h-1v-1h2v1h1v-1h1zM14 17h6v1h-4v1h-1v-1h-1zM33 17h1v1h-1zM3 18h1v1h1v1h-1v1h1v-1h1v1h2v1h-1v1h-1v-1h-1v1h-1v-1h-2v1h-1v-2h1v-2h1zM32 18h1v1h-1zM34 18h1v1h1v1h-1v1h1v2h-1v-1h-1v1h1v2h-3v1h-1v-2h-2v1h-1v-1h-1v-2h2v1h4v-2h-1v1h-2v-1h1v-1h2v-1h1zM11 19h1v1h1v-1h2v1h1v1h-1v2h-1v-1h-1v-1h-2zM16 19h1v1h-1zM18 19h1v1h-1zM20 19h1v1h-1zM37 19h1v2h-1zM19 20h1v1h-1zM21 20h1v1h-1zM9 21h2v3h1v1h1v-1h1v2h-2v1h1v2h1v3h1v2h-2v2h-1v1h-2v-3h1v-2h1v1h1v-1h-1v-1h1v-1h-1v1h-1v-1h-1v-1h-1v-1h-2v-1h1v-1h1v1h1v1h1v1h1v-1h-1v-1h-1v-1h1v-1h-1v1h-1v-1h-1v-1h2v-2h-1zM16 21h3v1h-2v1h1v2h2v-1h1v1h1v2h-1v-1h-1v2h-2v-1h1v-1h-1v1h-1v-1h-1v-1h1v-1h-2v-1h1zM20 21h1v2h-1zM26 21h1v1h-1zM5 23h1v3h-2v-1h-1v-1h2zM7 23h1v1h-1zM12 23h1v1h-1zM19 23h1v1h-1zM22 23h2v1h-2zM36 23h2v1h-1v1h-1zM24 24h1v1h-1zM7 25h1v1h-1zM23 25h1v1h1v1h-2zM25 25h1v1h-1zM29 25h1v2h-1v1h2v-1h2v2h1v5h-2v1h-1v1h1v1h1v1h-2v-1h-1v1h-1v-2h1v-1h-2v-1h-1v-2h2v-2h-1v1h-1v1h-1v-1h-1v1h-1v-2h1v-1h-1v-1h2v1h1v-1h-1v-2h1v1h1v-1h1zM1 26h1v4h-1zM3 26h1v1h2v1h-3zM6 26h1v1h-1zM15 26h1v2h-1v1h-1v-2h1zM35 26h1v1h-1zM36 27h2v1h-1v2h1v3h-1v1h-1v1h-2v-1h1v-1h1v-1h1v-1h-1v-1h-1v-1h-1v-1h2zM16 28h1v1h-1zM20 28h2v2h1v2h-1v-1h-1v1h-1v-2h1v-1h-1zM5 29h1v1h-1zM7 29h1v1h-1zM17 29h2v2h-1v1h2v1h-2v1h2v2h-1v-1h-1v1h-2v1h-1v1h-1v-3h1v-1h1v1h1v-1h-1v-2h-1v-2h2zM23 29h1v1h-1zM9 30h1v1h-1zM30 30v3h3v-3zM1 31h7v7h-7zM31 31h1v1h-1zM2 32v5h5v-5zM21 32h1v1h-1zM23 32h1v2h1v1h-1v1h1v1h-2v-2h-1v-2h1zM3 33h3v3h-3zM25 33h1v1h-1zM37 34h1v4h-1v-2h-1v-1h1zM26 35h1v1h-1zM20 36h2v1h-2zM27 36h1v1h-1zM33 36h2v2h-1v-1h-1zM9 37h1v1h-1zM12 37h1v1h-1zM16 37h2v1h-2zM19 37h1v1h-1zM25 37h1v1h-1z"/></svg>