<?xml version="1.0" encoding="UTF-8" standalone="no"?>
<!-- Created with Inkscape (http://www.inkscape.org/) -->

<svg
   xmlns:dc="http://purl.org/dc/elements/1.1/"
   xmlns:cc="http://creativecommons.org/ns#"
   xmlns:rdf="http://www.w3.org/1999/02/22-rdf-syntax-ns#"
   xmlns:svg="http://www.w3.org/2000/svg"
   xmlns="http://www.w3.org/2000/svg"
   xmlns:sodipodi="http://sodipodi.sourceforge.net/DTD/sodipodi-0.dtd"
   xmlns:inkscape="http://www.inkscape.org/namespaces/inkscape"
   width="369.47559"
   height="286.79761"
   id="svg2"
   version="1.1"
   inkscape:version="0.48.3.1 r9886"
   sodipodi:docname="logo.svg">
  <defs
     id="defs4" />
  <sodipodi:namedview
     id="base"
     pagecolor="#ffffff"
     bordercolor="#666666"
     borderopacity="1.0"
     inkscape:pageopacity="0.0"
     inkscape:pageshadow="2"
     inkscape:zoom="0.9983453"
     inkscape:cx="172.17384"
     inkscape:cy="21.286413"
     inkscape:document-units="px"
     inkscape:current-layer="layer1"
     showgrid="false"
     inkscape:window-width="1626"
     inkscape:window-height="1026"
     inkscape:window-x="1734"
     inkscape:window-y="24"
     inkscape:window-maximized="1"
     fit-margin-top="0"
     fit-margin-left="0"
     fit-margin-right="0"
     fit-margin-bottom="0">
    <sodipodi:guide
       position="2.0787397e-06,-696.40223"
       orientation="0,744.09448"
       id="guide3074" />
    <sodipodi:guide
       position="744.09448,-696.40223"
       orientation="-1052.3622,0"
       id="guide3076" />
    <sodipodi:guide
       position="744.09448,355.95997"
       orientation="0,-744.09448"
       id="guide3078" />
    <sodipodi:guide
       position="2.0787397e-06,355.95997"
       orientation="1052.3622,0"
       id="guide3080" />
  </sodipodi:namedview>
  <metadata
     id="metadata7">
    <rdf:RDF>
      <cc:Work
         rdf:about="">
        <dc:format>image/svg+xml</dc:format>
        <dc:type
           rdf:resource="http://purl.org/dc/dcmitype/StillImage" />
        <dc:title></dc:title>
      </cc:Work>
    </rdf:RDF>
  </metadata>
  <g
     inkscape:label="Layer 1"
     inkscape:groupmode="layer"
     id="layer1"
     transform="translate(2.0787397e-6,-69.162341)">
    <g
       id="g3049"
       transform="matrix(6.1572636,0,0,7.7660535,-971.01802,-2272.6665)"
       style="fill:#007144">
      <g
         id="text2985"
         style="font-size:40px;font-style:normal;font-variant:normal;font-weight:normal;font-stretch:normal;line-height:125%;letter-spacing:0px;word-spacing:0px;fill:#007144;fill-opacity:1;stroke:none;font-family:Constanze;-inkscape-font-specification:Constanze">
        <path
           sodipodi:nodetypes="cscccccsssssssccssssssscccccccscc"
           inkscape:connector-curvature="0"
           id="path3015"
           d="m 157.70285,337.35648 c 0.24,0.16 0.8,0.76 2.2,0.76 3.76,0 7.16001,-3.56001 10.44,-8.88 3.88,-6.32 7.84001,-13.80001 12.48,-16.52 -6.51999,7.83999 -6.52,17.92 -12.92,25.36 l 0.48,0 c 8.07999,-6.6 11.00001,-20.52001 20.44,-25.32 -6.59999,5.31999 -9.88,15.2 -9.88,18.52 0,4.55999 1.96001,7.2 5.36,7.2 4.68,0 9.48,-5.88001 9.48,-11.8 0,-2.2 -1.36,-4.28 -3.56,-4.28 -3.27999,0 -5.92,3.6 -5.92,7.28 0,1.52 0.76,3.08 2.28,3.08 2.2,0 3.8,-3.88 3.8,-5.92 0,-1.08 -0.44,-1.88 -1.48,-2.24 l 0.04,0.4 c 0.6,0.24 0.96,1.04 0.96,1.84 0,0.8 -0.76,5.56 -3.32,5.56 -1.24,0 -1.68,-1.52 -1.68,-2.68 0,-3.4 2.12001,-6.88 5.28,-6.88 2,0 3.2,1.88 3.2,3.88 0,2.79999 -1.8,8.84 -5.88,8.84 -3.31999,0 -4.68,-3.76001 -4.68,-7.12 0,-7.04 1.72858,-12.30715 6.60857,-15.42714 l 1.07143,-1.33286 c -3.35999,1.16 -5.52,2.8 -7.84,5.44 -4.91999,5.59999 -7.12,13.24 -12.8,19.12 4.76,-7.16 8.08001,-22.32 12.36,-24.04 l 0.16,-0.6 c -6.99999,2.71999 -11.32,12.4 -15.88,19.16 -2.87999,4.27999 -5.96,7.04 -8.88,7.04 -1.16,0 -1.56,-0.44 -1.92,-0.68 l 0,0.24"
           style="fill:#007144" />
      </g>
      <g
         transform="matrix(1,0,0,1.303649,-2,-96.778973)"
         id="text2999"
         style="font-size:40px;font-style:normal;font-variant:normal;font-weight:normal;font-stretch:normal;line-height:125%;letter-spacing:0px;word-spacing:0px;fill:#007144;fill-opacity:1;stroke:none;font-family:Constanze;-inkscape-font-specification:Constanze">
        <path
           sodipodi:nodetypes="csscccscssccssccssssccccsssscsscccssccssccssccscccssc"
           inkscape:connector-curvature="0"
           id="path3004"
           d="m 206.50932,308.42682 c 1.08,-1.64 2.24,-2.64 3.64,-2.64 0.56,0 0.76,0.08 0.76,0.32 0,1.2 -2.16001,2 -4.44,2.36 l 0.04,-0.04 m -10.48,16 c -0.44,0 -0.96,-0.36 -0.96,-0.84 0,-1.16 1.52,-1.84 5.2,-2.48 -2.64,6.07999 -5.84001,11.56 -10.24,11.56 -1.88,0 -3.24,-0.92 -3.24,-2.24 0,-0.92 -1.42286,-0.27626 -0.74286,-0.27626 l 0.35715,-1.35885 c -0.92,0 -0.0543,0.35511 -0.0543,1.63511 0,1.44 0.96,2.76 3.64,2.76 5.27999,0 8.44,-5.88001 11.04,-12.2 1.87999,-0.32 3.96,-0.76 6.44,-1.6 -0.8,2.27999 -1.28,4.52 -1.28,6.44 0,4.79999 2.64,7.36 6.44,7.36 3.95999,0 6.88,-3.80001 6.88,-7.44 0,-1.64 -1.36001,-2.84 -2.84,-2.84 -2.36,0 -4.12,2 -4.12,3.8 l 0.12,1.2 0.2,0 0,-1.12 c 0.04,-1.52 1.84,-3.52 3.68,-3.52 1.08,0 2.24,1.04 2.24,2.6 0,4.27999 -3.40001,6.92 -6.16,6.92 -2.24,0 -5.64,-1.20001 -5.64,-7.68 0,-1.84 0.4,-3.88 1.08,-5.92 5.27999,-1.96 11.64,-7.40001 11.64,-11.32 0,-1.04 -0.72,-1.84 -1.68,-1.84 -2.8,0 -6.48001,4.4 -9,9.52 l -6.2,0.68 c 1.08,-2.76 2.12,-5.32 3.28,-7.2 2.07999,-0.12 5,-1.2 5,-2.68 0,-0.56 -0.48,-0.8 -1.04,-0.8 -1.6,0 -2.96,1.2 -4.2,3.12 -0.52,0.04 -2.92001,0.08 -4.4,0.16 -3.92,0.2 -8.36,2.48 -8.36,5.8 0,0.92 0.28,1.92 1.68,1.92 0.52,0 7.42857,-5.52517 3.82,-2.71165 l 3.92857,-2.94561 c -0.24,0.12 -6.98857,5.29726 -7.70857,5.29726 -1.08,0 -1.28,-0.68 -1.28,-1.56 0,-3.32 6.2,-5.44 12.04,-5.48 -1.2,1.96 -2.28,4.52 -3.4,7.28 -3.36,0.4 -8.68,1.2 -8.68,5.36 0,2.19999 2.13286,3.76489 3.33286,3.76489 l -0.81286,-1.12489 m 13.56,-8.84 c 2.43999,-4.92 6,-9.04 8.4,-9.04 0.64,0 1.32,0.64 1.32,1.4 0,3.87999 -7.56001,7.36 -9.72,7.64"
           style="fill:#007144" />
      </g>
    </g>
    <path
       style="fill:#000000;fill-opacity:1;fill-rule:nonzero;stroke:none"
       id="path3053"
       d=""
       inkscape:connector-curvature="0" />
  </g>
</svg>
