<?xml version="1.0" standalone="no"?>
<!DOCTYPE svg PUBLIC "-//W3C//DTD SVG 20010904//EN"
 "http://www.w3.org/TR/2001/REC-SVG-20010904/DTD/svg10.dtd">
<svg version="1.0" xmlns="http://www.w3.org/2000/svg"
 width="282.000000pt" height="289.000000pt" viewBox="0 0 282.000000 289.000000"
 preserveAspectRatio="xMidYMid meet">
<metadata>
Created by potrace 1.13, written by Peter Selinger 2001-2015
</metadata>
<g transform="translate(0.000000,289.000000) scale(0.100000,-0.100000)"
fill="#003721" stroke="none">
<path d="M1374 2799 c-22 -24 -22 -66 -5 -309 6 -80 11 -185 10 -235 l0 -90
-23 60 c-62 163 -89 204 -154 246 -77 49 -164 36 -212 -31 -14 -19 -20 -41
-18 -62 3 -29 7 -33 35 -36 25 -2 40 5 70 32 52 46 81 53 116 26 54 -43 137
-242 176 -423 27 -124 28 -193 1 -91 -10 39 -32 98 -49 131 -37 74 -121 167
-174 194 -43 23 -131 35 -170 25 -46 -11 -84 -53 -97 -104 -15 -65 -2 -102 38
-102 35 0 53 20 76 81 30 83 84 86 167 12 109 -98 169 -223 214 -448 21 -105
25 -149 24 -301 l0 -179 -19 87 c-57 273 -173 469 -333 562 -25 15 -113 51
-194 80 -179 64 -222 85 -278 137 -119 109 -118 317 1 434 41 40 125 85 160
85 37 0 53 -30 56 -105 3 -70 3 -70 34 -73 19 -2 40 5 58 19 25 20 28 27 23
67 -9 85 -74 137 -162 129 -134 -13 -262 -105 -301 -217 -27 -77 -25 -203 4
-290 42 -125 125 -191 355 -283 188 -76 292 -155 400 -305 65 -91 135 -226
166 -321 17 -51 21 -89 21 -185 l-1 -121 -23 70 c-31 97 -123 271 -204 385
-37 52 -112 140 -167 196 -91 92 -110 106 -205 152 -58 28 -150 67 -205 88
-411 151 -538 291 -514 561 11 112 70 223 141 259 42 22 68 2 93 -72 17 -50
24 -59 46 -62 33 -4 69 38 69 79 0 39 -52 96 -101 111 -96 28 -231 -63 -277
-187 -60 -161 -39 -372 49 -502 71 -104 190 -178 503 -313 76 -33 162 -76 192
-96 190 -126 452 -422 554 -626 38 -76 40 -85 40 -173 0 -86 -3 -97 -36 -163
-35 -70 -73 -112 -102 -112 -8 0 -30 14 -49 31 -46 40 -96 39 -101 -4 -5 -42
54 -97 102 -97 43 0 89 21 130 59 l28 26 -15 -30 c-36 -71 -127 -133 -225
-154 -87 -18 -126 -14 -162 16 -29 24 -31 30 -26 67 18 113 18 132 1 146 -14
12 -21 12 -43 -1 -77 -43 -86 -179 -16 -240 48 -42 84 -51 183 -47 121 5 202
38 262 106 39 44 39 44 28 12 -22 -62 -100 -151 -169 -192 -90 -54 -147 -69
-280 -75 -188 -9 -314 32 -390 128 -94 119 -64 256 70 324 80 41 132 48 201
29 94 -26 138 7 90 68 -29 36 -87 52 -173 46 -124 -8 -234 -82 -287 -193 -35
-71 -35 -172 -1 -238 45 -89 155 -167 280 -198 78 -20 277 -17 360 4 134 35
239 109 289 203 l21 39 -7 -105 c-5 -102 -5 -107 19 -134 31 -37 70 -30 94 15
14 28 14 46 5 143 -14 145 -14 150 10 91 47 -121 147 -205 291 -246 68 -19
107 -23 213 -23 115 1 139 4 209 28 90 31 149 68 200 127 122 143 62 359 -126
455 -63 32 -173 44 -234 24 -131 -42 -100 -143 32 -104 48 14 59 14 114 0 196
-51 264 -211 150 -355 -76 -96 -202 -137 -390 -128 -216 10 -349 83 -429 237
l-33 65 40 -46 c61 -69 142 -102 263 -107 82 -4 101 -1 136 17 49 24 79 60 92
108 21 74 -51 196 -97 167 -18 -12 -21 -58 -7 -145 7 -43 5 -47 -25 -72 -37
-31 -92 -35 -175 -13 -102 27 -169 75 -215 154 l-22 37 34 -31 c78 -74 150
-84 205 -29 73 73 11 131 -71 65 -21 -16 -44 -30 -51 -30 -27 0 -66 44 -99
112 -33 65 -36 77 -36 162 0 88 2 94 45 181 101 202 370 504 555 623 30 20
131 69 225 110 253 109 319 147 400 227 77 75 105 123 131 225 23 90 15 263
-15 341 -51 133 -186 222 -285 189 -46 -15 -96 -72 -96 -109 0 -41 36 -83 68
-79 27 3 32 10 57 81 9 26 26 52 36 58 47 25 145 -79 174 -184 10 -34 17 -96
17 -148 0 -77 -3 -96 -29 -152 -37 -78 -78 -125 -157 -181 -81 -58 -130 -81
-331 -161 -256 -101 -294 -123 -410 -240 -155 -156 -297 -373 -359 -551 -28
-78 -36 -67 -36 45 0 98 19 173 74 288 82 169 201 323 308 397 29 20 124 67
210 105 87 38 177 80 201 94 56 33 113 97 138 154 26 61 42 174 34 242 -18
158 -151 282 -320 298 -88 8 -153 -44 -162 -129 -5 -40 -2 -47 23 -67 18 -14
39 -21 58 -19 31 3 31 3 34 73 5 106 38 128 125 84 75 -38 115 -77 148 -144
60 -123 37 -268 -58 -356 -50 -46 -120 -80 -273 -134 -168 -58 -242 -99 -307
-169 -100 -107 -199 -319 -219 -468 -12 -82 -22 -27 -23 123 -2 196 42 406
114 548 40 80 129 181 181 206 44 21 85 8 104 -33 43 -95 44 -97 78 -100 27
-3 34 1 43 24 16 43 -6 118 -43 149 -38 32 -67 39 -133 32 -72 -7 -123 -36
-185 -104 -65 -71 -114 -170 -139 -283 -29 -127 -25 -51 5 95 53 263 153 475
223 475 9 0 38 -18 65 -41 38 -31 56 -39 80 -37 27 3 31 7 34 36 6 65 -59 122
-139 122 -44 0 -116 -35 -146 -71 -20 -24 -86 -162 -105 -219 l-19 -55 6 140
c3 77 12 196 20 265 19 159 19 210 -1 238 -20 28 -65 29 -90 1z"/>
</g>
</svg>
