<?xml version="1.0" standalone="no"?>
<!DOCTYPE svg PUBLIC "-//W3C//DTD SVG 20010904//EN"
 "http://www.w3.org/TR/2001/REC-SVG-20010904/DTD/svg10.dtd">
<svg version="1.0" xmlns="http://www.w3.org/2000/svg"
 width="986.000000pt" height="189.000000pt" viewBox="0 0 986.000000 189.000000"
 preserveAspectRatio="xMidYMid meet">
<metadata>
Created by potrace 1.13, written by Peter Selinger 2001-2015
</metadata>
<g transform="translate(0.000000,189.000000) scale(0.100000,-0.100000)"
fill="#003721" stroke="none">
<path d="M4033 1534 c-54 -19 -128 -85 -155 -138 -32 -60 -31 -136 2 -171 53
-57 200 -105 322 -105 83 0 82 -15 -1 -24 -135 -15 -341 -76 -644 -190 l-173
-66 -195 76 c-107 42 -246 94 -309 115 -63 21 -118 44 -122 51 -3 7 -12 27
-18 44 -15 40 -78 106 -133 139 -60 35 -186 65 -271 65 -150 -1 -280 -47 -367
-132 l-49 -49 0 34 c0 133 -85 218 -217 216 -112 -1 -200 -58 -175 -114 16
-36 57 -33 98 6 82 80 208 46 244 -65 15 -48 8 -148 -17 -226 l-18 -55 -195
-68 c-240 -84 -272 -89 -365 -52 -95 37 -378 227 -424 285 -69 87 -196 206
-242 227 -87 41 -190 39 -206 -3 -9 -25 8 -34 100 -48 99 -16 178 -54 253
-121 l49 -44 -63 30 c-128 60 -258 74 -401 44 -122 -25 -181 -58 -181 -100 0
-56 42 -58 152 -5 46 22 109 45 138 49 61 10 204 -2 272 -23 l43 -14 -70 5
c-129 10 -223 -24 -273 -97 -20 -30 -23 -44 -20 -102 4 -75 28 -121 67 -126
45 -7 69 50 37 87 -27 32 -36 79 -23 119 15 45 76 79 158 89 57 6 60 -4 6 -22
-48 -15 -80 -70 -73 -123 11 -79 53 -131 95 -117 11 3 22 12 24 19 8 21 -3 56
-18 56 -18 0 -45 44 -45 73 0 61 85 106 176 93 72 -9 121 -37 224 -125 60 -51
126 -97 179 -124 l85 -42 155 1 c137 1 168 4 256 28 133 37 127 37 137 -7 29
-137 149 -252 325 -314 71 -25 91 -27 218 -27 125 0 154 3 269 33 151 38 361
109 570 193 l149 59 151 -57 c439 -165 639 -216 851 -217 99 0 131 4 185 22
156 54 235 135 259 267 5 25 5 44 0 44 -5 0 -9 -8 -9 -17 0 -35 -58 -139 -95
-172 -110 -96 -314 -126 -515 -75 -69 17 -670 254 -670 263 0 8 451 195 590
245 l75 27 -41 -38 c-65 -60 -88 -114 -89 -204 0 -86 12 -109 56 -109 42 0 63
37 50 87 -25 94 42 204 153 254 103 45 227 34 343 -32 59 -34 143 -122 143
-150 0 -10 4 -19 9 -19 11 0 0 44 -22 86 -24 46 -97 109 -164 143 -106 52
-192 71 -378 81 -93 5 -190 14 -214 20 -124 30 -160 93 -106 186 31 53 91 84
185 94 81 9 90 14 90 46 0 44 -91 58 -177 28z m-1530 -274 c73 -27 133 -73
163 -126 l24 -41 -172 1 c-200 1 -253 -8 -492 -85 -85 -27 -157 -49 -161 -49
-3 0 10 31 30 69 65 122 196 223 326 251 71 15 216 5 282 -20z m150 -221 c45
-12 49 -38 14 -90 -58 -86 -167 -132 -261 -109 -28 6 -64 10 -81 8 -66 -7 -25
-86 56 -108 146 -40 319 60 369 212 l15 48 135 -63 c74 -35 181 -83 238 -107
56 -24 101 -44 100 -46 -5 -4 -593 -236 -663 -261 -96 -35 -261 -43 -372 -18
-180 39 -321 161 -349 301 l-6 31 229 90 c236 94 307 119 358 126 41 6 172 -3
218 -14z"/>
<path d="M5673 1535 c-28 -20 -29 -29 -3 -55 14 -14 33 -20 63 -20 121 0 215
-71 219 -164 3 -89 -118 -136 -355 -136 -242 0 -464 -97 -531 -231 -14 -29
-26 -62 -26 -73 1 -13 10 -1 26 31 30 63 86 111 178 154 92 43 170 49 266 20
132 -40 201 -139 186 -264 -8 -61 7 -87 47 -87 35 0 49 15 58 61 17 91 -19
190 -92 253 -24 20 -40 36 -38 36 22 0 669 -261 669 -270 0 -9 -583 -239 -665
-262 -96 -27 -265 -31 -364 -9 -125 28 -212 109 -248 231 -18 63 -27 64 -18 3
31 -207 240 -321 538 -293 187 18 368 68 709 196 l198 75 157 -62 c628 -245
888 -283 1129 -164 127 62 221 167 245 273 8 32 17 51 24 48 7 -2 61 -17 121
-33 96 -25 126 -28 259 -28 l150 0 75 37 c44 22 122 75 190 132 118 97 176
126 258 126 51 0 111 -29 128 -62 19 -36 11 -63 -28 -104 -32 -34 -34 -60 -5
-78 39 -25 97 51 97 128 0 62 -18 88 -80 115 -40 17 -42 20 -18 20 107 3 198
-54 198 -124 0 -37 -13 -69 -37 -93 -31 -32 -1 -85 45 -80 34 4 62 53 68 120
8 81 -23 134 -101 173 -54 27 -69 30 -158 30 -96 0 -98 0 -55 13 71 21 207 31
268 20 30 -5 92 -27 137 -49 90 -43 109 -46 138 -25 16 12 18 19 10 43 -12 34
-53 56 -160 83 -150 38 -298 23 -440 -47 l-50 -24 35 31 c100 88 171 122 289
139 79 10 97 20 88 45 -16 41 -117 45 -199 8 -67 -30 -140 -93 -209 -182 -55
-70 -85 -96 -217 -186 -158 -109 -252 -159 -321 -170 -52 -8 -104 5 -317 80
l-177 63 -18 69 c-24 91 -24 187 0 240 14 31 30 47 65 64 42 20 51 21 94 10
27 -6 60 -24 78 -42 49 -46 106 -26 91 33 -16 62 -178 100 -272 64 -72 -27
-115 -100 -115 -196 l0 -48 -45 48 c-84 90 -218 141 -370 141 -194 0 -352 -80
-406 -205 -24 -55 -24 -55 -94 -76 -38 -11 -179 -63 -311 -115 l-242 -94 -154
59 c-288 110 -600 201 -692 201 -14 0 -27 3 -29 8 -3 4 26 8 64 10 133 5 285
59 324 114 37 54 1 186 -67 243 -77 65 -207 95 -255 60z m1998 -263 c128 -34
232 -118 298 -242 18 -34 31 -63 29 -65 -2 -2 -53 12 -113 31 -273 89 -430
114 -604 98 -55 -5 -101 -5 -101 -1 0 35 79 120 139 152 86 44 240 56 352 27z
m-176 -233 c88 -23 525 -203 525 -217 0 -33 -63 -142 -108 -188 -61 -62 -129
-99 -228 -124 -99 -25 -252 -26 -344 -2 -91 25 -713 273 -703 282 4 3 40 19
78 35 39 16 142 62 229 102 87 40 161 73 162 73 2 0 4 -10 4 -22 1 -38 36
-104 80 -148 77 -77 193 -113 288 -90 59 14 92 41 92 75 0 32 -38 42 -97 27
-60 -17 -84 -15 -149 9 -65 25 -125 81 -141 133 -10 32 -9 37 9 47 50 27 211
31 303 8z"/>
<path d="M4889 1513 c-8 -20 -8 -70 0 -173 6 -80 13 -183 16 -230 l5 -85 -15
55 c-9 30 -24 66 -34 80 -56 78 -181 97 -181 29 0 -22 37 -49 67 -49 32 0 92
-57 114 -107 10 -23 24 -70 30 -102 11 -53 11 -62 -4 -79 -21 -23 -21 -41 -1
-70 13 -19 14 -31 3 -80 -23 -112 -87 -202 -145 -202 -64 0 -91 -60 -36 -81
87 -34 168 41 196 181 7 33 -1 -120 -14 -290 -13 -160 -8 -197 25 -212 20 -9
29 -8 45 7 17 16 20 31 20 114 0 53 -9 193 -20 311 -23 253 -22 230 -10 230 6
0 10 -32 10 -77 0 -151 51 -253 135 -269 43 -8 88 10 93 38 4 23 -25 48 -56
48 -48 0 -91 36 -122 102 -33 69 -49 163 -31 181 15 15 14 52 -1 77 -10 15 -9
32 1 81 25 122 84 199 153 199 31 0 60 25 56 49 -8 43 -101 50 -150 12 -48
-38 -71 -106 -76 -223 -3 -60 -8 -108 -13 -108 -11 0 -12 -11 11 240 23 249
26 400 8 418 -7 7 -25 12 -40 12 -22 0 -31 -7 -39 -27z"/>
<path d="M805 959 c-96 -72 -109 -155 -35 -221 46 -41 95 -55 143 -41 26 7 33
14 35 40 4 38 -9 44 -86 40 -46 -2 -57 1 -73 22 -35 43 -23 88 39 154 43 45
32 48 -23 6z"/>
<path d="M9032 963 c35 -37 68 -94 68 -116 0 -10 -11 -29 -25 -42 -20 -21 -34
-25 -85 -25 -55 0 -61 -2 -72 -25 -26 -57 54 -84 138 -46 55 25 84 64 84 113
0 52 -21 89 -73 132 -52 43 -71 47 -35 9z"/>
</g>
</svg>
