<?xml version="1.0" standalone="no"?>
<!DOCTYPE svg PUBLIC "-//W3C//DTD SVG 20010904//EN"
 "http://www.w3.org/TR/2001/REC-SVG-20010904/DTD/svg10.dtd">
<svg version="1.0" xmlns="http://www.w3.org/2000/svg"
 width="302.000000pt" height="270.000000pt" viewBox="0 0 302.000000 270.000000"
 preserveAspectRatio="xMidYMid meet">
<metadata>
Created by potrace 1.13, written by Peter Selinger 2001-2015
</metadata>
<g transform="translate(0.000000,270.000000) scale(0.100000,-0.100000)"
fill="#003721" stroke="none">
<path d="M1232 2290 c-217 -165 -222 -169 -200 -184 13 -8 98 -57 190 -108
l167 -95 -73 -41 -73 -42 -124 59 c-265 125 -426 174 -579 173 -237 0 -436
-97 -510 -247 -21 -43 -25 -64 -25 -145 0 -86 3 -101 32 -161 43 -87 127 -168
208 -198 93 -35 160 -44 285 -38 126 7 219 23 353 64 l87 26 83 -38 c45 -21
86 -42 91 -46 10 -9 -198 -115 -332 -168 -120 -48 -268 -86 -389 -102 -51 -7
-91 -14 -90 -16 2 -1 73 2 159 7 243 14 383 53 638 174 l115 54 78 -41 c42
-22 77 -43 76 -46 0 -3 -63 -37 -140 -75 -77 -38 -147 -74 -156 -81 -14 -10
-4 -20 73 -73 49 -34 124 -91 166 -127 l77 -66 -46 -57 c-25 -31 -60 -86 -77
-122 -29 -61 -31 -72 -31 -185 0 -112 2 -124 29 -178 18 -38 43 -69 69 -88 87
-63 213 -26 269 78 37 69 48 120 49 223 0 114 -25 194 -92 293 l-49 72 48 42
c26 24 100 77 165 120 l118 78 -157 78 -157 79 34 20 c19 12 54 29 78 40 l44
19 136 -55 c142 -57 259 -94 374 -120 89 -21 286 -46 345 -45 45 1 45 1 -23
14 -106 19 -183 41 -333 94 -152 53 -392 153 -392 162 0 4 40 23 90 44 l89 37
93 -26 c179 -50 377 -68 490 -45 149 31 283 134 346 267 32 66 34 79 30 140
-6 80 -31 133 -91 193 -96 96 -230 141 -427 142 -207 1 -358 -37 -592 -150
l-136 -66 -65 36 c-35 20 -74 45 -87 55 l-23 19 34 20 c19 11 101 60 182 108
82 48 145 91 140 95 -21 20 -416 312 -426 315 -7 3 -112 -72 -235 -165z m345
-66 c85 -58 153 -108 151 -110 -6 -6 -126 -82 -194 -125 l-61 -37 -152 99
c-83 54 -151 102 -150 106 1 16 224 183 238 178 7 -3 83 -53 168 -111z m-919
-240 c82 -28 198 -79 377 -164 l110 -53 -82 -40 -81 -41 -141 47 c-210 70
-353 78 -469 27 -69 -31 -92 -56 -92 -103 0 -51 44 -96 125 -126 51 -20 74
-22 155 -19 80 4 117 12 232 52 l138 46 116 -58 116 -58 -97 -43 -96 -42 -77
26 c-110 38 -211 43 -299 16 -39 -11 -77 -28 -84 -37 -12 -15 -11 -16 6 -11
35 11 149 27 190 27 43 0 185 -38 185 -50 0 -11 -135 -49 -235 -66 -124 -22
-280 -15 -360 16 -83 31 -180 130 -213 216 -51 131 -17 271 85 351 133 105
335 140 491 87z m1917 -9 c232 -61 334 -260 235 -461 -65 -134 -219 -216 -371
-200 -68 7 -290 76 -283 88 8 12 184 10 244 -3 28 -6 53 -9 56 -6 10 9 -86 46
-149 58 -56 10 -79 10 -155 -5 l-89 -17 -74 30 c-114 45 -169 71 -169 79 1 9
110 75 124 75 6 0 54 -17 106 -37 125 -50 209 -57 307 -28 169 52 194 176 49
237 -117 49 -217 38 -390 -44 l-104 -49 -76 41 c-42 23 -76 44 -76 48 0 14
277 133 385 165 153 44 326 56 430 29z m-1031 -156 c54 -28 96 -52 94 -54 -2
-1 -33 -21 -70 -43 l-66 -41 -96 51 c-53 28 -96 54 -96 58 0 5 120 75 136 80
1 0 45 -23 98 -51z m783 -64 c54 -23 73 -44 73 -80 0 -71 -118 -122 -221 -95
-62 17 -179 63 -179 71 0 4 50 32 110 63 119 60 155 67 217 41z m-1706 -21
c77 -23 239 -87 239 -95 0 -4 -53 -24 -117 -45 -191 -62 -324 -52 -357 28 -17
39 -10 64 23 87 61 43 126 50 212 25z m688 -48 l104 -53 -75 -41 -75 -42 -111
52 c-62 29 -112 55 -112 58 1 5 149 78 160 79 3 0 52 -24 109 -53z m456 17
c41 -21 75 -40 75 -43 0 -3 -29 -22 -65 -42 l-65 -37 -80 36 c-44 20 -80 39
-80 42 0 7 120 80 132 81 4 0 41 -17 83 -37z m-230 -130 c41 -21 75 -40 75
-43 0 -4 -32 -25 -72 -47 l-71 -42 -80 41 -80 40 74 44 c41 24 75 44 76 44 2
0 36 -17 78 -37z m342 -167 c29 -11 53 -24 53 -27 0 -4 -41 -23 -91 -44 l-91
-38 -89 43 c-49 24 -89 47 -89 50 0 3 33 23 73 46 l72 40 55 -24 c30 -13 79
-34 107 -46z m-582 23 l89 -41 -79 -43 -78 -43 -71 30 c-39 16 -82 34 -96 40
-24 9 -20 12 60 53 47 24 85 44 86 44 1 1 41 -17 89 -40z m345 -180 c0 -3 -34
-21 -76 -39 l-76 -34 -81 41 -81 40 73 41 74 40 84 -41 c45 -23 83 -44 83 -48z
m-27 -236 l108 -65 -48 -30 c-26 -17 -76 -53 -111 -80 l-63 -49 -77 66 c-42
37 -96 78 -119 93 -24 15 -43 30 -43 34 0 4 46 32 102 62 85 46 105 53 123 44
11 -6 69 -40 128 -75z m-81 -458 c32 -59 33 -62 32 -180 -2 -201 -45 -304
-123 -291 -19 3 -47 17 -62 32 -48 46 -64 105 -64 229 0 124 10 153 96 268
l43 58 22 -28 c13 -15 38 -55 56 -88z"/>
</g>
</svg>
