<?xml version="1.0" encoding="UTF-8"?>
<svg xmlns="http://www.w3.org/2000/svg" xmlns:xlink="http://www.w3.org/1999/xlink" version="1.2" >
<font id="Zelda">
<font-face  font-family="Zelda" units-per-em="1000" ascent="947" descent="-295" font-style="normal" font-weight="400" font-stretch="normal" cap-height="710" x-height="386" underline-position="-75" underline-thickness="50" />
<missing-glyph  horiz-adv-x="259" d="" />
<glyph glyph-name="NULL" d="" />
<glyph glyph-name="CR" unicode="&#xd;" horiz-adv-x="250" d="" />
<glyph glyph-name="space" unicode="&#x20;" horiz-adv-x="259" d="" />
<glyph glyph-name="exclam" unicode="&#x21;" horiz-adv-x="300" d="M318 629 L139 159 L172 159 L372 629 L318 629 L318 629 Z M129 81 C110 81 86 62 75 39 C65 17 71 -2 90 -2 C109 -2 133 17 144 39 C155 62 148 81 129 81 L129 81 Z " />
<glyph glyph-name="quotedbl" unicode="&#x22;" horiz-adv-x="293" d="M277 669 C287 690 263 707 246 707 C236 707 231 697 231 690 C231 655 189 595 164 572 L176 554 C209 577 263 638 277 669 L277 669 Z M326 707 C316 707 311 697 311 690 C311 655 269 595 244 572 L256 554 C289 577 343 638 357 669 C367 690 343 707 326 707 L326 707 Z " />
<glyph glyph-name="numbersign" unicode="&#x23;" horiz-adv-x="430" d="M389 361 L400 389 L309 389 L361 511 L317 511 L270 390 L211 390 L262 511 L219 511 L172 390 L91 391 L75 351 L158 353 L131 284 L46 284 L30 244 L117 247 L69 124 L99 124 L151 248 L216 250 L168 124 L198 124 L251 251 L344 254 L355 282 L264 283 L296 358 L389 361 L389 361 Z M229 283 L166 283 L196 355 L258 357 L229 283 L229 283 Z " />
<glyph glyph-name="dollar" unicode="&#x24;" horiz-adv-x="421" d="M292 389 L292 378 C352 378 391 421 391 467 C391 500 370 534 329 548 L350 596 L309 596 L293 555 C291 555 289 555 287 555 C211 555 139 484 139 413 C139 369 166 330 192 294 L113 88 C87 96 67 116 67 147 C67 191 101 228 130 228 L129 239 C70 239 30 197 30 151 C30 114 55 77 104 66 L87 21 L107 21 L125 63 C128 63 131 63 134 63 C227 63 297 115 297 197 C297 238 263 279 234 322 L321 528 C342 519 354 499 354 467 C354 427 322 389 292 389 L292 389 Z M245 194 C245 136 204 83 140 83 C138 83 136 84 133 84 L211 268 C230 243 245 218 245 194 L245 194 Z M188 432 C188 478 233 532 285 534 L215 352 C199 377 188 404 188 432 L188 432 Z " />
<glyph glyph-name="percent" unicode="&#x25;" horiz-adv-x="637" d="M350 560 C346 586 323 607 289 607 C186 607 98 476 108 404 C113 371 137 352 171 352 C272 352 362 483 350 560 L350 560 Z M283 587 C301 587 309 575 311 558 C321 492 231 372 177 372 C157 372 147 388 144 403 C134 469 222 587 283 587 L283 587 Z M509 253 C505 278 482 299 448 299 C345 299 256 168 267 96 C272 63 296 44 330 44 C431 44 521 175 509 253 L509 253 Z M442 279 C460 279 468 267 470 250 C480 184 390 64 336 64 C316 64 306 80 303 95 C293 161 381 279 442 279 L442 279 Z M44 44 L607 607 L554 607 L10 44 L44 44 L44 44 Z " />
<glyph glyph-name="ampersand" unicode="&#x26;" horiz-adv-x="429" d="M384 655 C255 655 111 509 111 414 C111 377 131 344 168 333 C87 293 0 203 0 107 C0 38 63 0 135 0 C140 0 146 0 151 1 C170 -38 207 -63 256 -63 C334 -63 390 15 406 67 L394 74 C371 17 320 -40 259 -40 C222 -40 194 -23 177 5 C293 32 374 169 374 242 C374 274 353 296 317 296 C232 296 135 192 135 76 C135 60 136 44 140 30 C96 33 60 59 60 110 C60 208 146 298 217 329 C263 333 284 347 294 353 C305 359 310 384 290 384 C270 384 239 352 201 352 C164 352 159 377 159 406 C159 498 307 633 390 633 C421 633 435 616 435 586 C435 530 387 474 345 474 C317 474 307 493 315 515 L295 513 C284 481 299 453 345 453 C400 453 469 506 469 584 C469 629 432 655 384 655 L384 655 Z M322 280 C342 280 352 270 352 245 C352 182 265 44 165 31 C162 43 160 56 160 71 C160 185 248 280 322 280 L322 280 Z " />
<glyph glyph-name="quotesingle" unicode="&#x27;" horiz-adv-x="213" d="M246 707 C236 707 231 697 231 690 C231 655 189 595 164 572 L176 554 C209 577 263 638 277 669 C287 690 263 707 246 707 L246 707 Z " />
<glyph glyph-name="parenleft" unicode="&#x28;" horiz-adv-x="355" d="M450 649 L443 670 C305 616 30 383 30 108 C30 29 63 -36 109 -82 L124 -68 C89 -13 75 26 75 101 C75 354 327 595 450 649 L450 649 Z " />
<glyph glyph-name="parenright" unicode="&#x29;" horiz-adv-x="480" d="M372 670 L357 656 C392 602 405 562 405 487 C405 234 154 -7 30 -61 L38 -82 C176 -28 450 206 450 480 C450 559 418 624 372 670 L372 670 Z " />
<glyph glyph-name="asterisk" unicode="&#x2a;" horiz-adv-x="259" d="M215 393 L165 417 L229 448 L218 469 L164 432 L189 491 L162 490 L146 428 L103 463 L85 438 L134 414 L70 382 L82 361 L136 398 L110 340 L138 341 L154 402 L196 368 L215 393 L215 393 Z " />
<glyph glyph-name="plus" unicode="&#x2b;" horiz-adv-x="335" d="M305 344 L193 345 L225 430 L191 461 L152 345 L48 346 L30 304 L139 306 L108 214 L135 190 L179 307 L291 309 L305 344 L305 344 Z " />
<glyph glyph-name="comma" unicode="&#x2c;" horiz-adv-x="260" d="M138 81 C119 81 95 62 84 39 C74 17 80 -1 98 -2 C93 -10 83 -20 70 -25 L70 -40 C92 -34 138 2 156 45 C164 67 156 81 138 81 L138 81 Z " />
<glyph glyph-name="hyphen" unicode="&#x2d;" horiz-adv-x="335" d="M291 309 L305 344 L48 346 L30 304 L291 309 L291 309 Z " />
<glyph glyph-name="period" unicode="&#x2e;" horiz-adv-x="250" d="M129 81 C110 81 86 62 75 39 C65 17 71 -2 90 -2 C109 -2 133 17 144 39 C155 62 148 81 129 81 L129 81 Z " />
<glyph glyph-name="slash" unicode="&#x2f;" horiz-adv-x="503" d="M30 2 L64 2 L561 564 L508 564 L30 2 L30 2 Z " />
<glyph glyph-name="zero" unicode="0" horiz-adv-x="414" d="M324 651 C162 651 -10 318 -10 134 C-10 48 24 0 77 0 C236 0 409 335 409 533 C409 598 376 651 324 651 L324 651 Z M79 19 C43 19 30 64 30 110 C30 296 215 632 321 632 C354 632 364 598 364 550 C364 363 173 19 79 19 L79 19 Z " />
<glyph glyph-name="one" unicode="1" horiz-adv-x="246" d="M252 651 C182 562 87 485 87 485 L105 460 C105 460 167 521 222 578 L-20 0 L29 0 L293 651 L252 651 L252 651 Z " />
<glyph glyph-name="two" unicode="2" horiz-adv-x="385" d="M411 557 C411 610 378 650 326 650 C212 650 113 539 113 449 C113 406 144 386 171 386 L175 400 C170 400 160 408 160 439 C160 522 254 622 322 622 C358 622 367 596 367 573 C367 355 -90 142 -90 0 L-55 0 C-55 0 -29 50 25 50 C59 50 80 0 134 0 C219 0 255 101 255 101 L223 101 C223 101 197 53 139 53 C98 53 74 87 22 87 C11 87 1 86 -8 83 C114 203 411 372 411 557 L411 557 Z " />
<glyph glyph-name="three" unicode="3" horiz-adv-x="376" d="M402 556 C402 611 366 650 299 650 C198 650 89 539 89 449 C89 406 120 386 147 386 L151 400 C146 400 136 408 136 439 C136 522 231 622 305 622 C345 622 358 600 358 562 C358 461 212 359 180 343 C180 343 180 342 180 342 C179 342 179 342 179 342 L179 342 C162 333 149 322 149 322 L150 308 C150 308 177 324 205 324 C233 324 251 302 251 268 C251 182 160 28 55 28 C20 28 0 47 0 79 C0 132 55 174 86 174 L86 199 C21 199 -50 149 -50 77 C-50 32 -13 0 55 0 C168 0 301 135 301 263 C301 315 269 339 236 347 C303 383 402 453 402 556 L402 556 Z " />
<glyph glyph-name="four" unicode="4" horiz-adv-x="384" d="M433 651 L392 651 C322 562 -20 219 -20 219 L-10 184 L200 190 L120 0 L169 0 L246 192 L309 194 L321 222 L259 222 L433 651 L433 651 Z M30 222 C105 304 278 483 356 565 L213 222 L30 222 L30 222 Z " />
<glyph glyph-name="five" unicode="5" horiz-adv-x="382" d="M55 324 L83 316 L83 316 C83 316 83 316 83 316 L83 316 L84 318 C92 327 139 378 195 378 C240 378 259 345 259 295 C259 190 160 28 55 28 C20 28 0 47 0 79 C0 132 55 174 86 174 L86 199 C21 199 -50 149 -50 77 C-50 32 -13 0 55 0 C168 0 310 143 310 290 C310 363 267 405 211 405 C160 405 123 381 101 361 L188 578 C188 578 365 578 413 578 L434 629 L179 629 L55 324 L55 324 Z " />
<glyph glyph-name="six" unicode="6" horiz-adv-x="413" d="M251 411 C201 411 157 390 121 362 C214 502 359 615 459 638 L452 662 C273 628 -10 374 -10 125 C-10 34 42 0 93 0 C212 0 345 172 345 300 C345 366 307 411 251 411 L251 411 Z M101 23 C56 23 33 54 33 107 C33 173 54 241 88 306 C126 348 184 385 236 385 C276 385 295 356 295 300 C295 190 184 23 101 23 L101 23 Z " />
<glyph glyph-name="seven" unicode="7" horiz-adv-x="381" d="M428 629 L172 629 L151 578 C151 578 321 578 397 578 L-85 0 L-21 0 L446 585 L428 629 L428 629 Z " />
<glyph glyph-name="eight" unicode="8" horiz-adv-x="422" d="M260 357 C344 373 422 450 422 545 C422 598 391 650 321 650 C216 650 125 555 125 457 C125 416 144 381 179 364 C66 346 -30 242 -30 135 C-30 65 17 0 96 0 C210 0 323 116 323 244 C323 291 300 337 260 357 L260 357 Z M315 628 C355 628 376 598 376 548 C376 477 316 369 229 369 C191 369 169 399 169 445 C169 542 252 628 315 628 L315 628 Z M96 23 C57 23 18 53 18 120 C18 236 129 349 198 349 C253 349 273 304 273 244 C273 158 201 23 96 23 L96 23 Z " />
<glyph glyph-name="nine" unicode="9" horiz-adv-x="399" d="M138 240 C188 240 232 261 268 289 C175 149 30 36 -70 13 L-63 -11 C116 23 399 277 399 526 C399 617 347 651 296 651 C177 651 44 479 44 351 C44 285 82 240 138 240 L138 240 Z M288 628 C333 628 356 597 356 544 C356 478 335 410 301 345 C263 303 205 266 153 266 C113 266 94 295 94 351 C94 461 205 628 288 628 L288 628 Z " />
<glyph glyph-name="colon" unicode="&#x3a;" horiz-adv-x="304" d="M212 383 C191 383 165 358 153 327 C141 296 148 271 169 271 C190 271 216 296 228 327 C240 358 233 383 212 383 L212 383 Z M135 181 C114 181 88 156 76 125 C64 94 71 69 92 69 C113 69 140 94 151 125 C163 156 156 181 135 181 L135 181 Z " />
<glyph glyph-name="semicolon" unicode="&#x3b;" horiz-adv-x="307" d="M215 383 C194 383 168 358 156 327 C144 296 152 271 172 271 C193 271 220 296 231 327 C243 358 236 383 215 383 L215 383 Z M137 181 C119 181 96 159 86 132 C76 105 82 83 100 83 C96 74 85 62 70 56 L70 41 C92 47 135 67 156 126 C168 160 156 181 137 181 L137 181 Z " />
<glyph glyph-name="less" unicode="&#x3c;" horiz-adv-x="491" d="M401 448 L89 292 L70 248 L301 149 L319 169 L122 270 L421 425 L401 448 L401 448 Z " />
<glyph glyph-name="equal" unicode="&#x3d;" horiz-adv-x="370" d="M326 362 L340 396 L83 399 L65 357 L326 362 Z M291 257 L305 291 L48 294 L30 252 L291 257 Z " />
<glyph glyph-name="greater" unicode="&#x3e;" horiz-adv-x="491" d="M90 148 L402 304 L421 348 L190 447 L172 427 L369 326 L70 171 L90 148 Z " />
<glyph glyph-name="question" unicode="&#x3f;" horiz-adv-x="393" d="M376 651 C262 651 168 539 168 449 C168 407 193 387 220 387 L225 400 C220 400 210 409 210 439 C210 522 304 623 371 623 C408 623 417 597 417 573 C417 498 337 423 267 350 C207 287 154 220 133 157 L168 157 C189 213 245 277 289 321 C367 398 465 484 465 565 C465 618 428 651 376 651 L376 651 Z M129 81 C110 81 86 62 75 39 C65 17 71 -2 90 -2 C109 -2 133 17 144 39 C155 62 148 81 129 81 L129 81 Z " />
<glyph glyph-name="at" unicode="&#x40;" horiz-adv-x="612" d="M408 510 C207 510 0 304 0 98 C0 -7 70 -96 187 -96 C248 -96 290 -62 315 -44 L307 -34 C284 -49 253 -73 192 -73 C101 -73 47 -3 47 89 C47 305 245 487 402 487 C492 487 552 437 552 352 C552 223 436 30 385 30 C370 30 362 43 362 69 C362 157 490 387 490 387 L450 386 C450 386 440 369 426 342 C428 375 401 403 370 403 C266 403 126 216 126 77 C126 28 146 -2 190 -2 C241 -2 290 54 327 111 C322 92 319 75 319 62 C319 21 337 0 371 0 C462 0 597 219 597 350 C597 457 521 510 408 510 L408 510 Z M206 32 C185 32 175 45 175 73 C175 197 299 377 377 377 C402 377 408 358 408 327 C408 318 404 305 398 288 C386 263 373 235 361 208 C317 125 250 32 206 32 L206 32 Z " />
<glyph glyph-name="A" unicode="A" horiz-adv-x="688" d="M561 38 C541 38 532 52 532 77 C532 242 719 656 719 656 L674 656 C674 656 674 656 674 656 C608 653 533 480 443 314 C405 356 354 385 292 385 C141 385 0 266 0 119 C0 47 53 -9 144 -9 C273 -9 370 125 450 272 C469 243 485 210 495 176 C485 133 479 93 479 61 C479 20 502 -1 535 -1 C615 -1 723 156 723 156 L716 163 C716 163 620 38 561 38 L561 38 Z M153 13 C86 13 50 49 50 120 C50 248 174 370 289 370 C346 370 396 340 433 295 C353 148 261 13 153 13 L153 13 Z M461 292 C538 437 600 588 662 630 C630 562 546 371 504 212 C494 240 479 268 461 292 L461 292 Z " />
<glyph glyph-name="B" unicode="B" horiz-adv-x="628" d="M494 380 C549 403 633 469 633 562 C633 618 590 681 491 681 C342 681 224 566 224 485 C224 449 253 432 280 432 C328 432 339 489 331 508 L319 504 C322 481 310 448 281 448 C263 448 251 462 251 481 C251 555 359 665 488 665 C555 665 583 631 583 574 C583 487 492 369 410 369 C404 369 399 345 404 347 C503 387 538 316 538 268 C538 152 433 26 353 26 C277 26 286 116 286 116 L268 106 C268 106 264 -6 361 -6 C473 -6 588 135 588 263 C588 333 536 380 494 380 L494 380 Z M464 579 L415 579 C405 561 323 364 292 291 C261 300 230 307 202 307 C86 307 0 213 0 113 C0 38 46 -9 102 -9 C180 -9 233 44 277 143 C293 180 454 561 464 579 L464 579 Z M110 13 C78 13 40 33 40 108 C40 199 103 291 203 291 C228 291 257 284 286 276 C266 228 247 184 228 143 C186 50 153 13 110 13 L110 13 Z " />
<glyph glyph-name="C" unicode="C" horiz-adv-x="439" d="M276 481 C266 450 280 421 326 421 C396 421 479 504 479 582 C479 627 443 654 394 654 C222 654 0 374 0 161 C0 66 62 -2 149 -2 C307 -2 394 236 394 236 L373 238 C373 238 287 28 155 28 C83 28 55 73 55 149 C55 382 282 631 400 631 C432 631 445 614 445 585 C445 529 387 443 327 443 C298 443 288 461 296 484 L276 481 L276 481 Z " />
<glyph glyph-name="D" unicode="D" horiz-adv-x="658" d="M483 681 C333 681 216 566 216 485 C216 448 245 432 271 432 C320 432 330 489 323 508 L311 504 C314 481 301 448 273 448 C255 448 243 462 243 481 C243 555 351 665 480 665 C566 665 612 598 612 497 C612 312 448 26 345 26 C280 26 293 116 293 116 L275 106 C275 106 256 -6 353 -6 C479 -6 663 276 663 491 C663 591 601 681 483 681 L483 681 Z M464 579 L415 579 C405 561 323 364 292 291 C261 300 230 307 202 307 C86 307 0 213 0 113 C0 38 46 -9 102 -9 C180 -9 233 44 277 143 C293 180 454 561 464 579 L464 579 Z M110 13 C78 13 40 33 40 108 C40 199 103 291 203 291 C228 291 257 284 286 276 C266 228 247 184 228 143 C186 50 153 13 110 13 L110 13 Z " />
<glyph glyph-name="E" unicode="E" horiz-adv-x="429" d="M266 481 C255 450 270 421 316 421 C385 421 469 504 469 582 C469 627 432 654 384 654 C217 654 88 487 88 373 C88 330 114 297 144 283 C70 258 0 188 0 105 C0 36 63 -2 135 -2 C310 -2 399 236 399 236 L377 238 C377 238 291 28 150 28 C102 28 60 54 60 108 C60 191 126 260 190 277 C238 280 261 295 271 301 C282 307 287 332 267 332 C247 332 216 299 178 299 C141 299 136 324 136 354 C136 482 277 631 390 631 C421 631 435 614 435 585 C435 529 376 443 316 443 C288 443 278 461 285 484 L266 481 L266 481 Z " />
<glyph glyph-name="F" unicode="F" horiz-adv-x="487" d="M567 697 C509 697 463 660 423 594 C366 624 310 671 240 671 C154 671 109 612 109 566 C109 519 155 491 205 491 C259 491 288 523 302 537 L290 550 C273 532 237 513 205 513 C173 513 145 529 145 568 C145 607 182 643 240 643 C300 643 353 602 412 573 C403 557 395 539 387 520 C354 442 323 364 292 291 C261 300 230 307 202 307 C86 307 0 213 0 113 C0 38 46 -9 102 -9 C180 -9 233 44 277 143 C293 180 310 220 328 263 C377 247 422 235 443 256 C449 261 442 287 437 282 C417 262 378 269 335 280 C365 353 398 434 435 520 C441 533 446 545 452 556 C470 550 490 546 510 546 C611 546 638 602 638 632 C638 662 613 697 567 697 L567 697 Z M228 143 C186 50 153 13 110 13 C78 13 40 33 40 108 C40 199 103 291 203 291 C228 291 257 284 286 276 C266 228 247 184 228 143 L228 143 Z M512 567 C495 567 478 571 462 577 C497 643 531 677 575 677 C612 677 619 654 619 636 C619 600 578 567 512 567 L512 567 Z " />
<glyph glyph-name="G" unicode="G" horiz-adv-x="521" d="M418 262 C413 251 409 240 404 228 C385 187 305 28 191 28 C119 28 91 73 91 149 C91 382 302 631 442 631 C476 631 498 610 498 568 C498 495 428 364 355 364 C326 364 317 382 324 405 L304 402 C294 370 309 342 355 342 C452 342 541 469 541 556 C541 620 509 654 435 654 C240 654 36 374 36 161 C36 66 98 -2 185 -2 C253 -2 308 42 348 92 C322 31 296 -29 271 -86 C236 -77 199 -67 167 -67 C51 -67 0 -156 0 -221 C0 -294 49 -332 110 -332 C195 -332 237 -268 277 -180 C285 -161 295 -139 306 -116 C350 -129 390 -137 409 -118 C414 -113 407 -87 402 -92 C384 -110 352 -107 314 -98 C361 10 421 149 466 262 L418 262 L418 262 Z M240 -156 C224 -192 182 -310 110 -310 C78 -310 40 -284 40 -226 C40 -172 68 -83 168 -83 C197 -83 230 -92 263 -103 C255 -121 248 -139 240 -156 L240 -156 Z " />
<glyph glyph-name="H" unicode="H" horiz-adv-x="618" d="M660 656 C660 656 559 452 490 276 C455 271 398 284 343 296 C378 378 414 463 437 520 C445 539 452 556 459 571 C459 571 460 571 460 571 C524 571 549 613 549 644 C549 670 529 686 504 686 C473 686 451 657 422 596 C370 616 327 671 243 671 C156 671 111 612 111 566 C111 519 157 491 207 491 C261 491 290 523 304 537 L292 550 C276 532 239 513 208 513 C176 513 148 529 148 568 C148 607 184 648 242 648 C315 648 360 599 415 579 C407 562 398 542 389 520 C366 466 333 385 299 306 C277 310 256 313 238 313 C109 313 0 227 0 113 C0 38 46 -9 102 -9 C180 -9 234 43 277 143 C294 182 314 230 336 280 C387 267 442 252 480 251 C450 171 428 100 428 61 C428 20 451 -1 485 -1 C564 -1 672 156 672 156 L666 163 C666 163 569 38 510 38 C491 38 482 52 482 77 C482 177 710 656 710 656 L660 656 L660 656 Z M513 666 C519 666 521 659 521 652 C521 632 504 594 467 589 C490 643 501 666 513 666 L513 666 Z M228 143 C187 50 153 13 110 13 C78 13 40 33 40 108 C40 212 126 297 239 297 C254 297 273 294 293 290 C270 236 247 184 228 143 L228 143 Z " />
<glyph glyph-name="I" unicode="I" horiz-adv-x="409" d="M504 686 C473 686 451 657 422 596 C370 616 327 671 243 671 C156 671 111 612 111 566 C111 519 157 491 207 491 C261 491 290 523 304 537 L292 550 C276 532 240 513 208 513 C176 513 148 529 148 568 C148 607 185 648 242 648 C315 648 360 599 415 579 C407 562 398 542 389 520 C350 425 276 248 228 143 C186 50 153 13 110 13 C78 13 40 28 40 85 C40 149 87 217 148 217 C176 217 186 199 178 176 L198 178 C209 210 194 239 148 239 C78 239 0 175 0 85 C0 23 46 -9 102 -9 C180 -9 233 44 277 143 C323 249 397 425 437 520 C445 539 452 556 459 571 C459 571 460 571 460 571 C524 571 549 613 549 644 C549 670 530 686 504 686 L504 686 Z M467 589 C490 643 502 666 513 666 C519 666 521 659 521 652 C521 632 504 594 467 589 L467 589 Z " />
<glyph glyph-name="J" unicode="J" horiz-adv-x="448" d="M543 686 C512 686 490 657 461 596 C409 616 366 671 281 671 C195 671 150 612 150 566 C150 519 196 491 246 491 C300 491 329 523 343 537 L331 550 C315 532 278 513 246 513 C215 513 186 529 186 568 C186 607 223 648 281 648 C353 648 399 599 453 579 C446 562 437 542 428 520 C395 443 339 311 294 206 C278 212 259 215 238 215 C109 215 0 129 0 16 C0 -49 41 -91 97 -91 C203 -91 261 16 304 116 C309 128 315 141 321 155 C327 143 330 130 330 119 C330 111 358 96 358 119 C358 144 349 165 332 182 C379 290 441 438 476 520 C484 539 491 556 498 571 C498 571 498 571 499 571 C563 571 588 613 588 644 C588 670 568 686 543 686 L543 686 Z M105 -69 C73 -69 40 -42 40 11 C40 115 126 200 239 200 C259 200 275 196 287 189 C276 162 265 137 256 116 C215 22 170 -69 105 -69 L105 -69 Z M506 590 C529 643 540 666 552 666 C558 666 560 659 560 652 C560 632 543 594 506 590 L506 590 Z " />
<glyph glyph-name="K" unicode="K" horiz-adv-x="646" d="M674 163 C674 163 578 38 518 38 C499 38 490 52 490 77 C490 165 576 279 576 336 C576 373 554 397 516 397 C498 397 478 391 459 380 C530 456 611 534 671 569 C679 573 654 621 647 616 C550 533 422 391 346 304 C380 384 414 465 437 520 C449 547 457 567 464 583 C494 603 516 642 516 665 C516 677 509 686 498 686 C477 686 452 655 420 589 C354 594 343 671 243 671 C156 671 111 612 111 566 C111 519 157 491 207 491 C261 491 290 523 304 537 L292 550 C276 532 240 513 208 513 C176 513 148 529 148 568 C148 607 185 648 242 648 C327 648 346 581 412 572 C405 556 397 539 389 520 C350 425 276 248 228 143 C186 50 153 13 110 13 C78 13 40 28 40 85 C40 149 87 217 148 217 C176 217 186 199 178 176 L198 178 C209 210 194 239 148 239 C78 239 0 175 0 85 C0 23 46 -9 102 -9 C167 -9 215 27 254 97 C254 97 255 98 255 99 C307 189 420 368 496 368 C516 368 519 355 519 334 C519 280 436 156 436 61 C436 20 459 -1 493 -1 C572 -1 680 156 680 156 L674 163 L674 163 Z " />
<glyph glyph-name="L" unicode="L" horiz-adv-x="576" d="M422 520 C428 533 434 545 439 556 C458 550 477 546 497 546 C598 546 626 602 626 632 C626 662 601 697 554 697 C495 697 449 660 409 591 C347 620 286 666 228 666 C141 666 96 612 96 566 C96 519 142 491 192 491 C246 491 275 523 289 537 L277 550 C261 532 225 513 193 513 C161 513 133 529 133 568 C133 607 170 643 227 643 C287 643 341 602 399 573 C390 557 382 539 374 520 C317 386 265 250 216 143 C214 140 213 136 211 133 C180 145 150 154 117 154 C52 154 0 113 0 60 C0 20 37 -9 89 -9 C152 -9 198 25 236 89 C295 50 357 2 438 2 C505 2 528 68 512 61 C414 22 333 74 251 115 C255 124 260 133 264 143 C310 247 360 376 422 520 L422 520 Z M563 677 C600 677 606 654 606 636 C606 600 565 567 499 567 C482 567 465 571 449 576 C484 643 518 677 563 677 L563 677 Z M97 13 C65 13 40 34 40 65 C40 100 66 135 123 135 C149 135 175 125 200 111 C165 42 135 13 97 13 L97 13 Z " />
<glyph glyph-name="M" unicode="M" horiz-adv-x="767" d="M638 38 C619 38 610 52 610 77 C610 199 839 656 839 656 L788 656 C788 656 784 648 777 633 L424 145 L490 656 L455 656 L455 656 L440 656 C440 656 271 248 223 143 C181 50 153 13 110 13 C78 13 40 28 40 85 C40 149 87 217 148 217 C176 217 186 199 178 176 L198 178 C209 210 194 239 148 239 C78 239 0 175 0 85 C0 23 46 -9 102 -9 C180 -9 228 44 272 143 C302 212 385 408 440 537 L381 86 L382 86 L416 86 L417 86 L706 487 C640 343 556 147 556 61 C556 20 580 -1 613 -1 C692 -1 801 156 801 156 L794 163 C794 163 698 38 638 38 L638 38 Z " />
<glyph glyph-name="N" unicode="N" horiz-adv-x="667" d="M840 697 L840 697 C764 697 702 633 655 520 C618 429 530 211 480 88 L490 656 L455 656 L455 656 L440 656 C440 656 271 248 223 143 C181 50 153 13 110 13 C78 13 40 28 40 85 C40 149 87 217 148 217 C176 217 186 199 178 176 L198 178 C209 210 194 239 148 239 C78 239 0 175 0 85 C0 23 46 -9 102 -9 C180 -9 228 44 272 143 C305 218 401 444 454 570 L444 -1 L444 -1 L479 -1 L493 -1 C493 -1 650 390 705 520 C746 619 789 672 840 677 L840 697 L840 697 Z " />
<glyph glyph-name="O" unicode="O" horiz-adv-x="457" d="M392 639 C220 639 0 356 0 129 C0 49 45 -17 135 -17 C280 -17 435 207 442 366 C445 421 424 442 410 450 C445 481 471 525 473 567 C476 612 441 639 392 639 L392 639 Z M440 570 C437 514 375 428 314 428 C286 428 277 446 286 469 L266 466 C254 435 267 406 313 406 C337 406 363 416 387 432 C390 423 394 404 393 376 C387 262 246 13 128 13 C71 13 50 56 50 117 C50 350 279 616 397 616 C428 616 441 599 440 570 L440 570 Z " />
<glyph glyph-name="P" unicode="P" horiz-adv-x="597" d="M491 681 C342 681 224 566 224 485 C224 449 253 432 280 432 C328 432 339 489 332 508 L319 504 C322 481 310 448 281 448 C263 448 251 462 251 481 C251 555 359 665 488 665 C566 665 620 620 620 552 C620 409 451 284 369 284 C363 284 359 260 365 262 C478 262 676 376 676 541 C676 616 602 681 491 681 L491 681 Z M462 579 L414 579 C407 561 398 542 389 520 C350 425 276 248 228 143 C186 50 153 13 110 13 C78 13 40 28 40 85 C40 149 87 217 148 217 C176 217 186 199 178 176 L198 178 C209 210 194 239 148 239 C78 239 0 175 0 85 C0 23 46 -9 102 -9 C180 -9 233 44 277 143 C323 249 397 425 437 520 C447 543 455 562 462 579 L462 579 Z " />
<glyph glyph-name="Q" unicode="Q" horiz-adv-x="469" d="M410 450 C445 481 471 525 473 567 C476 612 441 639 392 639 C220 639 0 356 0 129 C0 49 45 -17 135 -17 C175 -17 215 0 253 28 C278 -26 305 -86 348 -86 C403 -86 420 -21 414 -26 C401 -40 389 -48 368 -48 C327 -48 298 -3 271 42 C363 119 437 258 442 366 C445 421 424 442 410 450 L410 450 Z M393 376 C389 300 325 163 247 81 C218 127 187 157 143 113 L148 93 C186 131 211 108 233 67 C199 34 162 13 128 13 C71 13 50 56 50 117 C50 350 279 616 397 616 C428 616 441 599 440 570 C437 514 375 428 314 428 C286 428 277 446 286 469 L266 466 C254 435 267 406 313 406 C337 406 363 416 387 432 C390 423 394 404 393 376 L393 376 Z " />
<glyph glyph-name="R" unicode="R" horiz-adv-x="627" d="M676 541 C676 616 602 681 491 681 C342 681 224 566 224 485 C224 449 253 432 280 432 C328 432 339 489 332 508 L319 504 C322 481 310 448 281 448 C263 448 251 462 251 481 C251 555 359 665 488 665 C566 665 620 620 620 552 C620 409 451 284 369 284 C363 284 359 260 365 262 C380 262 397 264 415 268 C499 263 436 142 436 61 C436 20 454 -1 487 -1 C566 -1 675 156 675 156 L668 163 C668 163 572 38 513 38 C493 38 489 52 489 77 C489 151 554 259 461 282 C565 322 676 417 676 541 L676 541 Z M462 579 L414 579 C407 561 398 542 389 520 C350 425 276 248 228 143 C186 50 153 13 110 13 C78 13 40 28 40 85 C40 149 87 217 148 217 C176 217 186 199 178 176 L198 178 C209 210 194 239 148 239 C78 239 0 175 0 85 C0 23 46 -9 102 -9 C180 -9 233 44 277 143 C323 249 397 425 437 520 C447 543 455 562 462 579 L462 579 Z " />
<glyph glyph-name="S" unicode="S" horiz-adv-x="456" d="M360 433 C324 433 310 454 310 480 L288 480 C288 453 308 418 360 418 C442 418 496 476 496 539 C496 599 442 654 353 654 C257 654 170 563 170 465 C170 345 316 253 316 165 C316 85 238 13 151 13 C101 13 44 39 44 106 C44 159 80 212 137 212 C172 212 187 191 187 165 L208 165 C208 192 188 227 136 227 C55 227 0 169 0 106 C0 46 54 -9 143 -9 C270 -9 366 81 366 178 C366 274 217 371 217 481 C217 564 281 632 354 632 C410 632 452 606 452 539 C452 486 417 433 360 433 L360 433 Z " />
<glyph glyph-name="T" unicode="T" horiz-adv-x="423" d="M599 697 C531 697 478 666 436 609 C370 640 303 676 240 676 C154 676 109 612 109 566 C109 519 155 491 205 491 C259 491 288 523 302 537 L290 550 C273 532 237 513 205 513 C173 513 145 529 145 568 C145 607 182 643 240 643 C299 643 356 611 419 583 C407 564 397 543 387 520 C330 386 277 250 228 143 C186 50 153 13 110 13 C78 13 40 33 40 108 C40 199 103 291 203 291 L202 307 C86 307 0 213 0 113 C0 38 46 -9 102 -9 C180 -9 233 44 277 143 C323 247 373 376 435 520 C443 537 450 552 458 567 C494 552 533 542 574 542 C669 542 712 591 712 633 C712 677 652 697 599 697 L599 697 Z M575 567 C543 567 509 578 474 593 C510 649 553 677 607 677 C649 677 684 663 684 637 C684 606 652 567 575 567 L575 567 Z " />
<glyph glyph-name="U" unicode="U" horiz-adv-x="598" d="M626 656 C626 656 567 537 508 402 C457 303 306 29 199 29 C144 29 152 102 202 221 C245 325 295 445 326 520 C334 539 341 556 348 571 C348 571 349 571 349 571 C413 571 438 613 438 644 C438 670 419 686 393 686 C362 686 340 657 312 596 C259 616 216 671 132 671 C45 671 0 612 0 566 C0 519 46 491 96 491 C150 491 179 523 193 537 L181 550 C165 532 128 513 97 513 C65 513 37 529 37 568 C37 607 73 648 131 648 C204 648 249 599 304 579 C296 562 287 542 278 520 C246 445 197 330 152 221 C96 84 97 -1 196 -1 C277 -1 369 118 437 227 C412 157 394 96 394 61 C394 20 417 -1 451 -1 C530 -1 638 156 638 156 L632 163 C632 163 536 38 476 38 C457 38 448 52 448 77 C448 177 676 656 676 656 L626 656 L626 656 Z M402 666 C408 666 410 659 410 652 C410 632 393 594 356 589 C379 643 390 666 402 666 L402 666 Z " />
<glyph glyph-name="V" unicode="V" horiz-adv-x="418" d="M450 700 C397 700 326 625 326 509 C326 446 347 411 374 396 C286 222 157 29 77 29 C35 29 42 96 74 221 C103 330 209 656 209 656 L159 656 C159 656 56 335 25 221 C-13 81 -15 -1 74 -1 C170 -1 319 203 412 387 C446 389 473 405 492 440 L478 451 C466 428 447 411 422 407 C468 501 498 588 498 636 C498 679 481 700 450 700 L450 700 Z M384 418 C371 431 363 457 363 494 C363 612 418 675 450 675 C462 675 469 667 469 653 C469 613 434 520 384 418 L384 418 Z " />
<glyph glyph-name="W" unicode="W" horiz-adv-x="728" d="M803 440 L789 451 C776 428 757 411 732 407 C778 501 808 588 808 636 C808 679 791 700 761 700 C707 700 636 625 636 509 C636 446 658 411 684 396 C596 222 467 29 387 29 C345 29 352 96 385 221 C413 330 494 582 494 582 L443 582 C443 582 420 507 394 421 C318 252 171 29 77 29 C35 29 42 96 74 221 C103 330 209 656 209 656 L159 656 C159 656 56 335 25 221 C-13 81 -15 -1 74 -1 C155 -1 267 134 351 275 C345 255 340 237 336 221 C297 81 296 -1 384 -1 C481 -1 629 203 723 387 C756 389 784 405 803 440 L803 440 Z M673 494 C673 612 728 675 761 675 C772 675 779 667 779 653 C779 613 745 520 695 418 C682 431 673 457 673 494 L673 494 Z " />
<glyph glyph-name="X" unicode="X" horiz-adv-x="720" d="M746 662 C655 662 565 515 472 361 C443 506 414 656 414 656 L363 656 C363 656 402 457 433 296 C343 149 251 13 153 13 C86 13 50 49 50 120 C50 248 174 370 289 370 L292 385 C141 385 0 266 0 119 C0 47 53 -9 144 -9 C260 -9 357 110 443 247 C454 189 464 140 469 115 C481 57 507 -1 563 -1 C642 -1 751 156 751 156 L744 163 C744 163 648 38 589 38 C547 38 533 63 520 122 C512 162 497 233 482 311 C580 475 663 641 744 641 C776 641 789 617 788 588 C785 532 722 446 662 446 C634 446 625 464 633 487 L613 485 C601 453 615 424 661 424 C730 424 817 507 821 586 C824 631 795 662 746 662 L746 662 Z " />
<glyph glyph-name="Y" unicode="Y" horiz-adv-x="563" d="M432 -92 C414 -110 380 -107 342 -97 C437 125 664 656 664 656 L613 656 C613 656 567 544 507 401 C459 315 332 101 227 101 C173 101 180 173 230 292 C274 396 295 445 326 520 C334 539 341 556 348 571 C348 571 349 571 349 571 C413 571 438 613 438 644 C438 670 419 686 393 686 C362 686 340 657 312 596 C259 616 216 671 132 671 C45 671 0 612 0 566 C0 519 46 491 96 491 C150 491 179 523 193 537 L181 550 C165 532 128 513 97 513 C65 513 37 529 37 568 C37 607 73 648 131 648 C204 648 249 599 304 579 C296 562 287 542 278 520 C246 445 225 401 181 293 C124 156 126 70 224 70 C302 70 382 160 442 247 C390 124 337 0 300 -86 C265 -77 229 -67 197 -67 C81 -67 30 -156 30 -221 C30 -294 76 -332 131 -332 C209 -332 257 -294 306 -180 C312 -167 322 -144 334 -115 C379 -129 419 -138 438 -118 C444 -113 437 -87 432 -92 L432 -92 Z M402 666 C408 666 410 659 410 652 C410 632 393 594 356 589 C379 643 390 666 402 666 L402 666 Z M258 -180 C226 -248 201 -310 139 -310 C107 -310 70 -284 70 -226 C70 -172 98 -83 198 -83 C226 -83 260 -92 293 -102 C278 -137 266 -164 258 -180 L258 -180 Z " />
<glyph glyph-name="Z" unicode="Z" horiz-adv-x="519" d="M645 697 C604 697 539 653 468 590 C405 619 344 666 284 666 C198 666 153 612 153 566 C153 519 199 491 249 491 C303 491 332 523 346 537 L334 550 C317 532 281 513 249 513 C217 513 189 529 189 568 C189 607 226 643 284 643 C342 643 395 604 452 575 C323 456 183 284 153 217 L196 217 C238 269 286 314 326 314 C368 314 386 254 386 201 C386 140 370 74 345 14 C293 21 223 50 167 50 C51 50 0 -39 0 -104 C0 -176 47 -218 129 -218 C220 -218 319 -126 379 -12 C391 -11 402 -8 409 -1 C414 5 407 31 402 25 C400 23 397 21 394 19 C420 77 436 139 436 196 C436 294 374 336 319 336 C299 336 279 326 260 313 C319 389 406 485 485 560 C507 552 530 546 554 546 C655 546 682 630 682 660 C682 684 668 697 645 697 L645 697 Z M129 -191 C77 -191 40 -166 40 -102 C40 -48 80 35 168 35 C218 35 283 6 335 -6 C286 -110 207 -191 129 -191 L129 -191 Z M556 567 C538 567 520 571 503 577 C566 636 622 677 648 677 C659 677 663 670 663 661 C663 625 622 567 556 567 L556 567 Z " />
<glyph glyph-name="bracketleft" unicode="&#x5b;" horiz-adv-x="360" d="M339 647 L450 664 L455 685 L297 687 L30 -82 L187 -77 L199 -52 L70 -55 L339 647 L339 647 Z " />
<glyph glyph-name="backslash" unicode="&#x5c;" horiz-adv-x="471" d="M145 564 L292 2 L321 2 L182 564 L145 564 L145 564 Z " />
<glyph glyph-name="bracketright" unicode="&#x5d;" horiz-adv-x="485" d="M298 682 L286 657 L416 660 L147 -42 L36 -59 L30 -80 L189 -82 L455 687 L298 682 L298 682 Z " />
<glyph glyph-name="asciicircum" unicode="&#x5e;" horiz-adv-x="298" d="M91 355 C137 364 214 432 214 432 C214 432 215 355 251 355 C257 355 271 360 267 364 C252 376 240 444 245 487 C246 493 216 493 212 488 C180 440 109 387 72 372 C65 369 83 353 91 355 L91 355 Z " />
<glyph glyph-name="underscore" unicode="&#x5f;" horiz-adv-x="503" d="M473 -8 L42 -6 L30 -31 L465 -26 L473 -8 Z " />
<glyph glyph-name="grave" unicode="&#x60;" horiz-adv-x="166" d="M73 596 C56 596 22 579 32 558 C47 527 92 484 125 462 L136 479 C111 502 79 559 79 588 C79 591 77 596 73 596 L73 596 Z " />
<glyph glyph-name="a" unicode="a" horiz-adv-x="398" d="M427 164 C427 164 330 39 271 39 C251 39 242 53 242 78 C242 166 365 387 365 387 L325 386 C325 386 315 369 300 342 C303 375 276 403 245 403 C141 403 0 216 0 77 C0 28 21 -2 65 -2 C116 -2 165 54 202 111 C197 92 194 75 194 62 C194 21 212 0 246 0 C325 0 433 157 433 157 L427 164 L427 164 Z M80 32 C60 32 50 45 50 73 C50 197 174 377 252 377 C277 377 283 358 283 327 C283 318 279 305 273 288 C261 263 248 235 236 208 C192 125 125 32 80 32 L80 32 Z " />
<glyph glyph-name="b" unicode="b" horiz-adv-x="365" d="M302 119 C284 119 269 124 257 132 C297 192 324 263 324 325 C324 373 299 403 269 403 C256 403 244 398 234 388 C372 558 541 784 541 876 C541 921 515 947 483 947 C317 947 147 497 105 387 C68 291 -45 0 -45 0 L-1 0 C-1 0 5 16 15 41 C20 17 38 -2 80 -2 C134 -2 198 49 247 118 C262 108 279 103 296 103 C376 103 420 189 420 189 L409 199 C409 199 364 119 302 119 L302 119 Z M255 370 C266 370 274 356 274 329 C274 280 255 223 228 171 C218 195 214 224 214 258 C214 315 229 370 255 370 L255 370 Z M148 387 C185 482 357 917 485 917 C508 917 518 901 518 878 C518 754 208 377 91 240 C114 298 135 354 148 387 L148 387 Z M73 24 C36 24 30 57 41 110 C52 138 64 170 77 203 C106 235 159 297 220 371 C202 343 191 302 191 257 C191 213 201 177 216 152 C174 80 116 24 73 24 L73 24 Z " />
<glyph glyph-name="c" unicode="c" horiz-adv-x="310" d="M338 164 C338 164 227 27 140 27 C85 27 50 55 50 122 C50 237 168 377 232 377 C249 377 256 365 256 348 C256 325 242 293 219 266 C212 257 223 247 243 247 C262 247 287 296 287 330 C287 371 267 403 226 403 C125 403 0 250 0 116 C0 34 61 -4 120 -4 C234 -4 345 157 345 157 L338 164 Z " />
<glyph glyph-name="d" unicode="d" horiz-adv-x="403" d="M276 39 C257 39 248 51 248 72 C248 97 263 146 284 202 C379 310 749 740 749 876 C749 921 723 947 691 947 C525 947 355 497 312 387 C309 378 305 367 300 355 C295 382 272 403 245 403 C141 403 0 216 0 77 C0 28 21 -2 65 -2 C124 -2 181 73 219 139 C207 104 199 75 199 62 C199 21 217 0 251 0 C330 0 438 157 438 157 L432 164 C432 164 336 39 276 39 L276 39 Z M80 32 C60 32 50 45 50 73 C50 197 174 377 252 377 C277 377 283 358 283 327 C283 274 152 32 80 32 L80 32 Z M356 387 C391 482 565 917 693 917 C715 917 725 901 725 878 C725 754 414 375 298 238 C317 287 338 340 356 387 L356 387 Z " />
<glyph glyph-name="e" unicode="e" horiz-adv-x="309" d="M338 164 C338 164 227 27 139 27 C84 27 50 55 50 122 C50 133 51 144 53 156 C64 151 80 146 99 146 C188 146 287 260 287 330 C287 371 267 403 225 403 C125 403 0 250 0 116 C0 34 60 -4 120 -4 C233 -4 344 157 344 157 L338 164 Z M232 377 C249 377 255 365 255 348 C255 283 142 169 76 169 C68 169 61 170 56 172 C82 274 176 377 232 377 L232 377 Z " />
<glyph glyph-name="f" unicode="f" horiz-adv-x="278" d="M90 27 C64 27 41 33 23 47 C30 65 36 80 41 92 C51 116 61 142 72 169 C140 238 372 483 372 592 C372 624 358 652 324 652 C215 652 81 300 -2 92 C-3 90 -4 88 -5 85 C-17 96 -46 56 -32 36 C-30 34 -29 32 -27 30 C-75 -93 -152 -295 -152 -295 L-108 -295 C-108 -295 -41 -117 7 7 C26 -1 48 -4 71 -4 C206 -4 310 157 310 157 L304 164 C304 164 200 27 90 27 L90 27 Z M326 622 C342 622 349 608 349 594 C349 498 168 295 89 211 C165 397 263 622 326 622 L326 622 Z " />
<glyph glyph-name="g" unicode="g" horiz-adv-x="384" d="M413 157 L406 164 C406 164 316 51 194 -36 C199 -22 204 -10 208 -1 C245 96 357 387 357 387 L314 387 C314 387 309 373 300 351 C298 381 273 403 245 403 C141 403 0 216 0 77 C0 28 21 -2 65 -2 C124 -2 180 72 218 138 C196 82 176 31 164 -1 C158 -17 148 -43 135 -75 C132 -76 129 -78 127 -80 C-67 -188 -229 -391 -229 -490 C-229 -535 -203 -560 -170 -560 C-27 -560 118 -226 183 -64 C335 44 413 157 413 157 L413 157 Z M80 32 C60 32 50 45 50 73 C50 197 174 377 252 377 C277 377 283 358 283 327 C283 274 152 32 80 32 L80 32 Z M-173 -530 C-195 -530 -205 -514 -205 -491 C-205 -396 -58 -218 123 -104 C54 -265 -73 -530 -173 -530 L-173 -530 Z " />
<glyph glyph-name="h" unicode="h" horiz-adv-x="386" d="M270 39 C250 39 241 53 241 78 C241 166 339 306 339 363 C339 379 329 398 300 398 C237 398 98 190 29 80 C43 115 60 159 77 203 C172 311 541 740 541 876 C541 921 515 947 483 947 C317 947 147 497 105 387 C68 291 -45 0 -45 0 L-1 0 L-1 0 C-1 0 230 369 279 369 C284 369 286 366 286 361 C286 307 193 157 193 62 C193 21 211 0 244 0 C324 0 432 157 432 157 L425 164 C425 164 329 39 270 39 L270 39 Z M148 387 C185 482 357 917 485 917 C508 917 518 901 518 878 C518 754 208 377 91 240 C114 298 135 354 148 387 L148 387 Z " />
<glyph glyph-name="i" unicode="i" horiz-adv-x="208" d="M77 39 C58 39 49 53 49 78 C49 166 171 387 171 387 L131 386 C131 386 0 155 0 62 C0 21 18 0 52 0 C131 0 240 157 240 157 L233 164 C233 164 137 39 77 39 L77 39 Z M230 541 C211 541 185 522 172 500 C159 477 164 458 183 458 C201 458 227 477 240 500 C253 522 248 541 230 541 L230 541 Z " />
<glyph glyph-name="j" unicode="j" horiz-adv-x="175" d="M204 541 C185 541 160 522 147 500 C133 477 138 458 157 458 C176 458 201 477 214 500 C227 522 223 541 204 541 L204 541 Z M-10 -36 C-5 -22 0 -10 4 -1 C41 96 153 387 153 387 L110 387 C110 387 -2 97 -40 -1 C-46 -17 -56 -43 -69 -75 C-72 -76 -75 -78 -77 -80 C-271 -188 -433 -391 -433 -490 C-433 -535 -407 -560 -374 -560 C-231 -560 -86 -226 -21 -64 C131 44 209 157 209 157 L202 164 C202 164 112 51 -10 -36 L-10 -36 Z M-377 -530 C-399 -530 -409 -514 -409 -491 C-409 -396 -262 -218 -81 -104 C-150 -265 -277 -530 -377 -530 L-377 -530 Z " />
<glyph glyph-name="k" unicode="k" horiz-adv-x="376" d="M250 39 C214 39 172 115 169 160 C233 205 344 295 344 345 C344 369 334 386 306 386 C260 386 125 242 36 97 C49 129 63 166 77 203 C172 311 541 740 541 876 C541 921 515 947 483 947 C317 947 147 497 105 387 C68 291 -45 0 -45 0 L-8 0 L1 0 C72 158 264 369 300 369 C306 369 309 364 309 357 C309 305 139 157 126 157 C119 157 116 150 116 144 L116 144 C116 102 173 0 224 0 C304 0 412 157 412 157 L405 164 C405 164 309 39 250 39 L250 39 Z M148 387 C185 482 357 917 485 917 C508 917 518 901 518 878 C518 754 208 377 91 240 C114 298 135 354 148 387 L148 387 Z " />
<glyph glyph-name="l" unicode="l" horiz-adv-x="207" d="M80 39 C38 39 40 95 58 167 C90 202 553 725 553 876 C553 921 527 947 494 947 C328 947 133 497 90 387 C57 303 -71 0 55 0 C134 0 243 157 243 157 L236 164 C236 164 140 39 80 39 L80 39 Z M134 387 C169 482 368 917 497 917 C519 917 529 901 529 878 C529 740 140 281 65 194 C85 261 114 336 134 387 L134 387 Z " />
<glyph glyph-name="m" unicode="m" horiz-adv-x="597" d="M636 164 C636 164 540 39 480 39 C461 39 452 53 452 78 C452 166 549 306 549 363 C549 379 539 398 510 398 C445 398 299 174 232 68 C270 162 339 321 339 363 C339 379 329 398 301 398 C237 398 97 187 29 77 L148 387 L105 387 L-45 0 L-1 0 L-1 0 L-1 0 C-1 0 230 369 280 369 C285 369 286 366 286 361 C286 307 161 37 161 0 L209 0 C209 0 209 0 209 0 C217 12 441 369 490 369 C494 369 496 366 496 361 C496 307 403 157 403 62 C403 21 421 0 455 0 C534 0 642 157 642 157 L636 164 L636 164 Z " />
<glyph glyph-name="n" unicode="n" horiz-adv-x="388" d="M426 164 C426 164 330 39 271 39 C251 39 242 53 242 78 C242 166 339 306 339 363 C339 379 329 398 301 398 C237 398 97 187 29 77 L148 387 L105 387 L-45 0 L-1 0 L-1 0 L-1 0 C-1 0 230 369 280 369 C285 369 286 366 286 361 C286 307 193 157 193 62 C193 21 212 0 245 0 C324 0 433 157 433 157 L426 164 L426 164 Z " />
<glyph glyph-name="o" unicode="o" horiz-adv-x="359" d="M408 199 C408 199 363 119 301 119 C282 119 267 124 255 134 C292 198 315 272 315 323 C315 375 288 399 259 399 C248 399 239 395 230 388 C229 395 223 403 218 403 C128 403 -5 243 -5 100 C-5 32 36 -4 88 -4 C146 -4 204 50 246 119 C261 108 278 103 296 103 C376 103 419 189 419 189 L408 199 Z M256 370 C276 370 286 356 286 324 C286 283 264 219 232 162 C219 186 213 219 213 258 C213 315 229 370 256 370 L256 370 Z M91 27 C64 27 43 49 43 96 C43 213 154 369 220 377 C200 352 190 307 190 257 C190 208 202 170 221 144 C182 80 133 27 91 27 L91 27 Z " />
<glyph glyph-name="p" unicode="p" horiz-adv-x="371" d="M413 199 C413 199 368 119 306 119 C290 119 274 123 260 130 C300 190 328 263 328 325 C328 373 298 403 258 403 C204 403 160 335 160 257 C160 205 183 165 213 139 C171 74 118 24 77 24 C42 24 35 54 44 102 L153 387 L110 387 L-152 -295 L-109 -295 L19 39 C25 16 44 -2 84 -2 C137 -2 201 48 250 115 C267 107 285 103 301 103 C381 103 424 189 424 189 L413 199 Z M182 258 C182 315 222 370 249 370 C266 370 279 356 279 329 C279 275 255 211 223 156 C199 180 182 216 182 258 L182 258 Z " />
<glyph glyph-name="q" unicode="q" horiz-adv-x="370" d="M410 157 L404 164 C404 164 283 20 192 -42 L357 387 L314 387 L300 352 C298 381 273 403 245 403 C141 403 0 216 0 77 C0 28 21 -2 65 -2 C124 -2 180 73 218 139 L125 -104 L122 -110 C123 -110 123 -110 123 -110 L52 -295 L95 -295 L179 -77 C304 9 410 157 410 157 L410 157 Z M80 32 C60 32 50 45 50 73 C50 197 174 377 252 377 C277 377 283 358 283 327 C283 274 152 32 80 32 L80 32 Z " />
<glyph glyph-name="r" unicode="r" horiz-adv-x="327" d="M355 164 C355 164 259 39 200 39 C180 39 171 53 171 78 C171 166 294 387 294 387 L253 386 C253 386 252 384 249 379 C249 379 199 308 149 308 C145 308 142 308 138 309 C174 371 202 434 202 475 C202 496 189 512 170 512 C127 512 64 434 64 358 C64 326 80 299 110 289 C75 228 34 169 3 134 L11 125 C40 159 86 221 125 286 L136 286 C172 286 201 307 222 329 C184 254 122 126 122 62 C122 21 141 0 174 0 C253 0 362 157 362 157 L355 164 Z M99 359 C99 413 145 495 171 495 C179 495 183 490 183 472 C183 434 157 374 124 313 C109 320 99 335 99 359 L99 359 Z " />
<glyph glyph-name="s" unicode="s" horiz-adv-x="251" d="M279 164 C279 164 203 63 112 35 C136 61 153 99 153 146 C153 185 146 243 145 291 C185 340 220 379 220 415 C220 426 212 438 193 438 C154 438 100 393 100 270 L100 255 C66 210 30 165 4 134 L12 126 C30 146 64 188 100 234 C101 202 102 165 102 135 C102 71 58 23 9 23 C-22 23 -35 46 -40 71 L-64 53 C-53 21 -30 -7 22 -7 C30 -7 38 -6 45 -4 L46 -4 C182 -4 286 157 286 157 L279 164 Z M194 421 C199 421 202 416 202 414 C202 401 178 363 146 318 C150 379 177 421 194 421 L194 421 Z " />
<glyph glyph-name="t" unicode="t" horiz-adv-x="201" d="M72 39 C53 39 44 53 44 78 C44 124 91 241 144 357 L201 357 L213 386 L158 386 C222 526 291 657 291 657 L250 657 C250 657 182 527 116 386 L70 386 L57 357 L102 357 C46 235 -5 111 -5 62 C-5 21 13 0 47 0 C126 0 235 157 235 157 L228 164 C228 164 132 39 72 39 L72 39 Z " />
<glyph glyph-name="u" unicode="u" horiz-adv-x="400" d="M428 164 C428 164 332 39 272 39 C253 39 244 53 244 78 C244 166 366 387 366 387 L326 386 C326 386 285 313 248 232 C223 190 128 39 77 39 C58 39 49 53 49 78 C49 166 171 387 171 387 L131 386 C131 386 0 155 0 62 C0 21 18 0 52 0 C112 0 175 84 216 152 C204 117 195 85 195 62 C195 21 213 0 247 0 C326 0 435 157 435 157 L428 164 L428 164 Z " />
<glyph glyph-name="v" unicode="v" horiz-adv-x="349" d="M283 119 C264 119 250 125 239 134 C293 209 330 297 330 346 C330 372 318 396 288 396 C247 396 191 318 191 208 C191 179 197 157 208 140 C166 83 118 39 85 39 C59 39 49 56 49 101 C49 189 139 387 139 387 L98 386 C98 386 0 184 0 77 C0 27 24 0 59 0 C116 0 178 52 228 118 C242 108 259 103 278 103 C358 103 401 189 401 189 L390 199 C390 199 345 119 283 119 L283 119 Z M214 209 C214 286 257 352 285 352 C293 352 296 343 296 334 C296 291 264 221 222 159 C216 174 214 191 214 209 L214 209 Z " />
<glyph glyph-name="w" unicode="w" horiz-adv-x="577" d="M610 199 C610 199 565 119 503 119 C484 119 470 125 459 134 C513 209 550 297 550 346 C550 372 538 396 508 396 C467 396 411 318 411 208 C411 179 417 157 428 140 C386 83 338 39 305 39 C279 39 269 56 269 101 C269 189 359 387 359 387 L318 386 C318 386 283 313 254 231 C210 149 134 39 85 39 C59 39 49 56 49 101 C49 189 139 387 139 387 L98 386 C98 386 0 184 0 77 C0 27 24 0 59 0 C115 0 177 62 227 136 C223 115 220 95 220 77 C220 27 244 0 279 0 C336 0 398 52 448 118 C462 108 479 103 498 103 C578 103 621 189 621 189 L610 199 Z M434 209 C434 286 477 352 505 352 C513 352 516 343 516 334 C516 291 484 221 442 159 C436 174 434 191 434 209 L434 209 Z " />
<glyph glyph-name="x" unicode="x" horiz-adv-x="405" d="M433 164 C433 164 337 39 278 39 C258 39 238 47 229 78 C222 100 214 131 207 163 L401 387 L354 387 L198 207 C181 296 167 387 167 387 L126 386 C126 386 129 365 134 332 C95 257 40 177 3 134 L11 125 C43 163 95 235 137 307 C143 265 151 211 159 162 L18 0 L65 0 L168 118 C172 96 176 77 180 62 C191 22 219 0 252 0 C331 0 440 157 440 157 L433 164 Z " />
<glyph glyph-name="y" unicode="y" horiz-adv-x="374" d="M403 157 L396 164 C396 164 306 51 184 -36 C189 -22 194 -10 198 -1 C235 96 347 387 347 387 L304 387 C304 387 277 318 246 236 C224 199 125 39 73 39 C53 39 44 53 44 78 C44 166 166 387 166 387 L126 386 C126 386 -5 155 -5 62 C-5 21 14 0 47 0 C110 0 177 94 218 163 C193 98 168 35 154 -1 C148 -17 138 -43 125 -75 C122 -76 119 -78 117 -80 C-77 -188 -239 -391 -239 -490 C-239 -535 -213 -560 -180 -560 C-37 -560 108 -226 173 -64 C325 44 403 157 403 157 L403 157 Z M-183 -530 C-205 -530 -215 -514 -215 -491 C-215 -396 -68 -218 113 -104 C44 -265 -83 -530 -183 -530 L-183 -530 Z " />
<glyph glyph-name="z" unicode="z" horiz-adv-x="343" d="M378 157 L371 164 C371 164 302 78 204 -2 C206 14 207 31 207 46 C207 88 194 124 159 135 C248 218 335 368 335 368 L327 386 L328 386 L95 386 L77 343 L97 343 C89 263 49 185 2 134 L10 125 C55 176 103 260 112 343 L297 343 C255 286 179 186 117 136 C84 129 56 106 56 106 L56 106 C56 106 56 106 55 106 C49 106 55 81 61 81 C84 81 110 94 135 114 C159 109 164 76 164 46 C164 20 159 -10 152 -42 C132 -55 112 -68 92 -80 C-102 -188 -138 -275 -138 -328 C-138 -365 -110 -388 -71 -388 C49 -388 170 -187 200 -24 C318 70 378 157 378 157 L378 157 Z M-73 -358 C-100 -358 -114 -347 -114 -324 C-114 -285 -90 -214 93 -101 C111 -89 128 -78 145 -66 C104 -203 7 -358 -73 -358 L-73 -358 Z " />
<glyph glyph-name="braceleft" unicode="&#x7b;" horiz-adv-x="323" d="M103 308 C129 308 159 332 178 368 C212 431 256 530 299 590 C339 646 388 649 411 649 L418 670 C392 670 307 680 263 617 C215 550 178 444 142 377 C123 341 85 321 61 321 L57 295 C77 295 105 286 95 246 C76 177 30 113 30 30 C30 -44 102 -82 156 -82 L160 -65 C116 -65 75 -33 75 27 C75 89 101 164 127 234 C137 262 128 308 103 308 L103 308 Z " />
<glyph glyph-name="bar" unicode="&#x7c;" horiz-adv-x="323" d="M150 -95 L173 -95 L173 770 L150 770 L150 -95 L150 -95 Z " />
<glyph glyph-name="braceright" unicode="&#x7d;" horiz-adv-x="448" d="M346 281 C320 281 289 256 270 221 C236 157 192 59 149 -1 C109 -57 61 -60 37 -60 L30 -81 C56 -81 141 -91 186 -28 C234 38 270 145 306 211 C326 248 364 268 387 268 L392 294 C372 294 343 303 354 342 C372 412 418 475 418 559 C418 633 347 670 293 670 L289 654 C333 654 373 621 373 561 C373 499 347 425 322 355 C312 327 320 281 346 281 L346 281 Z " />
<glyph glyph-name="asciitilde" unicode="&#x7e;" horiz-adv-x="365" d="M314 374 C314 374 304 319 246 319 C204 319 181 360 128 360 C60 360 30 292 30 292 L47 278 C47 278 72 323 126 323 C181 323 191 277 245 277 C318 277 335 374 335 374 L314 374 L314 374 Z " />
<glyph glyph-name="cent" unicode="&#xa2;" horiz-adv-x="431" d="M155 89 C151 89 146 89 142 90 L331 537 C333 537 334 538 336 538 C355 538 363 526 363 503 C363 461 333 420 307 396 L315 383 C352 400 401 446 401 495 C401 531 372 552 338 554 L356 596 L315 596 L298 550 C174 520 30 331 30 185 C30 115 64 78 111 67 L93 21 L113 21 L131 63 C136 63 142 63 147 63 C266 63 331 241 331 241 L310 243 C310 243 243 89 155 89 L155 89 Z M82 176 C82 322 198 477 287 524 L122 95 C96 107 82 134 82 176 L82 176 Z " />
<glyph glyph-name="sterling" unicode="&#xa3;" horiz-adv-x="491" d="M389 541 C336 541 297 496 264 417 C249 383 235 348 221 314 L137 315 L122 283 L209 285 C190 239 172 195 154 156 C140 160 126 163 110 163 C64 163 30 133 30 96 C30 69 53 49 85 49 C129 49 155 73 180 119 C219 94 253 56 298 56 C345 56 361 118 350 112 C293 84 245 118 192 142 C193 146 195 151 197 155 C215 194 233 238 252 286 L340 288 L351 312 L264 313 C277 347 292 381 308 417 C339 490 368 518 397 518 C419 518 423 499 423 486 C423 440 378 404 347 404 L345 389 C398 389 461 426 461 479 C461 524 422 541 389 541 L389 541 Z M90 64 C77 64 65 72 65 94 C65 116 85 139 120 139 C128 139 137 138 145 135 C121 85 110 64 90 64 L90 64 Z " />
<glyph glyph-name="yen" unicode="&#xa5;" horiz-adv-x="441" d="M411 541 L358 541 C358 541 289 454 209 338 L221 541 L167 541 L175 289 L86 290 L71 258 L157 260 C146 242 134 223 122 205 L53 205 L38 173 L104 175 C77 128 51 81 30 36 L74 36 C96 81 123 129 153 176 L256 178 L266 203 L170 204 C183 223 195 243 208 262 L289 263 L300 288 L226 289 C321 427 411 541 411 541 L411 541 Z " />
<glyph glyph-name="section" unicode="&#xa7;" horiz-adv-x="491" d="M362 485 L362 474 C422 474 461 517 461 563 C461 606 425 651 357 651 C281 651 209 580 209 509 C209 496 211 483 215 471 C171 445 139 397 139 350 C139 263 245 195 245 131 C245 73 204 21 140 21 C104 21 67 43 67 84 C67 128 101 165 130 165 L129 177 C70 177 30 134 30 88 C30 45 65 0 134 0 C227 0 297 52 297 134 C297 148 293 161 287 175 C335 196 367 238 367 292 C367 367 258 441 258 527 C258 575 305 630 357 630 C399 630 424 609 424 563 C424 523 392 485 362 485 L362 485 Z M273 201 C242 254 188 308 188 369 C188 396 203 425 226 446 C256 387 315 338 315 290 C315 254 300 221 273 201 L273 201 Z " />
<glyph glyph-name="dieresis" unicode="&#xa8;" horiz-adv-x="255" d="M104 529 C115 551 108 570 89 570 C70 570 46 551 35 529 C25 506 31 487 50 487 C69 487 93 506 104 529 L104 529 Z M219 529 C230 551 223 570 204 570 C185 570 161 551 150 529 C140 506 146 487 165 487 C184 487 208 506 219 529 L219 529 Z " />
<glyph glyph-name="acute" unicode="&#xb4;" horiz-adv-x="166" d="M93 596 C90 596 87 591 87 588 C87 559 55 502 30 479 L42 462 C75 484 120 527 134 558 C144 579 111 596 93 596 L93 596 Z " />
<glyph glyph-name="cedilla" unicode="&#xb8;" horiz-adv-x="178" d="M99 43 L59 -47 C86 -35 129 -34 128 -53 C127 -73 82 -81 55 -79 L30 -132 C63 -127 143 -105 147 -51 C149 -23 121 -8 100 -8 L121 43 L99 43 L99 43 Z " />
<glyph glyph-name="Agrave" unicode="&#xc0;" horiz-adv-x="688" d="M561 38 C541 38 532 52 532 77 C532 242 719 656 719 656 L674 656 C674 656 674 656 674 656 C608 653 533 480 443 314 C405 356 354 385 292 385 C141 385 0 266 0 119 C0 47 53 -9 144 -9 C273 -9 370 125 450 272 C469 243 485 210 495 176 C485 133 479 93 479 61 C479 20 502 -1 535 -1 C615 -1 723 156 723 156 L716 163 C716 163 620 38 561 38 L561 38 Z M153 13 C86 13 50 49 50 120 C50 248 174 370 289 370 C346 370 396 340 433 295 C353 148 261 13 153 13 L153 13 Z M461 292 C538 437 600 588 662 630 C630 562 546 371 504 212 C494 240 479 268 461 292 L461 292 Z M638 856 C621 856 587 839 597 818 C612 787 657 744 690 722 L701 739 C676 762 644 819 644 848 C644 851 642 856 638 856 L638 856 Z " />
<glyph glyph-name="Aacute" unicode="&#xc1;" horiz-adv-x="688" d="M561 38 C541 38 532 52 532 77 C532 242 719 656 719 656 L674 656 C674 656 674 656 674 656 C608 653 533 480 443 314 C405 356 354 385 292 385 C141 385 0 266 0 119 C0 47 53 -9 144 -9 C273 -9 370 125 450 272 C469 243 485 210 495 176 C485 133 479 93 479 61 C479 20 502 -1 535 -1 C615 -1 723 156 723 156 L716 163 C716 163 620 38 561 38 L561 38 Z M153 13 C86 13 50 49 50 120 C50 248 174 370 289 370 C346 370 396 340 433 295 C353 148 261 13 153 13 L153 13 Z M461 292 C538 437 600 588 662 630 C630 562 546 371 504 212 C494 240 479 268 461 292 L461 292 Z M710 856 C707 856 704 851 704 848 C704 819 672 762 647 739 L659 722 C692 744 737 787 751 818 C761 839 728 856 710 856 L710 856 Z " />
<glyph glyph-name="Acircumflex" unicode="&#xc2;" horiz-adv-x="688" d="M561 38 C541 38 532 52 532 77 C532 242 719 656 719 656 L674 656 C674 656 674 656 674 656 C608 653 533 480 443 314 C405 356 354 385 292 385 C141 385 0 266 0 119 C0 47 53 -9 144 -9 C273 -9 370 125 450 272 C469 243 485 210 495 176 C485 133 479 93 479 61 C479 20 502 -1 535 -1 C615 -1 723 156 723 156 L716 163 C716 163 620 38 561 38 L561 38 Z M153 13 C86 13 50 49 50 120 C50 248 174 370 289 370 C346 370 396 340 433 295 C353 148 261 13 153 13 L153 13 Z M461 292 C538 437 600 588 662 630 C630 562 546 371 504 212 C494 240 479 268 461 292 L461 292 Z M637 733 C671 740 726 789 726 789 C726 789 727 733 753 733 C758 733 774 749 771 751 C760 760 752 809 755 841 C755 845 734 845 731 841 C708 806 656 768 629 757 C624 755 632 732 637 733 L637 733 Z " />
<glyph glyph-name="Atilde" unicode="&#xc3;" horiz-adv-x="688" d="M561 38 C541 38 532 52 532 77 C532 242 719 656 719 656 L674 656 C674 656 674 656 674 656 C608 653 533 480 443 314 C405 356 354 385 292 385 C141 385 0 266 0 119 C0 47 53 -9 144 -9 C273 -9 370 125 450 272 C469 243 485 210 495 176 C485 133 479 93 479 61 C479 20 502 -1 535 -1 C615 -1 723 156 723 156 L716 163 C716 163 620 38 561 38 L561 38 Z M153 13 C86 13 50 49 50 120 C50 248 174 370 289 370 C346 370 396 340 433 295 C353 148 261 13 153 13 L153 13 Z M461 292 C538 437 600 588 662 630 C630 562 546 371 504 212 C494 240 479 268 461 292 L461 292 Z M781 821 C781 821 774 789 748 789 C723 789 715 823 684 823 C644 823 614 773 614 773 L624 765 C624 765 642 791 665 791 C694 791 701 754 736 754 C777 754 793 821 793 821 L781 821 L781 821 Z " />
<glyph glyph-name="Adieresis" unicode="&#xc4;" horiz-adv-x="688" d="M561 38 C541 38 532 52 532 77 C532 242 719 656 719 656 L674 656 C674 656 674 656 674 656 C608 653 533 480 443 314 C405 356 354 385 292 385 C141 385 0 266 0 119 C0 47 53 -9 144 -9 C273 -9 370 125 450 272 C469 243 485 210 495 176 C485 133 479 93 479 61 C479 20 502 -1 535 -1 C615 -1 723 156 723 156 L716 163 C716 163 620 38 561 38 L561 38 Z M153 13 C86 13 50 49 50 120 C50 248 174 370 289 370 C346 370 396 340 433 295 C353 148 261 13 153 13 L153 13 Z M461 292 C538 437 600 588 662 630 C630 562 546 371 504 212 C494 240 479 268 461 292 L461 292 Z M684 789 C695 811 688 830 669 830 C650 830 626 811 615 789 C605 766 611 747 630 747 C649 747 673 766 684 789 L684 789 Z M799 789 C810 811 803 830 784 830 C765 830 741 811 730 789 C720 766 726 747 745 747 C764 747 788 766 799 789 L799 789 Z " />
<glyph glyph-name="Aring" unicode="&#xc5;" horiz-adv-x="688" d="M561 38 C541 38 532 52 532 77 C532 242 719 656 719 656 L674 656 C674 656 674 656 674 656 C608 653 533 480 443 314 C405 356 354 385 292 385 C141 385 0 266 0 119 C0 47 53 -9 144 -9 C273 -9 370 125 450 272 C469 243 485 210 495 176 C485 133 479 93 479 61 C479 20 502 -1 535 -1 C615 -1 723 156 723 156 L716 163 C716 163 620 38 561 38 L561 38 Z M153 13 C86 13 50 49 50 120 C50 248 174 370 289 370 C346 370 396 340 433 295 C353 148 261 13 153 13 L153 13 Z M461 292 C538 437 600 588 662 630 C630 562 546 371 504 212 C494 240 479 268 461 292 L461 292 Z M786 804 C786 831 772 850 747 850 C703 850 661 804 661 767 C661 737 688 727 704 727 C753 727 786 769 786 804 L786 804 Z M745 841 C754 841 758 835 760 827 C769 795 732 736 706 736 C696 736 690 744 688 752 C680 784 716 841 745 841 L745 841 Z " />
<glyph glyph-name="AE" unicode="&#xc6;" horiz-adv-x="1117" d="M561 38 C541 38 532 52 532 77 C532 242 719 656 719 656 L674 656 C674 656 674 656 674 656 C608 653 533 480 443 314 C405 356 354 385 292 385 C141 385 0 266 0 119 C0 47 53 -9 144 -9 C273 -9 370 125 450 272 C469 243 485 210 495 176 C485 133 479 93 479 61 C479 20 502 -1 535 -1 C615 -1 723 156 723 156 L716 163 C716 163 620 38 561 38 L561 38 Z M153 13 C86 13 50 49 50 120 C50 248 174 370 289 370 C346 370 396 340 433 295 C353 148 261 13 153 13 L153 13 Z M461 292 C538 437 600 588 662 630 C630 562 546 371 504 212 C494 240 479 268 461 292 L461 292 Z M954 481 C943 450 958 421 1004 421 C1073 421 1157 504 1157 582 C1157 627 1120 654 1072 654 C905 654 776 487 776 373 C776 330 802 297 832 283 C758 258 688 188 688 105 C688 36 751 -2 823 -2 C998 -2 1087 236 1087 236 L1065 238 C1065 238 979 28 838 28 C790 28 748 54 748 108 C748 191 814 260 878 277 C926 280 949 295 959 301 C970 307 975 332 955 332 C935 332 904 299 866 299 C829 299 824 324 824 354 C824 482 965 631 1078 631 C1109 631 1123 614 1123 585 C1123 529 1064 443 1004 443 C976 443 966 461 973 484 L954 481 L954 481 Z " />
<glyph glyph-name="Ccedilla" unicode="&#xc7;" horiz-adv-x="439" d="M276 481 C266 450 280 421 326 421 C396 421 479 504 479 582 C479 627 443 654 394 654 C222 654 0 374 0 161 C0 66 62 -2 149 -2 C307 -2 394 236 394 236 L373 238 C373 238 287 28 155 28 C83 28 55 73 55 149 C55 382 282 631 400 631 C432 631 445 614 445 585 C445 529 387 443 327 443 C298 443 288 461 296 484 L276 481 L276 481 Z M147 18 L107 -72 C134 -60 177 -59 176 -78 C175 -98 130 -106 103 -104 L78 -157 C111 -152 191 -130 195 -76 C197 -48 169 -33 148 -33 L169 18 L147 18 L147 18 Z " />
<glyph glyph-name="Egrave" unicode="&#xc8;" horiz-adv-x="429" d="M266 481 C255 450 270 421 316 421 C385 421 469 504 469 582 C469 627 432 654 384 654 C217 654 88 487 88 373 C88 330 114 297 144 283 C70 258 0 188 0 105 C0 36 63 -2 135 -2 C310 -2 399 236 399 236 L377 238 C377 238 291 28 150 28 C102 28 60 54 60 108 C60 191 126 260 190 277 C238 280 261 295 271 301 C282 307 287 332 267 332 C247 332 216 299 178 299 C141 299 136 324 136 354 C136 482 277 631 390 631 C421 631 435 614 435 585 C435 529 376 443 316 443 C288 443 278 461 285 484 L266 481 L266 481 Z M208 1156 C191 1156 157 1139 167 1118 C182 1087 227 1044 260 1022 L271 1039 C246 1062 214 1119 214 1148 C214 1151 212 1156 208 1156 L208 1156 Z " />
<glyph glyph-name="Eacute" unicode="&#xc9;" horiz-adv-x="429" d="M266 481 C255 450 270 421 316 421 C385 421 469 504 469 582 C469 627 432 654 384 654 C217 654 88 487 88 373 C88 330 114 297 144 283 C70 258 0 188 0 105 C0 36 63 -2 135 -2 C310 -2 399 236 399 236 L377 238 C377 238 291 28 150 28 C102 28 60 54 60 108 C60 191 126 260 190 277 C238 280 261 295 271 301 C282 307 287 332 267 332 C247 332 216 299 178 299 C141 299 136 324 136 354 C136 482 277 631 390 631 C421 631 435 614 435 585 C435 529 376 443 316 443 C288 443 278 461 285 484 L266 481 L266 481 Z M420 856 C417 856 414 851 414 848 C414 819 382 762 357 739 L369 722 C402 744 447 787 461 818 C471 839 438 856 420 856 L420 856 Z " />
<glyph glyph-name="Ecircumflex" unicode="&#xca;" horiz-adv-x="429" d="M266 481 C255 450 270 421 316 421 C385 421 469 504 469 582 C469 627 432 654 384 654 C217 654 88 487 88 373 C88 330 114 297 144 283 C70 258 0 188 0 105 C0 36 63 -2 135 -2 C310 -2 399 236 399 236 L377 238 C377 238 291 28 150 28 C102 28 60 54 60 108 C60 191 126 260 190 277 C238 280 261 295 271 301 C282 307 287 332 267 332 C247 332 216 299 178 299 C141 299 136 324 136 354 C136 482 277 631 390 631 C421 631 435 614 435 585 C435 529 376 443 316 443 C288 443 278 461 285 484 L266 481 L266 481 Z M352 733 C386 740 441 789 441 789 C441 789 442 733 468 733 C473 733 489 749 486 751 C475 760 467 809 470 841 C470 845 449 845 446 841 C423 806 371 768 344 757 C339 755 347 732 352 733 L352 733 Z " />
<glyph glyph-name="Edieresis" unicode="&#xcb;" horiz-adv-x="429" d="M266 481 C255 450 270 421 316 421 C385 421 469 504 469 582 C469 627 432 654 384 654 C217 654 88 487 88 373 C88 330 114 297 144 283 C70 258 0 188 0 105 C0 36 63 -2 135 -2 C310 -2 399 236 399 236 L377 238 C377 238 291 28 150 28 C102 28 60 54 60 108 C60 191 126 260 190 277 C238 280 261 295 271 301 C282 307 287 332 267 332 C247 332 216 299 178 299 C141 299 136 324 136 354 C136 482 277 631 390 631 C421 631 435 614 435 585 C435 529 376 443 316 443 C288 443 278 461 285 484 L266 481 L266 481 Z M391 789 C402 811 395 830 376 830 C357 830 333 811 322 789 C312 766 318 747 337 747 C356 747 380 766 391 789 L391 789 Z M506 789 C517 811 510 830 491 830 C472 830 448 811 437 789 C427 766 433 747 452 747 C471 747 495 766 506 789 L506 789 Z " />
<glyph glyph-name="Igrave" unicode="&#xcc;" horiz-adv-x="409" d="M504 686 C473 686 451 657 422 596 C370 616 327 671 243 671 C156 671 111 612 111 566 C111 519 157 491 207 491 C261 491 290 523 304 537 L292 550 C276 532 240 513 208 513 C176 513 148 529 148 568 C148 607 185 648 242 648 C315 648 360 599 415 579 C407 562 398 542 389 520 C350 425 276 248 228 143 C186 50 153 13 110 13 C78 13 40 28 40 85 C40 149 87 217 148 217 C176 217 186 199 178 176 L198 178 C209 210 194 239 148 239 C78 239 0 175 0 85 C0 23 46 -9 102 -9 C180 -9 233 44 277 143 C323 249 397 425 437 520 C445 539 452 556 459 571 C459 571 460 571 460 571 C524 571 549 613 549 644 C549 670 530 686 504 686 L504 686 Z M467 589 C490 643 502 666 513 666 C519 666 521 659 521 652 C521 632 504 594 467 589 L467 589 Z M358 886 C341 886 307 869 317 848 C332 817 377 774 410 752 L421 769 C396 792 364 849 364 878 C364 881 362 886 358 886 L358 886 Z " />
<glyph glyph-name="Iacute" unicode="&#xcd;" horiz-adv-x="409" d="M504 686 C473 686 451 657 422 596 C370 616 327 671 243 671 C156 671 111 612 111 566 C111 519 157 491 207 491 C261 491 290 523 304 537 L292 550 C276 532 240 513 208 513 C176 513 148 529 148 568 C148 607 185 648 242 648 C315 648 360 599 415 579 C407 562 398 542 389 520 C350 425 276 248 228 143 C186 50 153 13 110 13 C78 13 40 28 40 85 C40 149 87 217 148 217 C176 217 186 199 178 176 L198 178 C209 210 194 239 148 239 C78 239 0 175 0 85 C0 23 46 -9 102 -9 C180 -9 233 44 277 143 C323 249 397 425 437 520 C445 539 452 556 459 571 C459 571 460 571 460 571 C524 571 549 613 549 644 C549 670 530 686 504 686 L504 686 Z M467 589 C490 643 502 666 513 666 C519 666 521 659 521 652 C521 632 504 594 467 589 L467 589 Z M410 886 C407 886 404 881 404 878 C404 849 372 792 347 769 L359 752 C392 774 437 817 451 848 C461 869 428 886 410 886 L410 886 Z " />
<glyph glyph-name="Icircumflex" unicode="&#xce;" horiz-adv-x="409" d="M504 686 C473 686 451 657 422 596 C370 616 327 671 243 671 C156 671 111 612 111 566 C111 519 157 491 207 491 C261 491 290 523 304 537 L292 550 C276 532 240 513 208 513 C176 513 148 529 148 568 C148 607 185 648 242 648 C315 648 360 599 415 579 C407 562 398 542 389 520 C350 425 276 248 228 143 C186 50 153 13 110 13 C78 13 40 28 40 85 C40 149 87 217 148 217 C176 217 186 199 178 176 L198 178 C209 210 194 239 148 239 C78 239 0 175 0 85 C0 23 46 -9 102 -9 C180 -9 233 44 277 143 C323 249 397 425 437 520 C445 539 452 556 459 571 C459 571 460 571 460 571 C524 571 549 613 549 644 C549 670 530 686 504 686 L504 686 Z M467 589 C490 643 502 666 513 666 C519 666 521 659 521 652 C521 632 504 594 467 589 L467 589 Z M342 763 C376 770 431 819 431 819 C431 819 432 763 458 763 C463 763 479 779 476 781 C465 790 457 839 460 871 C460 875 439 875 436 871 C413 836 361 798 334 787 C329 785 337 762 342 763 L342 763 Z " />
<glyph glyph-name="Idieresis" unicode="&#xcf;" horiz-adv-x="409" d="M504 686 C473 686 451 657 422 596 C370 616 327 671 243 671 C156 671 111 612 111 566 C111 519 157 491 207 491 C261 491 290 523 304 537 L292 550 C276 532 240 513 208 513 C176 513 148 529 148 568 C148 607 185 648 242 648 C315 648 360 599 415 579 C407 562 398 542 389 520 C350 425 276 248 228 143 C186 50 153 13 110 13 C78 13 40 28 40 85 C40 149 87 217 148 217 C176 217 186 199 178 176 L198 178 C209 210 194 239 148 239 C78 239 0 175 0 85 C0 23 46 -9 102 -9 C180 -9 233 44 277 143 C323 249 397 425 437 520 C445 539 452 556 459 571 C459 571 460 571 460 571 C524 571 549 613 549 644 C549 670 530 686 504 686 L504 686 Z M467 589 C490 643 502 666 513 666 C519 666 521 659 521 652 C521 632 504 594 467 589 L467 589 Z M381 819 C392 841 385 860 366 860 C347 860 323 841 312 819 C302 796 308 777 327 777 C346 777 370 796 381 819 L381 819 Z M496 819 C507 841 500 860 481 860 C462 860 438 841 427 819 C417 796 423 777 442 777 C461 777 485 796 496 819 L496 819 Z " />
<glyph glyph-name="Eth" unicode="&#xd0;" horiz-adv-x="658" d="M483 681 C333 681 216 565 216 485 C216 448 245 432 271 432 C320 432 330 488 323 508 L311 503 C314 480 301 447 273 447 C255 447 243 461 243 481 C243 555 351 664 480 664 C566 664 612 598 612 497 C612 312 448 25 345 25 C280 25 293 115 293 115 L275 105 C275 105 256 -6 353 -6 C479 -6 663 275 663 490 C663 591 601 681 483 681 L483 681 Z M327 261 C376 246 420 235 441 256 C446 261 439 287 434 282 C414 262 377 268 335 279 C388 403 458 567 464 578 L415 578 C405 561 323 364 292 291 C261 299 230 307 202 307 C86 307 0 213 0 113 C0 38 46 -9 102 -9 C180 -9 233 43 277 143 C282 155 302 202 327 261 L327 261 Z M110 13 C78 13 40 33 40 108 C40 199 103 291 203 291 C228 291 257 284 286 275 C266 228 247 183 228 143 C186 50 153 13 110 13 L110 13 Z " />
<glyph glyph-name="Ntilde" unicode="&#xd1;" horiz-adv-x="667" d="M840 697 L840 697 C764 697 702 633 655 520 C618 429 530 211 480 88 L490 656 L455 656 L455 656 L440 656 C440 656 271 248 223 143 C181 50 153 13 110 13 C78 13 40 28 40 85 C40 149 87 217 148 217 C176 217 186 199 178 176 L198 178 C209 210 194 239 148 239 C78 239 0 175 0 85 C0 23 46 -9 102 -9 C180 -9 228 44 272 143 C305 218 401 444 454 570 L444 -1 L444 -1 L479 -1 L493 -1 C493 -1 650 390 705 520 C746 619 789 672 840 677 L840 697 L840 697 Z M711 821 C711 821 704 789 678 789 C653 789 645 823 614 823 C574 823 544 773 544 773 L554 765 C554 765 572 791 595 791 C624 791 631 754 666 754 C707 754 723 821 723 821 L711 821 L711 821 Z " />
<glyph glyph-name="Ograve" unicode="&#xd2;" horiz-adv-x="457" d="M392 639 C220 639 0 356 0 129 C0 49 45 -17 135 -17 C280 -17 435 207 442 366 C445 421 424 442 410 450 C445 481 471 525 473 567 C476 612 441 639 392 639 L392 639 Z M440 570 C437 514 375 428 314 428 C286 428 277 446 286 469 L266 466 C254 435 267 406 313 406 C337 406 363 416 387 432 C390 423 394 404 393 376 C387 262 246 13 128 13 C71 13 50 56 50 117 C50 350 279 616 397 616 C428 616 441 599 440 570 L440 570 Z M392 856 C375 856 341 839 351 818 C366 787 411 744 444 722 L455 739 C430 762 398 819 398 848 C398 851 396 856 392 856 L392 856 Z " />
<glyph glyph-name="Oacute" unicode="&#xd3;" horiz-adv-x="457" d="M392 639 C220 639 0 356 0 129 C0 49 45 -17 135 -17 C280 -17 435 207 442 366 C445 421 424 442 410 450 C445 481 471 525 473 567 C476 612 441 639 392 639 L392 639 Z M440 570 C437 514 375 428 314 428 C286 428 277 446 286 469 L266 466 C254 435 267 406 313 406 C337 406 363 416 387 432 C390 423 394 404 393 376 C387 262 246 13 128 13 C71 13 50 56 50 117 C50 350 279 616 397 616 C428 616 441 599 440 570 L440 570 Z M434 856 C431 856 428 851 428 848 C428 819 396 762 371 739 L383 722 C416 744 461 787 475 818 C485 839 452 856 434 856 L434 856 Z " />
<glyph glyph-name="Ocircumflex" unicode="&#xd4;" horiz-adv-x="457" d="M392 639 C220 639 0 356 0 129 C0 49 45 -17 135 -17 C280 -17 435 207 442 366 C445 421 424 442 410 450 C445 481 471 525 473 567 C476 612 441 639 392 639 L392 639 Z M440 570 C437 514 375 428 314 428 C286 428 277 446 286 469 L266 466 C254 435 267 406 313 406 C337 406 363 416 387 432 C390 423 394 404 393 376 C387 262 246 13 128 13 C71 13 50 56 50 117 C50 350 279 616 397 616 C428 616 441 599 440 570 L440 570 Z M366 733 C400 740 455 789 455 789 C455 789 456 733 482 733 C487 733 503 749 500 751 C489 760 481 809 484 841 C484 845 463 845 460 841 C437 806 385 768 358 757 C353 755 361 732 366 733 L366 733 Z " />
<glyph glyph-name="Otilde" unicode="&#xd5;" horiz-adv-x="457" d="M392 639 C220 639 0 356 0 129 C0 49 45 -17 135 -17 C280 -17 435 207 442 366 C445 421 424 442 410 450 C445 481 471 525 473 567 C476 612 441 639 392 639 L392 639 Z M440 570 C437 514 375 428 314 428 C286 428 277 446 286 469 L266 466 C254 435 267 406 313 406 C337 406 363 416 387 432 C390 423 394 404 393 376 C387 262 246 13 128 13 C71 13 50 56 50 117 C50 350 279 616 397 616 C428 616 441 599 440 570 L440 570 Z M506 821 C506 821 499 789 473 789 C448 789 440 823 409 823 C369 823 339 773 339 773 L349 765 C349 765 367 791 390 791 C419 791 426 754 461 754 C502 754 518 821 518 821 L506 821 L506 821 Z " />
<glyph glyph-name="Odieresis" unicode="&#xd6;" horiz-adv-x="457" d="M392 639 C220 639 0 356 0 129 C0 49 45 -17 135 -17 C280 -17 435 207 442 366 C445 421 424 442 410 450 C445 481 471 525 473 567 C476 612 441 639 392 639 L392 639 Z M440 570 C437 514 375 428 314 428 C286 428 277 446 286 469 L266 466 C254 435 267 406 313 406 C337 406 363 416 387 432 C390 423 394 404 393 376 C387 262 246 13 128 13 C71 13 50 56 50 117 C50 350 279 616 397 616 C428 616 441 599 440 570 L440 570 Z M405 789 C416 811 409 830 390 830 C371 830 347 811 336 789 C326 766 332 747 351 747 C370 747 394 766 405 789 L405 789 Z M520 789 C531 811 524 830 505 830 C486 830 462 811 451 789 C441 766 447 747 466 747 C485 747 509 766 520 789 L520 789 Z " />
<glyph glyph-name="Oslash" unicode="&#xd8;" horiz-adv-x="457" d="M404 453 L622 734 L561 734 L465 605 C452 627 425 639 392 639 C221 639 1 356 1 129 C1 89 12 53 34 27 L-69 -112 L-36 -112 L56 6 C77 -8 103 -17 135 -17 C280 -17 435 207 443 366 C446 430 416 448 404 453 L404 453 Z M50 117 C50 350 279 616 397 616 C428 616 441 600 440 572 L59 60 C53 76 50 95 50 117 L50 117 Z M393 376 C388 262 246 13 128 13 C106 13 89 20 76 32 L388 432 C391 422 394 404 393 376 L393 376 Z " />
<glyph glyph-name="Ugrave" unicode="&#xd9;" horiz-adv-x="598" d="M626 656 C626 656 567 537 508 402 C457 303 306 29 199 29 C144 29 152 102 202 221 C245 325 295 445 326 520 C334 539 341 556 348 571 C348 571 349 571 349 571 C413 571 438 613 438 644 C438 670 419 686 393 686 C362 686 340 657 312 596 C259 616 216 671 132 671 C45 671 0 612 0 566 C0 519 46 491 96 491 C150 491 179 523 193 537 L181 550 C165 532 128 513 97 513 C65 513 37 529 37 568 C37 607 73 648 131 648 C204 648 249 599 304 579 C296 562 287 542 278 520 C246 445 197 330 152 221 C96 84 97 -1 196 -1 C277 -1 369 118 437 227 C412 157 394 96 394 61 C394 20 417 -1 451 -1 C530 -1 638 156 638 156 L632 163 C632 163 536 38 476 38 C457 38 448 52 448 77 C448 177 676 656 676 656 L626 656 L626 656 Z M402 666 C408 666 410 659 410 652 C410 632 393 594 356 589 C379 643 390 666 402 666 L402 666 Z M493 856 C476 856 442 839 452 818 C467 787 512 744 545 722 L556 739 C531 762 499 819 499 848 C499 851 497 856 493 856 L493 856 Z " />
<glyph glyph-name="Uacute" unicode="&#xda;" horiz-adv-x="598" d="M626 656 C626 656 567 537 508 402 C457 303 306 29 199 29 C144 29 152 102 202 221 C245 325 295 445 326 520 C334 539 341 556 348 571 C348 571 349 571 349 571 C413 571 438 613 438 644 C438 670 419 686 393 686 C362 686 340 657 312 596 C259 616 216 671 132 671 C45 671 0 612 0 566 C0 519 46 491 96 491 C150 491 179 523 193 537 L181 550 C165 532 128 513 97 513 C65 513 37 529 37 568 C37 607 73 648 131 648 C204 648 249 599 304 579 C296 562 287 542 278 520 C246 445 197 330 152 221 C96 84 97 -1 196 -1 C277 -1 369 118 437 227 C412 157 394 96 394 61 C394 20 417 -1 451 -1 C530 -1 638 156 638 156 L632 163 C632 163 536 38 476 38 C457 38 448 52 448 77 C448 177 676 656 676 656 L626 656 L626 656 Z M402 666 C408 666 410 659 410 652 C410 632 393 594 356 589 C379 643 390 666 402 666 L402 666 Z M581 856 C578 856 575 851 575 848 C575 819 543 762 518 739 L530 722 C563 744 608 787 622 818 C632 839 599 856 581 856 L581 856 Z " />
<glyph glyph-name="Ucircumflex" unicode="&#xdb;" horiz-adv-x="598" d="M626 656 C626 656 567 537 508 402 C457 303 306 29 199 29 C144 29 152 102 202 221 C245 325 295 445 326 520 C334 539 341 556 348 571 C348 571 349 571 349 571 C413 571 438 613 438 644 C438 670 419 686 393 686 C362 686 340 657 312 596 C259 616 216 671 132 671 C45 671 0 612 0 566 C0 519 46 491 96 491 C150 491 179 523 193 537 L181 550 C165 532 128 513 97 513 C65 513 37 529 37 568 C37 607 73 648 131 648 C204 648 249 599 304 579 C296 562 287 542 278 520 C246 445 197 330 152 221 C96 84 97 -1 196 -1 C277 -1 369 118 437 227 C412 157 394 96 394 61 C394 20 417 -1 451 -1 C530 -1 638 156 638 156 L632 163 C632 163 536 38 476 38 C457 38 448 52 448 77 C448 177 676 656 676 656 L626 656 L626 656 Z M402 666 C408 666 410 659 410 652 C410 632 393 594 356 589 C379 643 390 666 402 666 L402 666 Z M487 733 C521 740 576 789 576 789 C576 789 577 733 603 733 C608 733 624 749 621 751 C610 760 602 809 605 841 C605 845 584 845 581 841 C558 806 506 768 479 757 C474 755 482 732 487 733 L487 733 Z " />
<glyph glyph-name="Udieresis" unicode="&#xdc;" horiz-adv-x="598" d="M626 656 C626 656 567 537 508 402 C457 303 306 29 199 29 C144 29 152 102 202 221 C245 325 295 445 326 520 C334 539 341 556 348 571 C348 571 349 571 349 571 C413 571 438 613 438 644 C438 670 419 686 393 686 C362 686 340 657 312 596 C259 616 216 671 132 671 C45 671 0 612 0 566 C0 519 46 491 96 491 C150 491 179 523 193 537 L181 550 C165 532 128 513 97 513 C65 513 37 529 37 568 C37 607 73 648 131 648 C204 648 249 599 304 579 C296 562 287 542 278 520 C246 445 197 330 152 221 C96 84 97 -1 196 -1 C277 -1 369 118 437 227 C412 157 394 96 394 61 C394 20 417 -1 451 -1 C530 -1 638 156 638 156 L632 163 C632 163 536 38 476 38 C457 38 448 52 448 77 C448 177 676 656 676 656 L626 656 L626 656 Z M402 666 C408 666 410 659 410 652 C410 632 393 594 356 589 C379 643 390 666 402 666 L402 666 Z M525 789 C536 811 529 830 510 830 C491 830 467 811 456 789 C446 766 452 747 471 747 C490 747 514 766 525 789 L525 789 Z M640 789 C651 811 644 830 625 830 C606 830 582 811 571 789 C561 766 567 747 586 747 C605 747 629 766 640 789 L640 789 Z " />
<glyph glyph-name="Yacute" unicode="&#xdd;" horiz-adv-x="563" d="M432 -92 C414 -110 380 -107 342 -97 C437 125 664 656 664 656 L613 656 C613 656 567 544 507 401 C459 315 332 101 227 101 C173 101 180 173 230 292 C274 396 295 445 326 520 C334 539 341 556 348 571 C348 571 349 571 349 571 C413 571 438 613 438 644 C438 670 419 686 393 686 C362 686 340 657 312 596 C259 616 216 671 132 671 C45 671 0 612 0 566 C0 519 46 491 96 491 C150 491 179 523 193 537 L181 550 C165 532 128 513 97 513 C65 513 37 529 37 568 C37 607 73 648 131 648 C204 648 249 599 304 579 C296 562 287 542 278 520 C246 445 225 401 181 293 C124 156 126 70 224 70 C302 70 382 160 442 247 C390 124 337 0 300 -86 C265 -77 229 -67 197 -67 C81 -67 30 -156 30 -221 C30 -294 76 -332 131 -332 C209 -332 257 -294 306 -180 C312 -167 322 -144 334 -115 C379 -129 419 -138 438 -118 C444 -113 437 -87 432 -92 L432 -92 Z M402 666 C408 666 410 659 410 652 C410 632 393 594 356 589 C379 643 390 666 402 666 L402 666 Z M258 -180 C226 -248 201 -310 139 -310 C107 -310 70 -284 70 -226 C70 -172 98 -83 198 -83 C226 -83 260 -92 293 -102 C278 -137 266 -164 258 -180 L258 -180 Z M577 856 C574 856 571 851 571 848 C571 819 539 762 514 739 L526 722 C559 744 604 787 618 818 C628 839 595 856 577 856 L577 856 Z " />
<glyph glyph-name="germandbls" unicode="&#xdf;" horiz-adv-x="363" d="M334 652 C212 652 81 300 -2 92 C-41 -4 -152 -295 -152 -295 L-108 -295 C-108 -295 2 -5 41 92 C119 283 245 622 336 622 C355 622 367 612 367 592 C367 521 219 470 219 270 C219 233 221 176 221 135 C221 71 177 23 129 23 C97 23 84 46 79 71 L56 53 C66 21 90 -7 141 -7 C207 -7 272 53 272 146 C272 188 264 253 264 303 C264 502 398 492 398 591 C398 623 375 652 334 652 L334 652 Z " />
<glyph glyph-name="agrave" unicode="&#xe0;" horiz-adv-x="398" d="M427 164 C427 164 330 39 271 39 C251 39 242 53 242 78 C242 166 365 387 365 387 L325 386 C325 386 315 369 300 342 C303 375 276 403 245 403 C141 403 0 216 0 77 C0 28 21 -2 65 -2 C116 -2 165 54 202 111 C197 92 194 75 194 62 C194 21 212 0 246 0 C325 0 433 157 433 157 L427 164 L427 164 Z M80 32 C60 32 50 45 50 73 C50 197 174 377 252 377 C277 377 283 358 283 327 C283 318 279 305 273 288 C261 263 248 235 236 208 C192 125 125 32 80 32 L80 32 Z M223 596 C206 596 172 579 182 558 C197 527 242 484 275 462 L286 479 C261 502 229 559 229 588 C229 591 227 596 223 596 L223 596 Z " />
<glyph glyph-name="aacute" unicode="&#xe1;" horiz-adv-x="398" d="M427 164 C427 164 330 39 271 39 C251 39 242 53 242 78 C242 166 365 387 365 387 L325 386 C325 386 315 369 300 342 C303 375 276 403 245 403 C141 403 0 216 0 77 C0 28 21 -2 65 -2 C116 -2 165 54 202 111 C197 92 194 75 194 62 C194 21 212 0 246 0 C325 0 433 157 433 157 L427 164 L427 164 Z M80 32 C60 32 50 45 50 73 C50 197 174 377 252 377 C277 377 283 358 283 327 C283 318 279 305 273 288 C261 263 248 235 236 208 C192 125 125 32 80 32 L80 32 Z M305 596 C302 596 299 591 299 588 C299 559 267 502 242 479 L254 462 C287 484 332 527 346 558 C356 579 323 596 305 596 L305 596 Z " />
<glyph glyph-name="acircumflex" unicode="&#xe2;" horiz-adv-x="398" d="M427 164 C427 164 330 39 271 39 C251 39 242 53 242 78 C242 166 365 387 365 387 L325 386 C325 386 315 369 300 342 C303 375 276 403 245 403 C141 403 0 216 0 77 C0 28 21 -2 65 -2 C116 -2 165 54 202 111 C197 92 194 75 194 62 C194 21 212 0 246 0 C325 0 433 157 433 157 L427 164 L427 164 Z M80 32 C60 32 50 45 50 73 C50 197 174 377 252 377 C277 377 283 358 283 327 C283 318 279 305 273 288 C261 263 248 235 236 208 C192 125 125 32 80 32 L80 32 Z M237 473 C271 480 326 529 326 529 C326 529 327 473 353 473 C358 473 374 489 371 491 C360 500 352 549 355 581 C355 585 334 585 331 581 C308 546 256 508 229 497 C224 495 232 472 237 473 L237 473 Z " />
<glyph glyph-name="atilde" unicode="&#xe3;" horiz-adv-x="398" d="M427 164 C427 164 330 39 271 39 C251 39 242 53 242 78 C242 166 365 387 365 387 L325 386 C325 386 315 369 300 342 C303 375 276 403 245 403 C141 403 0 216 0 77 C0 28 21 -2 65 -2 C116 -2 165 54 202 111 C197 92 194 75 194 62 C194 21 212 0 246 0 C325 0 433 157 433 157 L427 164 L427 164 Z M80 32 C60 32 50 45 50 73 C50 197 174 377 252 377 C277 377 283 358 283 327 C283 318 279 305 273 288 C261 263 248 235 236 208 C192 125 125 32 80 32 L80 32 Z M376 561 C376 561 369 529 343 529 C318 529 310 563 279 563 C239 563 209 513 209 513 L219 505 C219 505 237 531 260 531 C289 531 296 494 331 494 C372 494 388 561 388 561 L376 561 L376 561 Z " />
<glyph glyph-name="adieresis" unicode="&#xe4;" horiz-adv-x="398" d="M427 164 C427 164 330 39 271 39 C251 39 242 53 242 78 C242 166 365 387 365 387 L325 386 C325 386 315 369 300 342 C303 375 276 403 245 403 C141 403 0 216 0 77 C0 28 21 -2 65 -2 C116 -2 165 54 202 111 C197 92 194 75 194 62 C194 21 212 0 246 0 C325 0 433 157 433 157 L427 164 L427 164 Z M80 32 C60 32 50 45 50 73 C50 197 174 377 252 377 C277 377 283 358 283 327 C283 318 279 305 273 288 C261 263 248 235 236 208 C192 125 125 32 80 32 L80 32 Z M275 529 C286 551 279 570 260 570 C241 570 217 551 206 529 C196 506 202 487 221 487 C240 487 264 506 275 529 L275 529 Z M390 529 C401 551 394 570 375 570 C356 570 332 551 321 529 C311 506 317 487 336 487 C355 487 379 506 390 529 L390 529 Z " />
<glyph glyph-name="aring" unicode="&#xe5;" horiz-adv-x="398" d="M427 164 C427 164 330 39 271 39 C251 39 242 53 242 78 C242 166 365 387 365 387 L325 386 C325 386 315 369 300 342 C303 375 276 403 245 403 C141 403 0 216 0 77 C0 28 21 -2 65 -2 C116 -2 165 54 202 111 C197 92 194 75 194 62 C194 21 212 0 246 0 C325 0 433 157 433 157 L427 164 L427 164 Z M80 32 C60 32 50 45 50 73 C50 197 174 377 252 377 C277 377 283 358 283 327 C283 318 279 305 273 288 C261 263 248 235 236 208 C192 125 125 32 80 32 L80 32 Z M361 544 C361 571 347 590 322 590 C278 590 236 544 236 507 C236 477 263 467 279 467 C328 467 361 509 361 544 L361 544 Z M320 581 C329 581 333 575 335 567 C344 535 307 476 281 476 C271 476 265 484 263 492 C255 524 291 581 320 581 L320 581 Z " />
<glyph glyph-name="ae" unicode="&#xe6;" horiz-adv-x="707" d="M427 164 C427 164 330 39 271 39 C251 39 242 53 242 78 C242 166 365 387 365 387 L325 386 C325 386 315 369 300 342 C303 375 276 403 245 403 C141 403 0 216 0 77 C0 28 21 -2 65 -2 C116 -2 165 54 202 111 C197 92 194 75 194 62 C194 21 212 0 246 0 C325 0 433 157 433 157 L427 164 L427 164 Z M80 32 C60 32 50 45 50 73 C50 197 174 377 252 377 C277 377 283 358 283 327 C283 318 279 305 273 288 C261 263 248 235 236 208 C192 125 125 32 80 32 L80 32 Z M736 164 C736 164 625 27 537 27 C482 27 448 55 448 122 C448 133 449 144 451 156 C462 151 478 146 497 146 C586 146 685 260 685 330 C685 371 665 403 623 403 C523 403 398 250 398 116 C398 34 458 -4 518 -4 C631 -4 742 157 742 157 L736 164 Z M630 377 C647 377 653 365 653 348 C653 283 540 169 474 169 C466 169 459 170 454 172 C480 274 574 377 630 377 L630 377 Z " />
<glyph glyph-name="ccedilla" unicode="&#xe7;" horiz-adv-x="310" d="M338 164 C338 164 227 27 140 27 C85 27 50 55 50 122 C50 237 168 377 232 377 C249 377 256 365 256 348 C256 325 242 293 219 266 C212 257 223 247 243 247 C262 247 287 296 287 330 C287 371 267 403 226 403 C125 403 0 250 0 116 C0 34 61 -4 120 -4 C234 -4 345 157 345 157 L338 164 Z M116 12 L76 -78 C103 -66 146 -65 145 -84 C144 -104 99 -112 72 -110 L47 -163 C80 -158 160 -136 164 -82 C166 -54 138 -39 117 -39 L138 12 L116 12 L116 12 Z " />
<glyph glyph-name="egrave" unicode="&#xe8;" horiz-adv-x="309" d="M338 164 C338 164 227 27 139 27 C84 27 50 55 50 122 C50 133 51 144 53 156 C64 151 80 146 99 146 C188 146 287 260 287 330 C287 371 267 403 225 403 C125 403 0 250 0 116 C0 34 60 -4 120 -4 C233 -4 344 157 344 157 L338 164 Z M232 377 C249 377 255 365 255 348 C255 283 142 169 76 169 C68 169 61 170 56 172 C82 274 176 377 232 377 L232 377 Z M206 596 C189 596 155 579 165 558 C180 527 225 484 258 462 L269 479 C244 502 212 559 212 588 C212 591 210 596 206 596 L206 596 Z " />
<glyph glyph-name="eacute" unicode="&#xe9;" horiz-adv-x="309" d="M338 164 C338 164 227 27 139 27 C84 27 50 55 50 122 C50 133 51 144 53 156 C64 151 80 146 99 146 C188 146 287 260 287 330 C287 371 267 403 225 403 C125 403 0 250 0 116 C0 34 60 -4 120 -4 C233 -4 344 157 344 157 L338 164 Z M232 377 C249 377 255 365 255 348 C255 283 142 169 76 169 C68 169 61 170 56 172 C82 274 176 377 232 377 L232 377 Z M260 596 C257 596 254 591 254 588 C254 559 222 502 197 479 L209 462 C242 484 287 527 301 558 C311 579 278 596 260 596 L260 596 Z " />
<glyph glyph-name="ecircumflex" unicode="&#xea;" horiz-adv-x="309" d="M338 164 C338 164 227 27 139 27 C84 27 50 55 50 122 C50 133 51 144 53 156 C64 151 80 146 99 146 C188 146 287 260 287 330 C287 371 267 403 225 403 C125 403 0 250 0 116 C0 34 60 -4 120 -4 C233 -4 344 157 344 157 L338 164 Z M232 377 C249 377 255 365 255 348 C255 283 142 169 76 169 C68 169 61 170 56 172 C82 274 176 377 232 377 L232 377 Z M176 473 C210 480 265 529 265 529 C265 529 266 473 292 473 C297 473 313 489 310 491 C299 500 291 549 294 581 C294 585 273 585 270 581 C247 546 195 508 168 497 C163 495 171 472 176 473 L176 473 Z " />
<glyph glyph-name="edieresis" unicode="&#xeb;" horiz-adv-x="309" d="M338 164 C338 164 227 27 139 27 C84 27 50 55 50 122 C50 133 51 144 53 156 C64 151 80 146 99 146 C188 146 287 260 287 330 C287 371 267 403 225 403 C125 403 0 250 0 116 C0 34 60 -4 120 -4 C233 -4 344 157 344 157 L338 164 Z M232 377 C249 377 255 365 255 348 C255 283 142 169 76 169 C68 169 61 170 56 172 C82 274 176 377 232 377 L232 377 Z M232 529 C243 551 236 570 217 570 C198 570 174 551 163 529 C153 506 159 487 178 487 C197 487 221 506 232 529 L232 529 Z M347 529 C358 551 351 570 332 570 C313 570 289 551 278 529 C268 506 274 487 293 487 C312 487 336 506 347 529 L347 529 Z " />
<glyph glyph-name="igrave" unicode="&#xec;" horiz-adv-x="208" d="M77 39 C58 39 49 53 49 78 C49 166 171 387 171 387 L131 386 C131 386 0 155 0 62 C0 21 18 0 52 0 C131 0 240 157 240 157 L233 164 C233 164 137 39 77 39 L77 39 Z M147 596 C130 596 96 579 106 558 C121 527 166 484 199 462 L210 479 C185 502 153 559 153 588 C153 591 151 596 147 596 L147 596 Z " />
<glyph glyph-name="iacute" unicode="&#xed;" horiz-adv-x="208" d="M77 39 C58 39 49 53 49 78 C49 166 171 387 171 387 L131 386 C131 386 0 155 0 62 C0 21 18 0 52 0 C131 0 240 157 240 157 L233 164 C233 164 137 39 77 39 L77 39 Z M215 596 C212 596 209 591 209 588 C209 559 177 502 152 479 L164 462 C197 484 242 527 256 558 C266 579 233 596 215 596 L215 596 Z " />
<glyph glyph-name="icircumflex" unicode="&#xee;" horiz-adv-x="208" d="M77 39 C58 39 49 53 49 78 C49 166 171 387 171 387 L131 386 C131 386 0 155 0 62 C0 21 18 0 52 0 C131 0 240 157 240 157 L233 164 C233 164 137 39 77 39 L77 39 Z M127 473 C161 480 216 529 216 529 C216 529 217 473 243 473 C248 473 264 489 261 491 C250 500 242 549 245 581 C245 585 224 585 221 581 C198 546 146 508 119 497 C114 495 122 472 127 473 L127 473 Z " />
<glyph glyph-name="idieresis" unicode="&#xef;" horiz-adv-x="208" d="M77 39 C58 39 49 53 49 78 C49 166 171 387 171 387 L131 386 C131 386 0 155 0 62 C0 21 18 0 52 0 C131 0 240 157 240 157 L233 164 C233 164 137 39 77 39 L77 39 Z M178 529 C189 551 182 570 163 570 C144 570 120 551 109 529 C99 506 105 487 124 487 C143 487 167 506 178 529 L178 529 Z M293 529 C304 551 297 570 278 570 C259 570 235 551 224 529 C214 506 220 487 239 487 C258 487 282 506 293 529 L293 529 Z " />
<glyph glyph-name="ntilde" unicode="&#xf1;" horiz-adv-x="388" d="M426 164 C426 164 330 39 271 39 C251 39 242 53 242 78 C242 166 339 306 339 363 C339 379 329 398 301 398 C237 398 97 187 29 77 L148 387 L105 387 L-45 0 L-1 0 L-1 0 L-1 0 C-1 0 230 369 280 369 C285 369 286 366 286 361 C286 307 193 157 193 62 C193 21 212 0 245 0 C324 0 433 157 433 157 L426 164 L426 164 Z M330 561 C330 561 323 529 297 529 C272 529 264 563 233 563 C193 563 163 513 163 513 L173 505 C173 505 191 531 214 531 C243 531 250 494 285 494 C326 494 342 561 342 561 L330 561 L330 561 Z " />
<glyph glyph-name="ograve" unicode="&#xf2;" horiz-adv-x="359" d="M408 199 C408 199 363 119 301 119 C282 119 267 124 255 134 C292 198 315 272 315 323 C315 375 288 399 259 399 C248 399 239 395 230 388 C229 395 223 403 218 403 C128 403 -5 243 -5 100 C-5 32 36 -4 88 -4 C146 -4 204 50 246 119 C261 108 278 103 296 103 C376 103 419 189 419 189 L408 199 Z M256 370 C276 370 286 356 286 324 C286 283 264 219 232 162 C219 186 213 219 213 258 C213 315 229 370 256 370 L256 370 Z M91 27 C64 27 43 49 43 96 C43 213 154 369 220 377 C200 352 190 307 190 257 C190 208 202 170 221 144 C182 80 133 27 91 27 L91 27 Z M217 596 C200 596 166 579 176 558 C191 527 236 484 269 462 L280 479 C255 502 223 559 223 588 C223 591 221 596 217 596 L217 596 Z " />
<glyph glyph-name="oacute" unicode="&#xf3;" horiz-adv-x="359" d="M408 199 C408 199 363 119 301 119 C282 119 267 124 255 134 C292 198 315 272 315 323 C315 375 288 399 259 399 C248 399 239 395 230 388 C229 395 223 403 218 403 C128 403 -5 243 -5 100 C-5 32 36 -4 88 -4 C146 -4 204 50 246 119 C261 108 278 103 296 103 C376 103 419 189 419 189 L408 199 Z M256 370 C276 370 286 356 286 324 C286 283 264 219 232 162 C219 186 213 219 213 258 C213 315 229 370 256 370 L256 370 Z M91 27 C64 27 43 49 43 96 C43 213 154 369 220 377 C200 352 190 307 190 257 C190 208 202 170 221 144 C182 80 133 27 91 27 L91 27 Z M265 596 C262 596 259 591 259 588 C259 559 227 502 202 479 L214 462 C247 484 292 527 306 558 C316 579 283 596 265 596 L265 596 Z " />
<glyph glyph-name="ocircumflex" unicode="&#xf4;" horiz-adv-x="359" d="M408 199 C408 199 363 119 301 119 C282 119 267 124 255 134 C292 198 315 272 315 323 C315 375 288 399 259 399 C248 399 239 395 230 388 C229 395 223 403 218 403 C128 403 -5 243 -5 100 C-5 32 36 -4 88 -4 C146 -4 204 50 246 119 C261 108 278 103 296 103 C376 103 419 189 419 189 L408 199 Z M256 370 C276 370 286 356 286 324 C286 283 264 219 232 162 C219 186 213 219 213 258 C213 315 229 370 256 370 L256 370 Z M91 27 C64 27 43 49 43 96 C43 213 154 369 220 377 C200 352 190 307 190 257 C190 208 202 170 221 144 C182 80 133 27 91 27 L91 27 Z M186 473 C220 480 275 529 275 529 C275 529 276 473 302 473 C307 473 323 489 320 491 C309 500 301 549 304 581 C304 585 283 585 280 581 C257 546 205 508 178 497 C173 495 181 472 186 473 L186 473 Z " />
<glyph glyph-name="otilde" unicode="&#xf5;" horiz-adv-x="359" d="M408 199 C408 199 363 119 301 119 C282 119 267 124 255 134 C292 198 315 272 315 323 C315 375 288 399 259 399 C248 399 239 395 230 388 C229 395 223 403 218 403 C128 403 -5 243 -5 100 C-5 32 36 -4 88 -4 C146 -4 204 50 246 119 C261 108 278 103 296 103 C376 103 419 189 419 189 L408 199 Z M256 370 C276 370 286 356 286 324 C286 283 264 219 232 162 C219 186 213 219 213 258 C213 315 229 370 256 370 L256 370 Z M91 27 C64 27 43 49 43 96 C43 213 154 369 220 377 C200 352 190 307 190 257 C190 208 202 170 221 144 C182 80 133 27 91 27 L91 27 Z M337 561 C337 561 330 529 304 529 C279 529 271 563 240 563 C200 563 170 513 170 513 L180 505 C180 505 198 531 221 531 C250 531 257 494 292 494 C333 494 349 561 349 561 L337 561 L337 561 Z " />
<glyph glyph-name="odieresis" unicode="&#xf6;" horiz-adv-x="359" d="M408 199 C408 199 363 119 301 119 C282 119 267 124 255 134 C292 198 315 272 315 323 C315 375 288 399 259 399 C248 399 239 395 230 388 C229 395 223 403 218 403 C128 403 -5 243 -5 100 C-5 32 36 -4 88 -4 C146 -4 204 50 246 119 C261 108 278 103 296 103 C376 103 419 189 419 189 L408 199 Z M256 370 C276 370 286 356 286 324 C286 283 264 219 232 162 C219 186 213 219 213 258 C213 315 229 370 256 370 L256 370 Z M91 27 C64 27 43 49 43 96 C43 213 154 369 220 377 C200 352 190 307 190 257 C190 208 202 170 221 144 C182 80 133 27 91 27 L91 27 Z M245 529 C256 551 249 570 230 570 C211 570 187 551 176 529 C166 506 172 487 191 487 C210 487 234 506 245 529 L245 529 Z M360 529 C371 551 364 570 345 570 C326 570 302 551 291 529 C281 506 287 487 306 487 C325 487 349 506 360 529 L360 529 Z " />
<glyph glyph-name="ugrave" unicode="&#xf9;" horiz-adv-x="400" d="M428 164 C428 164 332 39 272 39 C253 39 244 53 244 78 C244 166 366 387 366 387 L326 386 C326 386 285 313 248 232 C223 190 128 39 77 39 C58 39 49 53 49 78 C49 166 171 387 171 387 L131 386 C131 386 0 155 0 62 C0 21 18 0 52 0 C112 0 175 84 216 152 C204 117 195 85 195 62 C195 21 213 0 247 0 C326 0 435 157 435 157 L428 164 L428 164 Z M255 596 C238 596 204 579 214 558 C229 527 274 484 307 462 L318 479 C293 502 261 559 261 588 C261 591 259 596 255 596 L255 596 Z " />
<glyph glyph-name="uacute" unicode="&#xfa;" horiz-adv-x="400" d="M428 164 C428 164 332 39 272 39 C253 39 244 53 244 78 C244 166 366 387 366 387 L326 386 C326 386 285 313 248 232 C223 190 128 39 77 39 C58 39 49 53 49 78 C49 166 171 387 171 387 L131 386 C131 386 0 155 0 62 C0 21 18 0 52 0 C112 0 175 84 216 152 C204 117 195 85 195 62 C195 21 213 0 247 0 C326 0 435 157 435 157 L428 164 L428 164 Z M310 596 C307 596 304 591 304 588 C304 559 272 502 247 479 L259 462 C292 484 337 527 351 558 C361 579 328 596 310 596 L310 596 Z " />
<glyph glyph-name="ucircumflex" unicode="&#xfb;" horiz-adv-x="400" d="M428 164 C428 164 332 39 272 39 C253 39 244 53 244 78 C244 166 366 387 366 387 L326 386 C326 386 285 313 248 232 C223 190 128 39 77 39 C58 39 49 53 49 78 C49 166 171 387 171 387 L131 386 C131 386 0 155 0 62 C0 21 18 0 52 0 C112 0 175 84 216 152 C204 117 195 85 195 62 C195 21 213 0 247 0 C326 0 435 157 435 157 L428 164 L428 164 Z M211 473 C245 480 300 529 300 529 C300 529 301 473 327 473 C332 473 348 489 345 491 C334 500 326 549 329 581 C329 585 308 585 305 581 C282 546 230 508 203 497 C198 495 206 472 211 473 L211 473 Z " />
<glyph glyph-name="udieresis" unicode="&#xfc;" horiz-adv-x="400" d="M428 164 C428 164 332 39 272 39 C253 39 244 53 244 78 C244 166 366 387 366 387 L326 386 C326 386 285 313 248 232 C223 190 128 39 77 39 C58 39 49 53 49 78 C49 166 171 387 171 387 L131 386 C131 386 0 155 0 62 C0 21 18 0 52 0 C112 0 175 84 216 152 C204 117 195 85 195 62 C195 21 213 0 247 0 C326 0 435 157 435 157 L428 164 L428 164 Z M265 529 C276 551 269 570 250 570 C231 570 207 551 196 529 C186 506 192 487 211 487 C230 487 254 506 265 529 L265 529 Z M380 529 C391 551 384 570 365 570 C346 570 322 551 311 529 C301 506 307 487 326 487 C345 487 369 506 380 529 L380 529 Z " />
<glyph glyph-name="yacute" unicode="&#xfd;" horiz-adv-x="374" d="M403 157 L396 164 C396 164 306 51 184 -36 C189 -22 194 -10 198 -1 C235 96 347 387 347 387 L304 387 C304 387 277 318 246 236 C224 199 125 39 73 39 C53 39 44 53 44 78 C44 166 166 387 166 387 L126 386 C126 386 -5 155 -5 62 C-5 21 14 0 47 0 C110 0 177 94 218 163 C193 98 168 35 154 -1 C148 -17 138 -43 125 -75 C122 -76 119 -78 117 -80 C-77 -188 -239 -391 -239 -490 C-239 -535 -213 -560 -180 -560 C-37 -560 108 -226 173 -64 C325 44 403 157 403 157 L403 157 Z M-183 -530 C-205 -530 -215 -514 -215 -491 C-215 -396 -68 -218 113 -104 C44 -265 -83 -530 -183 -530 L-183 -530 Z M306 596 C303 596 300 591 300 588 C300 559 268 502 243 479 L255 462 C288 484 333 527 347 558 C357 579 324 596 306 596 L306 596 Z " />
<glyph glyph-name="ydieresis" unicode="&#xff;" horiz-adv-x="374" d="M403 157 L396 164 C396 164 306 51 184 -36 C189 -22 194 -10 198 -1 C235 96 347 387 347 387 L304 387 C304 387 277 318 246 236 C224 199 125 39 73 39 C53 39 44 53 44 78 C44 166 166 387 166 387 L126 386 C126 386 -5 155 -5 62 C-5 21 14 0 47 0 C110 0 177 94 218 163 C193 98 168 35 154 -1 C148 -17 138 -43 125 -75 C122 -76 119 -78 117 -80 C-77 -188 -239 -391 -239 -490 C-239 -535 -213 -560 -180 -560 C-37 -560 108 -226 173 -64 C325 44 403 157 403 157 L403 157 Z M-183 -530 C-205 -530 -215 -514 -215 -491 C-215 -396 -68 -218 113 -104 C44 -265 -83 -530 -183 -530 L-183 -530 Z M262 529 C273 551 266 570 247 570 C228 570 204 551 193 529 C183 506 189 487 208 487 C227 487 251 506 262 529 L262 529 Z M377 529 C388 551 381 570 362 570 C343 570 319 551 308 529 C298 506 304 487 323 487 C342 487 366 506 377 529 L377 529 Z " />
<glyph glyph-name="Ydieresis" unicode="&#x178;" horiz-adv-x="563" d="M432 -92 C414 -110 380 -107 342 -97 C437 125 664 656 664 656 L613 656 C613 656 567 544 507 401 C459 315 332 101 227 101 C173 101 180 173 230 292 C274 396 295 445 326 520 C334 539 341 556 348 571 C348 571 349 571 349 571 C413 571 438 613 438 644 C438 670 419 686 393 686 C362 686 340 657 312 596 C259 616 216 671 132 671 C45 671 0 612 0 566 C0 519 46 491 96 491 C150 491 179 523 193 537 L181 550 C165 532 128 513 97 513 C65 513 37 529 37 568 C37 607 73 648 131 648 C204 648 249 599 304 579 C296 562 287 542 278 520 C246 445 225 401 181 293 C124 156 126 70 224 70 C302 70 382 160 442 247 C390 124 337 0 300 -86 C265 -77 229 -67 197 -67 C81 -67 30 -156 30 -221 C30 -294 76 -332 131 -332 C209 -332 257 -294 306 -180 C312 -167 322 -144 334 -115 C379 -129 419 -138 438 -118 C444 -113 437 -87 432 -92 L432 -92 Z M402 666 C408 666 410 659 410 652 C410 632 393 594 356 589 C379 643 390 666 402 666 L402 666 Z M258 -180 C226 -248 201 -310 139 -310 C107 -310 70 -284 70 -226 C70 -172 98 -83 198 -83 C226 -83 260 -92 293 -102 C278 -137 266 -164 258 -180 L258 -180 Z M545 819 C556 841 549 860 530 860 C511 860 487 841 476 819 C466 796 472 777 491 777 C510 777 534 796 545 819 L545 819 Z M660 819 C671 841 664 860 645 860 C626 860 602 841 591 819 C581 796 587 777 606 777 C625 777 649 796 660 819 L660 819 Z " />
<glyph glyph-name="Zcaron" unicode="&#x17d;" horiz-adv-x="519" d="M645 697 C604 697 539 653 468 590 C405 619 344 666 284 666 C198 666 153 612 153 566 C153 519 199 491 249 491 C303 491 332 523 346 537 L334 550 C317 532 281 513 249 513 C217 513 189 529 189 568 C189 607 226 643 284 643 C342 643 395 604 452 575 C323 456 183 284 153 217 L196 217 C238 269 286 314 326 314 C368 314 386 254 386 201 C386 140 370 74 345 14 C293 21 223 50 167 50 C51 50 0 -39 0 -104 C0 -176 47 -218 129 -218 C220 -218 319 -126 379 -12 C391 -11 402 -8 409 -1 C414 5 407 31 402 25 C400 23 397 21 394 19 C420 77 436 139 436 196 C436 294 374 336 319 336 C299 336 279 326 260 313 C319 389 406 485 485 560 C507 552 530 546 554 546 C655 546 682 630 682 660 C682 684 668 697 645 697 L645 697 Z M129 -191 C77 -191 40 -166 40 -102 C40 -48 80 35 168 35 C218 35 283 6 335 -6 C286 -110 207 -191 129 -191 L129 -191 Z M556 567 C538 567 520 571 503 577 C566 636 622 677 648 677 C659 677 663 670 663 661 C663 625 622 567 556 567 L556 567 Z M551 844 C517 837 462 788 462 788 C462 788 461 844 435 844 C430 844 414 829 417 826 C428 817 436 768 433 736 C433 732 454 732 457 736 C480 771 532 809 559 820 C564 822 556 845 551 844 L551 844 Z " />
<glyph glyph-name="zcaron" unicode="&#x17e;" horiz-adv-x="343" d="M378 157 L371 164 C371 164 302 78 204 -2 C206 14 207 31 207 46 C207 88 194 124 159 135 C248 218 335 368 335 368 L327 386 L328 386 L95 386 L77 343 L97 343 C89 263 49 185 2 134 L10 125 C55 176 103 260 112 343 L297 343 C255 286 179 186 117 136 C84 129 56 106 56 106 L56 106 C56 106 56 106 55 106 C49 106 55 81 61 81 C84 81 110 94 135 114 C159 109 164 76 164 46 C164 20 159 -10 152 -42 C132 -55 112 -68 92 -80 C-102 -188 -138 -275 -138 -328 C-138 -365 -110 -388 -71 -388 C49 -388 170 -187 200 -24 C318 70 378 157 378 157 L378 157 Z M-73 -358 C-100 -358 -114 -347 -114 -324 C-114 -285 -90 -214 93 -101 C111 -89 128 -78 145 -66 C104 -203 7 -358 -73 -358 L-73 -358 Z M334 584 C300 577 245 528 245 528 C245 528 244 584 218 584 C213 584 197 569 200 566 C211 557 219 508 216 476 C216 472 237 472 240 476 C263 511 315 549 342 560 C347 562 339 585 334 584 L334 584 Z " />
<glyph glyph-name="circumflex" unicode="&#x2c6;" horiz-adv-x="205" d="M40 473 C74 480 129 529 129 529 C129 529 130 473 156 473 C161 473 177 489 174 491 C163 500 155 549 158 581 C158 585 137 585 134 581 C111 546 59 508 32 497 C27 495 35 472 40 473 L40 473 Z " />
<glyph glyph-name="caron" unicode="&#x2c7;" horiz-adv-x="205" d="M165 584 C131 577 76 528 76 528 C76 528 75 584 49 584 C44 584 28 569 31 566 C42 557 50 508 47 476 C47 472 68 472 71 476 C94 511 146 549 173 560 C178 562 170 585 165 584 L165 584 Z " />
<glyph glyph-name="breve" unicode="&#x2d8;" horiz-adv-x="184" d="M125 563 C115 534 94 504 75 504 C65 504 59 512 57 520 C54 532 57 548 64 563 L37 563 C33 553 30 544 30 535 C30 505 57 495 73 495 C118 495 149 529 154 563 L125 563 L125 563 Z " />
<glyph glyph-name="ring" unicode="&#x2da;" horiz-adv-x="185" d="M155 544 C155 571 141 590 116 590 C72 590 30 544 30 507 C30 477 57 467 73 467 C122 467 155 509 155 544 L155 544 Z M114 581 C123 581 127 575 129 567 C138 535 101 476 75 476 C65 476 59 484 57 492 C49 524 85 581 114 581 L114 581 Z " />
<glyph glyph-name="tilde" unicode="&#x2dc;" horiz-adv-x="239" d="M197 561 C197 561 190 529 164 529 C139 529 131 563 100 563 C60 563 30 513 30 513 L40 505 C40 505 58 531 81 531 C110 531 117 494 152 494 C193 494 209 561 209 561 L197 561 L197 561 Z " />
<glyph glyph-name="hungarumlaut" unicode="&#x2dd;" horiz-adv-x="293" d="M277 669 C287 690 263 707 246 707 C236 707 231 697 231 690 C231 655 189 595 164 572 L176 554 C209 577 263 638 277 669 L277 669 Z M326 707 C316 707 311 697 311 690 C311 655 269 595 244 572 L256 554 C289 577 343 638 357 669 C367 690 343 707 326 707 L326 707 Z " />
<glyph glyph-name="quoteleft" unicode="&#x2018;" horiz-adv-x="213" d="M198 554 C208 554 213 564 213 571 C213 606 255 666 280 689 L268 707 C235 684 181 623 167 592 C157 571 181 554 198 554 L198 554 Z " />
<glyph glyph-name="quoteright" unicode="&#x2019;" horiz-adv-x="213" d="M246 707 C236 707 231 697 231 690 C231 655 189 595 164 572 L176 554 C209 577 263 638 277 669 C287 690 263 707 246 707 L246 707 Z " />
<glyph glyph-name="quotedblleft" unicode="&#x201c;" horiz-adv-x="293" d="M278 554 C288 554 293 564 293 571 C293 606 335 666 360 689 L348 707 C315 684 261 623 247 592 C237 571 261 554 278 554 L278 554 Z M280 689 L268 707 C235 684 181 623 167 592 C157 571 181 554 198 554 C208 554 213 564 213 571 C213 606 255 666 280 689 L280 689 Z " />
<glyph glyph-name="quotedblright" unicode="&#x201d;" horiz-adv-x="293" d="M277 669 C287 690 263 707 246 707 C236 707 231 697 231 690 C231 655 189 595 164 572 L176 554 C209 577 263 638 277 669 L277 669 Z M326 707 C316 707 311 697 311 690 C311 655 269 595 244 572 L256 554 C289 577 343 638 357 669 C367 690 343 707 326 707 L326 707 Z " />
<glyph glyph-name="perthousand" unicode="&#x2030;" horiz-adv-x="802" d="M350 560 C346 586 323 607 289 607 C186 607 98 476 108 404 C113 371 137 352 171 352 C272 352 362 483 350 560 L350 560 Z M283 587 C301 587 309 575 311 558 C321 492 231 372 177 372 C157 372 147 388 144 403 C134 469 222 587 283 587 L283 587 Z M509 253 C505 278 482 299 448 299 C345 299 256 168 267 96 C272 63 296 44 330 44 C431 44 521 175 509 253 L509 253 Z M442 279 C460 279 468 267 470 250 C480 184 390 64 336 64 C316 64 306 80 303 95 C293 161 381 279 442 279 L442 279 Z M44 44 L607 607 L554 607 L10 44 L44 44 Z M770 253 C766 278 743 299 709 299 C606 299 517 168 528 96 C533 63 557 44 591 44 C692 44 782 175 770 253 L770 253 Z M703 279 C721 279 729 267 731 250 C741 184 651 64 597 64 C577 64 567 80 564 95 C554 161 642 279 703 279 L703 279 Z " />
<glyph glyph-name="Euro" unicode="&#x20ac;" horiz-adv-x="484" d="M333 396 L333 380 C385 380 454 436 454 495 C454 534 420 555 383 555 C301 555 202 469 140 366 L78 367 L64 335 L124 336 C115 318 107 300 101 281 L45 282 L30 250 L92 251 C86 229 83 206 83 185 C83 98 134 63 199 63 C318 63 383 241 383 241 L362 243 C362 243 296 89 208 89 C161 89 134 119 134 176 C134 202 138 227 144 253 L248 255 L259 279 L152 281 C158 300 166 319 175 338 L282 340 L292 364 L190 366 C247 464 332 538 388 538 C408 538 416 526 416 503 C416 461 378 396 333 396 L333 396 Z " />
<glyph glyph-name="b_r" unicode="&#xe000;" horiz-adv-x="686" d="M715 164 C715 164 619 39 559 39 C540 39 531 53 531 78 C531 166 653 387 653 387 L613 386 C613 386 611 384 609 379 C609 379 558 308 509 308 C505 308 501 308 498 309 C534 371 562 434 562 475 C562 496 549 512 529 512 C487 512 424 434 424 358 C424 326 440 298 471 289 C446 247 365 119 292 119 C277 119 265 123 255 129 C296 189 324 262 324 325 C324 373 299 403 269 403 C256 403 244 398 234 388 C372 558 541 784 541 876 C541 921 515 947 483 947 C317 947 147 497 105 387 C68 291 -45 0 -45 0 L-1 0 C-1 0 5 16 15 41 C20 17 38 -2 80 -2 C133 -2 196 48 245 115 C257 107 271 103 286 103 C381 103 468 253 486 286 L496 286 C531 286 561 307 582 329 C543 254 482 126 482 62 C482 21 500 0 534 0 C613 0 721 157 721 157 L715 164 Z M148 387 C185 482 357 917 485 917 C508 917 518 901 518 878 C518 754 208 377 91 240 L148 387 Z M73 24 C36 24 30 57 41 110 L77 203 C106 235 159 297 220 371 C202 343 191 302 191 257 C191 211 199 174 214 148 C172 78 115 24 73 24 L73 24 Z M531 495 C538 495 542 490 542 472 C542 434 517 374 483 313 C469 320 459 335 459 359 C459 413 505 495 531 495 L531 495 Z M255 370 C266 370 274 356 274 329 C274 279 254 220 225 167 C217 191 214 222 214 258 C214 315 229 370 255 370 L255 370 Z " />
<glyph glyph-name="o_r" unicode="&#xe001;" horiz-adv-x="684" d="M712 164 C712 164 616 39 557 39 C537 39 528 53 528 78 C528 166 651 387 651 387 L610 386 C610 386 609 384 606 379 L606 379 C606 379 556 308 507 308 C503 308 499 308 495 309 C531 371 560 434 560 475 C560 496 546 512 527 512 C485 512 422 434 422 358 C422 326 437 299 468 289 C443 247 361 119 291 119 C275 119 263 123 252 130 C291 195 315 271 315 323 C315 375 288 399 259 399 C248 399 239 395 230 388 C229 395 223 403 218 403 C128 403 -5 243 -5 100 C-5 32 36 -4 88 -4 C145 -4 201 48 244 115 C256 107 270 103 286 103 C374 103 464 252 483 286 C486 286 490 286 493 286 C529 286 559 307 580 329 C541 254 480 126 480 62 C480 21 498 0 531 0 C611 0 719 157 719 157 L712 164 Z M256 370 C276 370 286 356 286 324 C286 281 263 216 229 157 C217 182 213 217 213 258 C213 315 229 370 256 370 L256 370 Z M91 27 C64 27 43 49 43 96 C43 213 154 369 220 377 C200 352 190 307 190 257 C190 205 201 166 219 140 C180 78 132 27 91 27 L91 27 Z M528 495 C536 495 540 490 540 472 C540 434 515 374 481 313 C466 320 457 335 457 359 C457 413 502 495 528 495 L528 495 Z " />
<glyph glyph-name="p_r" unicode="&#xe002;" horiz-adv-x="692" d="M720 164 C720 164 624 39 564 39 C545 39 536 53 536 78 C536 166 658 387 658 387 L618 386 C618 386 617 384 614 379 L614 379 C614 379 563 308 514 308 C510 308 507 308 503 309 C539 371 567 434 567 475 C567 496 554 512 535 512 C492 512 429 434 429 358 C429 326 445 298 476 289 C454 247 378 119 296 119 C283 119 270 122 258 127 C300 188 329 262 329 325 C329 373 298 403 258 403 C205 403 160 335 160 257 C160 202 181 160 210 135 C169 72 117 24 78 24 C42 24 35 54 44 102 L153 387 L110 387 L-152 -295 L-108 -295 L20 39 C26 16 44 -2 84 -2 C137 -2 199 46 247 112 C262 106 276 103 291 103 C394 103 474 248 493 286 C495 286 498 286 501 286 C537 286 566 307 587 329 C549 254 487 126 487 62 C487 21 505 0 539 0 C618 0 727 157 727 157 L720 164 Z M183 258 C183 315 223 370 250 370 C266 370 279 356 279 329 C279 274 255 209 221 152 C198 177 183 214 183 258 L183 258 Z M536 495 C544 495 548 490 548 472 C548 434 522 374 489 313 C474 320 464 335 464 359 C464 413 510 495 536 495 L536 495 Z " />
<glyph glyph-name="v_r" unicode="&#xe003;" horiz-adv-x="669" d="M698 164 C698 164 602 39 542 39 C523 39 514 53 514 78 C514 166 636 387 636 387 L596 386 C596 386 594 384 592 379 L592 379 C592 379 541 308 492 308 C488 308 484 308 481 309 C517 371 545 434 545 475 C545 496 532 512 512 512 C470 512 407 434 407 358 C407 326 423 298 454 289 C431 247 354 119 283 119 C264 119 250 125 239 134 C293 209 330 297 330 347 C330 372 318 396 288 396 C247 396 191 318 191 208 C191 179 197 157 208 140 C166 83 118 39 85 39 C59 39 49 56 49 101 C49 189 139 387 139 387 L98 386 C98 386 0 184 0 77 C0 27 24 0 59 0 C116 0 178 52 228 118 C242 108 259 103 278 103 C364 103 451 254 469 286 C472 286 475 286 479 286 C514 286 544 307 565 329 C526 254 465 126 465 62 C465 21 483 0 517 0 C596 0 704 157 704 157 L698 164 Z M214 209 C214 286 257 352 285 352 C293 352 296 343 296 334 C296 291 264 221 222 159 C216 174 214 191 214 209 L214 209 Z M514 495 C521 495 525 490 525 472 C525 434 500 374 466 313 C452 320 442 335 442 359 C442 413 488 495 514 495 L514 495 Z " />
<glyph glyph-name="w_r" unicode="&#xe004;" horiz-adv-x="889" d="M918 164 C918 164 822 39 762 39 C743 39 734 53 734 78 C734 166 856 387 856 387 L816 386 C816 386 814 384 812 379 L812 379 C812 379 761 308 712 308 C708 308 704 308 701 309 C737 371 765 434 765 475 C765 496 752 512 732 512 C690 512 627 434 627 358 C627 326 643 298 674 289 C651 247 574 119 503 119 C484 119 470 125 459 134 C513 209 550 297 550 347 C550 372 538 396 508 396 C467 396 411 318 411 208 C411 179 417 157 428 140 C386 83 338 39 305 39 C279 39 269 56 269 101 C269 189 359 387 359 387 L318 386 C318 386 283 313 254 231 C210 149 134 39 85 39 C59 39 49 56 49 101 C49 189 139 387 139 387 L98 386 C98 386 0 184 0 77 C0 27 24 0 59 0 C115 0 177 62 227 136 C223 115 220 95 220 77 C220 27 244 0 279 0 C336 0 398 52 448 118 C462 108 479 103 498 103 C584 103 671 254 689 286 C692 286 695 286 699 286 C734 286 764 307 785 329 C746 254 685 126 685 62 C685 21 703 0 737 0 C816 0 924 157 924 157 L918 164 Z M434 209 C434 286 477 352 505 352 C513 352 516 343 516 334 C516 291 484 221 442 159 C436 174 434 191 434 209 L434 209 Z M734 495 C741 495 745 490 745 472 C745 434 720 374 686 313 C672 320 662 335 662 359 C662 413 708 495 734 495 L734 495 Z " />
<glyph glyph-name="b_s" unicode="&#xe005;" horiz-adv-x="619" d="M647 164 C647 164 570 63 479 35 C504 61 521 99 521 146 C521 185 514 243 513 291 C553 340 588 379 588 415 C588 427 580 438 561 438 C522 438 467 393 467 270 C467 268 468 265 468 263 C440 225 372 146 300 146 C288 146 278 148 269 151 C302 207 324 270 324 325 C324 373 299 403 269 403 C256 403 244 398 234 388 C372 558 541 784 541 876 C541 921 515 947 483 947 C317 947 147 497 105 387 C68 291 -45 0 -45 0 L-1 0 C-1 0 5 16 15 41 C20 17 38 -2 80 -2 C138 -2 209 58 259 136 C270 132 282 130 294 130 C370 130 435 196 468 239 C468 205 469 166 469 135 C469 72 426 23 377 23 C346 23 333 46 327 71 L304 53 C315 21 338 -7 390 -7 C398 -7 405 -6 413 -4 C413 -4 414 -4 414 -4 C550 -4 654 157 654 157 L647 164 Z M255 370 C266 370 274 356 274 329 C274 283 257 229 232 180 C219 200 214 227 214 258 C214 315 229 370 255 370 L255 370 Z M148 387 C185 482 357 917 485 917 C508 917 518 901 518 878 C518 754 208 377 91 240 C114 298 135 354 148 387 L148 387 Z M73 24 C36 24 30 57 41 110 C52 138 64 170 77 203 C106 235 159 297 220 371 C202 343 191 302 191 257 C191 215 203 183 222 162 C179 86 118 24 73 24 L73 24 Z M562 421 C567 421 569 416 569 414 C569 401 546 363 514 318 C517 379 545 421 562 421 L562 421 Z " />
<glyph glyph-name="o_s" unicode="&#xe006;" horiz-adv-x="588" d="M616 164 C616 164 540 63 449 35 C473 61 490 99 490 146 C490 185 483 243 482 291 C522 340 557 379 557 415 C557 427 549 438 530 438 C491 438 437 393 437 270 C437 267 437 263 437 259 C420 230 363 139 296 139 C284 139 273 142 262 147 C295 208 315 275 315 323 C315 375 288 399 259 399 C248 399 239 395 230 388 C229 395 223 403 218 403 C128 403 -5 244 -5 100 C-5 32 36 -4 88 -4 C150 -4 210 57 253 130 C265 125 278 123 291 123 C363 123 414 193 437 231 C438 199 439 164 439 135 C439 72 395 23 346 23 C315 23 302 46 297 71 L273 53 C284 21 307 -7 359 -7 C367 -7 375 -6 382 -4 C382 -4 383 -4 383 -4 C519 -4 623 157 623 157 L616 164 Z M256 370 C276 370 286 356 286 324 C286 285 266 225 236 170 C222 189 213 219 213 258 C213 315 229 370 256 370 L256 370 Z M91 27 C64 27 43 49 43 96 C43 213 154 369 220 377 C200 352 190 307 190 257 C190 204 204 170 224 149 C185 83 134 27 91 27 L91 27 Z M531 421 C536 421 539 416 539 414 C539 401 515 363 483 318 C487 379 514 421 531 421 L531 421 Z " />
<glyph glyph-name="p_s" unicode="&#xe007;" horiz-adv-x="609" d="M637 164 C637 164 561 63 470 35 C494 61 511 99 511 146 C511 185 504 243 503 291 C543 340 578 379 578 415 C578 427 570 438 551 438 C512 438 458 393 458 270 C458 268 458 266 458 264 C420 224 334 139 265 137 C303 196 329 265 329 325 C329 373 298 403 258 403 C205 403 160 335 160 257 C160 192 183 154 211 136 C170 72 117 24 78 24 C42 24 35 54 44 102 L153 387 L110 387 L-152 -295 L-108 -295 L20 39 C26 16 44 -2 84 -2 C139 -2 205 51 254 121 C255 121 256 121 258 121 C329 121 414 198 458 243 C458 209 459 168 459 135 C459 72 416 23 367 23 C336 23 323 46 318 71 L294 53 C305 21 328 -7 380 -7 C388 -7 395 -6 403 -4 C403 -4 404 -4 404 -4 C540 -4 644 157 644 157 L637 164 Z M183 258 C183 315 223 370 250 370 C266 370 279 356 279 329 C279 274 255 208 221 151 C197 169 183 204 183 258 L183 258 Z M552 421 C557 421 560 416 560 414 C560 401 536 363 504 318 C508 379 535 421 552 421 L552 421 Z " />
<glyph glyph-name="v_s" unicode="&#xe008;" horiz-adv-x="595" d="M624 164 C624 164 547 63 456 35 C481 61 497 99 497 146 C497 185 491 243 490 291 C530 340 564 379 564 415 C564 427 557 438 538 438 C499 438 444 393 444 270 C444 266 444 261 444 256 C412 206 347 119 283 119 C264 119 250 125 239 134 C293 209 330 297 330 347 C330 372 318 396 288 396 C247 396 191 318 191 208 C191 179 197 157 208 140 C166 83 118 39 85 39 C59 39 49 56 49 101 C49 189 139 387 139 387 L98 386 C98 386 0 184 0 77 C0 27 24 0 59 0 C116 0 178 52 228 118 C242 108 259 103 278 103 C347 103 409 177 445 229 C445 198 446 163 446 135 C446 72 402 23 354 23 C323 23 310 46 304 71 L281 53 C291 21 315 -7 367 -7 C374 -7 382 -6 390 -4 C390 -4 390 -4 390 -4 C526 -4 630 157 630 157 L624 164 Z M214 209 C214 286 257 352 285 352 C293 352 296 343 296 334 C296 291 264 221 222 159 C216 174 214 191 214 209 L214 209 Z M539 421 C544 421 546 416 546 414 C546 401 523 363 490 318 C494 379 522 421 539 421 L539 421 Z " />
<glyph glyph-name="w_s" unicode="&#xe009;" horiz-adv-x="815" d="M844 164 C844 164 767 63 676 35 C701 61 717 99 717 146 C717 185 711 243 710 291 C750 340 784 379 784 415 C784 427 777 438 758 438 C719 438 664 393 664 270 C664 266 664 261 664 256 C632 206 567 119 503 119 C484 119 470 125 459 134 C513 209 550 297 550 347 C550 372 538 396 508 396 C467 396 411 318 411 208 C411 179 417 157 428 140 C386 83 338 39 305 39 C279 39 269 56 269 101 C269 189 359 387 359 387 L318 386 C318 386 283 313 254 231 C210 149 134 39 85 39 C59 39 49 56 49 101 C49 189 139 387 139 387 L98 386 C98 386 0 184 0 77 C0 27 24 0 59 0 C115 0 177 62 227 136 C223 115 220 95 220 77 C220 27 244 0 279 0 C336 0 398 52 448 118 C462 108 479 103 498 103 C567 103 629 177 665 229 C665 198 666 163 666 135 C666 72 622 23 574 23 C543 23 530 46 524 71 L501 53 C511 21 535 -7 587 -7 C594 -7 602 -6 610 -4 C610 -4 610 -4 610 -4 C746 -4 850 157 850 157 L844 164 Z M434 209 C434 286 477 352 505 352 C513 352 516 343 516 334 C516 291 484 221 442 159 C436 174 434 191 434 209 L434 209 Z M759 421 C764 421 766 416 766 414 C766 401 743 363 710 318 C714 379 742 421 759 421 L759 421 Z " />
<glyph glyph-name="b_x" unicode="&#xe010;" horiz-adv-x="752" d="M781 164 C781 164 685 39 625 39 C606 39 586 47 576 78 C569 101 562 131 555 163 L749 387 L702 387 L546 207 C528 296 514 387 514 387 L474 386 C474 386 478 354 484 309 C469 277 387 119 302 119 C284 119 269 124 257 132 C297 192 324 263 324 325 C324 373 299 403 269 403 C256 403 244 398 234 388 C372 558 541 784 541 876 C541 921 515 947 483 947 C317 947 147 497 105 387 C68 291 -45 0 -45 0 L-1 0 C-1 0 5 16 15 41 C20 17 38 -2 80 -2 C134 -2 198 49 247 118 C262 108 279 103 296 103 C385 103 461 233 488 284 C493 247 500 203 507 162 L366 0 L413 0 L515 118 C519 96 524 77 528 62 C538 22 566 0 600 0 C679 0 787 157 787 157 L781 164 Z M255 370 C266 370 274 356 274 329 C274 280 255 223 228 171 C218 195 214 224 214 258 C214 315 229 370 255 370 L255 370 Z M148 387 C185 482 357 917 485 917 C508 917 518 901 518 878 C518 754 208 377 91 240 C114 298 135 354 148 387 L148 387 Z M73 24 C36 24 30 57 41 110 C52 138 64 170 77 203 C106 235 159 297 220 371 C202 343 191 302 191 257 C191 213 201 177 216 152 C174 80 116 24 73 24 L73 24 Z " />
<glyph glyph-name="o_x" unicode="&#xe011;" horiz-adv-x="734" d="M763 164 C763 164 666 39 607 39 C587 39 567 47 558 78 C551 101 544 131 537 163 L731 387 L684 387 L528 207 C510 296 496 387 496 387 L456 386 C456 386 459 361 464 324 C442 276 365 119 286 119 C272 119 261 122 251 128 C290 194 315 270 315 323 C315 375 288 399 259 399 C248 399 239 395 230 388 C229 395 223 403 218 403 C128 403 -5 243 -5 100 C-5 32 36 -4 88 -4 C145 -4 200 48 242 113 C254 107 267 103 281 103 C367 103 441 242 467 299 C473 258 481 208 489 162 L347 0 L394 0 L497 118 C501 96 505 77 509 62 C520 22 548 0 582 0 C661 0 769 157 769 157 L763 164 Z M256 370 C276 370 286 356 286 324 C286 281 262 214 228 155 C216 179 213 215 213 258 C213 315 229 370 256 370 L256 370 Z M91 27 C64 27 43 49 43 96 C43 213 154 369 220 377 C200 352 190 307 190 257 C190 204 200 164 217 138 C179 76 131 27 91 27 L91 27 Z " />
<glyph glyph-name="p_x" unicode="&#xe012;" horiz-adv-x="742" d="M770 164 C770 164 674 39 615 39 C595 39 575 47 566 78 C558 101 551 131 544 163 L738 387 L691 387 L535 207 C518 296 504 387 504 387 L463 386 C463 386 468 346 476 292 C454 249 382 119 291 119 C279 119 268 122 257 126 C299 187 329 261 329 325 C329 373 298 403 258 403 C205 403 160 335 160 257 C160 202 182 160 210 134 C169 72 117 24 78 24 C42 24 35 54 44 102 L153 387 L110 387 L-152 -295 L-108 -295 L20 39 C26 16 44 -2 84 -2 C137 -2 199 46 247 111 C260 106 273 103 286 103 C382 103 451 214 480 268 C485 234 490 197 496 162 L355 0 L402 0 L505 118 C509 96 513 77 517 62 C527 22 556 0 589 0 C668 0 777 157 777 157 L770 164 Z M183 258 C183 315 223 370 250 370 C266 370 279 356 279 329 C279 274 254 207 220 150 C197 175 183 213 183 258 L183 258 Z " />
<glyph glyph-name="v_x" unicode="&#xe013;" horiz-adv-x="742" d="M770 164 C770 164 674 39 615 39 C595 39 575 47 566 78 C559 101 551 131 544 163 L739 387 L691 387 L535 207 C518 296 504 387 504 387 L464 386 C464 386 467 360 472 321 C458 289 376 119 283 119 C264 119 250 125 239 134 C293 209 330 297 330 347 C330 372 318 396 288 396 C247 396 191 318 191 208 C191 179 197 157 208 140 C166 83 118 39 85 39 C59 39 49 56 49 101 C49 189 139 387 139 387 L98 386 C98 386 0 184 0 77 C0 27 24 0 59 0 C116 0 178 52 228 118 C242 108 259 103 278 103 C375 103 450 242 476 295 C482 255 489 207 497 162 L355 0 L402 0 L505 118 C509 96 513 77 517 62 C528 22 556 0 589 0 C668 0 777 157 777 157 L770 164 Z M214 209 C214 286 257 352 285 352 C293 352 296 343 296 334 C296 291 264 221 222 159 C216 174 214 191 214 209 L214 209 Z " />
<glyph glyph-name="w_x" unicode="&#xe014;" horiz-adv-x="962" d="M990 164 C990 164 894 39 835 39 C815 39 795 47 786 78 C779 101 771 131 764 163 L959 387 L911 387 L755 207 C738 296 724 387 724 387 L684 386 C684 386 687 360 692 321 C678 289 596 119 503 119 C484 119 470 125 459 134 C513 209 550 297 550 347 C550 372 538 396 508 396 C467 396 411 318 411 208 C411 179 417 157 428 140 C386 83 338 39 305 39 C279 39 269 56 269 101 C269 189 359 387 359 387 L318 386 C318 386 283 313 254 231 C210 149 134 39 85 39 C59 39 49 56 49 101 C49 189 139 387 139 387 L98 386 C98 386 0 184 0 77 C0 27 24 0 59 0 C115 0 177 62 227 136 C223 115 220 95 220 77 C220 27 244 0 279 0 C336 0 398 52 448 118 C462 108 479 103 498 103 C595 103 670 242 696 295 C702 255 709 207 717 162 L575 0 L622 0 L725 118 C729 96 733 77 737 62 C748 22 776 0 809 0 C888 0 997 157 997 157 L990 164 Z M434 209 C434 286 477 352 505 352 C513 352 516 343 516 334 C516 291 484 221 442 159 C436 174 434 191 434 209 L434 209 Z " />
<glyph glyph-name="b_z" unicode="&#xe015;" horiz-adv-x="726" d="M761 157 L755 164 C755 164 686 78 587 -2 C589 14 590 31 590 46 C590 88 578 124 543 135 C631 218 718 368 718 368 L711 386 L711 386 L478 386 L461 343 L479 343 C462 252 371 119 302 119 C284 119 269 124 257 132 C297 192 324 263 324 325 C324 373 299 403 269 403 C256 403 244 398 234 388 C372 558 541 784 541 876 C541 921 515 947 483 947 C317 947 147 497 105 387 C68 291 -45 0 -45 0 L-1 0 C-1 0 5 16 15 41 C20 17 38 -2 80 -2 C134 -2 198 49 247 118 C262 108 279 103 296 103 C389 103 479 250 494 343 L680 343 C639 286 562 186 500 136 C467 129 439 106 439 106 L439 106 C439 106 439 106 439 106 C433 106 438 81 445 81 C468 81 493 94 519 114 C543 109 547 76 547 46 C547 20 543 -10 535 -42 C516 -55 496 -68 475 -80 C282 -188 246 -275 246 -328 C246 -365 274 -388 313 -388 C433 -388 554 -186 584 -24 C701 70 761 157 761 157 L761 157 Z M255 370 C266 370 274 356 274 329 C274 280 255 223 228 171 C218 195 214 224 214 258 C214 315 229 370 255 370 L255 370 Z M148 387 C185 482 357 917 485 917 C508 917 518 901 518 878 C518 754 208 377 91 240 C114 298 135 354 148 387 L148 387 Z M73 24 C36 24 30 57 41 110 C52 138 64 170 77 203 C106 235 159 297 220 371 C202 343 191 302 191 257 C191 213 201 177 216 152 C174 80 116 24 73 24 L73 24 Z M310 -358 C283 -358 269 -347 269 -324 C269 -285 294 -214 476 -101 C494 -89 512 -78 528 -66 C488 -203 390 -358 310 -358 L310 -358 Z " />
<glyph glyph-name="o_z" unicode="&#xe016;" horiz-adv-x="709" d="M744 157 L737 164 C737 164 668 78 570 -2 C572 14 573 31 573 46 C573 88 560 124 525 135 C614 218 700 368 700 368 L693 386 L694 386 L461 386 L443 343 L461 343 C445 252 354 119 285 119 C271 119 260 122 251 127 C290 193 315 270 315 323 C315 375 288 399 259 399 C248 399 239 395 230 388 C229 395 223 403 218 403 C128 403 -5 243 -5 100 C-5 32 36 -4 88 -4 C145 -4 200 47 242 113 C253 106 266 103 280 103 C373 103 462 250 477 343 L663 343 C621 286 545 186 483 136 C449 129 422 106 422 106 L422 106 C422 106 421 106 421 106 C415 106 421 81 427 81 C450 81 475 94 501 114 C525 109 530 76 530 46 C530 20 525 -10 517 -42 C498 -55 478 -68 457 -80 C264 -188 228 -275 228 -328 C228 -365 256 -388 295 -388 C415 -388 536 -186 566 -24 C684 70 744 157 744 157 L744 157 Z M256 370 C276 370 286 356 286 324 C286 281 262 214 227 154 C216 179 213 215 213 258 C213 315 229 370 256 370 L256 370 Z M91 27 C64 27 43 49 43 96 C43 213 154 369 220 377 C200 352 190 307 190 257 C190 204 200 163 217 137 C179 76 131 27 91 27 L91 27 Z M293 -358 C266 -358 252 -347 252 -324 C252 -285 276 -214 458 -101 C477 -89 494 -78 511 -66 C470 -203 373 -358 293 -358 L293 -358 Z " />
<glyph glyph-name="p_z" unicode="&#xe017;" horiz-adv-x="716" d="M751 157 L744 164 C744 164 675 78 577 -2 C579 14 580 31 580 46 C580 88 567 124 532 135 C621 218 708 368 708 368 L700 386 L701 386 L468 386 L450 343 L468 343 C452 252 360 119 291 119 C279 119 268 122 257 126 C299 187 329 261 329 325 C329 373 298 403 258 403 C205 403 160 335 160 257 C160 202 182 160 210 134 C169 72 117 24 78 24 C42 24 35 54 44 102 L153 387 L110 387 L-152 -295 L-108 -295 L20 39 C26 16 44 -2 84 -2 C137 -2 199 46 247 111 C260 106 273 103 286 103 C379 103 469 250 484 343 L670 343 C628 286 552 186 490 136 C457 129 429 106 429 106 L429 106 C429 106 429 106 428 106 C422 106 428 81 434 81 C457 81 483 94 508 114 C532 109 537 76 537 46 C537 20 532 -10 525 -42 C505 -55 485 -68 465 -80 C271 -188 235 -275 235 -328 C235 -365 263 -388 302 -388 C422 -388 543 -186 573 -24 C691 70 751 157 751 157 L751 157 Z M183 258 C183 315 223 370 250 370 C266 370 279 356 279 329 C279 274 254 207 220 150 C197 175 183 213 183 258 L183 258 Z M300 -358 C273 -358 259 -347 259 -324 C259 -285 283 -214 466 -101 C484 -89 501 -78 518 -66 C478 -203 380 -358 300 -358 L300 -358 Z " />
<glyph glyph-name="v_z" unicode="&#xe018;" horiz-adv-x="708" d="M743 157 L736 164 C736 164 667 78 569 -2 C571 15 572 31 572 46 C572 88 559 124 524 135 C613 218 700 368 700 368 L692 386 L693 387 L460 387 L442 344 L460 344 C444 252 352 120 283 120 C264 120 250 125 239 134 C293 209 330 297 330 347 C330 372 318 396 288 396 C247 396 191 319 191 208 C191 180 197 157 208 140 C166 84 118 39 85 39 C59 39 49 57 49 102 C49 190 139 387 139 387 L98 387 C98 387 0 184 0 77 C0 27 24 0 59 0 C116 0 178 53 228 119 C242 109 259 104 278 104 C371 104 461 250 476 344 L662 344 C620 286 544 187 482 137 C449 130 421 107 421 107 L421 106 C421 106 421 106 421 106 C414 106 420 82 426 82 C449 82 475 95 500 115 C524 110 529 77 529 46 C529 20 524 -10 517 -41 C497 -55 477 -68 457 -79 C263 -188 227 -274 227 -328 C227 -365 256 -388 294 -388 C414 -388 536 -186 565 -24 C683 70 743 157 743 157 L743 157 Z M214 209 C214 286 257 353 285 353 C293 353 296 343 296 334 C296 292 264 221 222 160 C216 174 214 191 214 209 L214 209 Z M292 -358 C265 -358 251 -347 251 -323 C251 -285 275 -214 458 -100 C476 -89 493 -77 510 -66 C470 -202 372 -358 292 -358 L292 -358 Z " />
<glyph glyph-name="w_z" unicode="&#xe019;" horiz-adv-x="928" d="M963 157 L956 164 C956 164 887 78 789 -2 C791 14 792 31 792 46 C792 88 779 124 744 135 C833 218 920 368 920 368 L912 386 L913 386 L680 386 L662 343 L680 343 C664 252 572 119 503 119 C484 119 470 125 459 134 C513 209 550 297 550 347 C550 372 538 396 508 396 C467 396 411 318 411 208 C411 179 417 157 428 140 C386 83 338 39 305 39 C279 39 269 56 269 101 C269 189 359 387 359 387 L318 386 C318 386 283 313 254 231 C210 149 134 39 85 39 C59 39 49 56 49 101 C49 189 139 387 139 387 L98 386 C98 386 0 184 0 77 C0 27 24 0 59 0 C115 0 177 62 227 136 C223 115 220 95 220 77 C220 27 244 0 279 0 C336 0 398 52 448 118 C462 108 479 103 498 103 C591 103 681 250 696 343 L882 343 C840 286 764 186 702 136 C669 129 641 106 641 106 L641 106 C641 106 641 106 641 106 C634 106 640 81 646 81 C669 81 695 94 720 114 C744 109 749 76 749 46 C749 20 744 -10 737 -42 C717 -55 697 -68 677 -80 C483 -188 447 -275 447 -328 C447 -365 476 -388 514 -388 C634 -388 756 -186 785 -24 C903 70 963 157 963 157 L963 157 Z M434 209 C434 286 477 352 505 352 C513 352 516 343 516 334 C516 291 484 221 442 159 C436 174 434 191 434 209 L434 209 Z M512 -358 C485 -358 471 -347 471 -324 C471 -285 495 -214 678 -101 C696 -89 713 -78 730 -66 C690 -203 592 -358 512 -358 L512 -358 Z " />
<glyph glyph-name="d_b" unicode="&#xe020;" horiz-adv-x="779" d="M705 119 C687 119 672 124 660 132 C700 192 727 263 727 325 C727 373 702 403 672 403 C659 403 647 397 637 387 C776 558 944 784 944 876 C944 921 919 946 886 946 C720 946 551 497 508 387 C488 336 447 229 413 140 C382 104 319 39 276 39 C257 39 248 50 248 71 C248 109 281 195 316 284 C403 410 590 692 590 775 C590 804 576 816 555 816 C482 816 355 497 312 387 C309 378 305 367 300 355 C295 382 272 403 245 403 C141 403 0 215 0 76 C0 28 21 -2 65 -2 C124 -2 181 73 219 139 C207 104 199 75 199 61 C199 21 217 0 251 0 C300 0 361 60 400 106 C376 45 359 0 359 0 L402 0 C402 0 408 15 418 41 C423 16 441 -2 483 -2 C537 -2 602 49 651 118 C665 108 682 103 700 103 C780 103 823 189 823 189 L812 198 C812 198 767 119 705 119 L705 119 Z M80 32 C60 32 50 45 50 72 C50 196 174 377 252 377 C277 377 283 358 283 327 C283 273 152 32 80 32 L80 32 Z M556 787 C565 787 567 781 567 772 C567 706 429 483 340 346 C345 360 351 374 356 387 C391 482 518 787 556 787 L556 787 Z M658 369 C669 369 678 356 678 329 C678 280 659 223 631 171 C621 194 617 224 617 258 C617 314 632 369 658 369 L658 369 Z M551 387 C588 481 760 917 888 917 C911 917 921 900 921 877 C921 754 611 377 494 239 C517 298 539 354 551 387 L551 387 Z M476 24 C439 24 433 56 444 109 C455 138 468 170 480 202 C509 235 562 297 623 370 C605 343 594 302 594 257 C594 212 604 177 620 151 C577 80 519 24 476 24 L476 24 Z " />
<glyph glyph-name="d_h" unicode="&#xe021;" horiz-adv-x="789" d="M673 39 C653 39 644 52 644 78 C644 165 742 305 742 363 C742 378 732 398 703 398 C640 398 501 190 432 79 C446 115 463 158 480 202 C575 311 944 740 944 876 C944 921 918 946 886 946 C720 946 550 497 508 387 C488 335 447 228 412 140 C381 104 319 39 276 39 C257 39 248 50 248 71 C248 109 281 195 316 284 C403 410 590 692 590 775 C590 804 576 816 555 816 C482 816 355 497 312 387 C309 378 305 367 300 355 C295 382 272 403 245 403 C141 403 0 215 0 76 C0 28 21 -2 65 -2 C124 -2 181 73 219 139 C207 104 199 75 199 61 C199 21 217 0 251 0 C300 0 361 60 399 106 C376 45 358 0 358 0 L402 0 L402 0 C402 0 632 369 682 369 C687 369 689 365 689 361 C689 306 596 157 596 61 C596 21 614 0 647 0 C727 0 835 156 835 156 L828 164 C828 164 732 39 673 39 L673 39 Z M80 32 C60 32 50 45 50 72 C50 196 174 377 252 377 C277 377 283 358 283 327 C283 273 152 32 80 32 L80 32 Z M556 787 C565 787 567 781 567 772 C567 706 429 483 340 346 C345 360 351 374 356 387 C391 482 518 787 556 787 L556 787 Z M551 387 C588 481 760 917 888 917 C911 917 921 900 921 877 C921 754 611 377 494 239 C517 298 538 354 551 387 L551 387 Z " />
<glyph glyph-name="d_k" unicode="&#xe022;" horiz-adv-x="780" d="M653 39 C617 39 576 115 572 160 C636 205 747 294 747 345 C747 368 737 386 709 386 C664 386 529 242 440 97 C452 129 466 165 480 202 C576 311 945 740 945 876 C945 921 919 946 886 946 C720 946 551 497 508 387 C488 336 447 229 413 141 C382 104 319 39 276 39 C257 39 248 50 248 71 C248 109 281 195 316 284 C403 410 590 692 590 775 C590 804 576 816 555 816 C482 816 355 497 312 387 C309 378 305 367 300 355 C295 382 272 403 245 403 C141 403 0 215 0 76 C0 28 21 -2 65 -2 C124 -2 181 73 219 139 C207 104 199 75 199 61 C199 21 217 0 251 0 C300 0 361 61 400 107 C376 45 359 0 359 0 L395 0 L404 0 C476 158 667 369 703 369 C709 369 712 363 712 357 C712 305 542 157 530 157 C523 157 519 150 520 143 L520 143 C520 102 576 0 628 0 C707 0 815 156 815 156 L809 164 C809 164 713 39 653 39 L653 39 Z M80 32 C60 32 50 45 50 72 C50 196 174 377 252 377 C277 377 283 358 283 327 C283 273 152 32 80 32 L80 32 Z M556 787 C565 787 567 781 567 772 C567 706 429 483 340 346 C345 360 351 374 356 387 C391 482 518 787 556 787 L556 787 Z M552 387 C588 481 760 917 888 917 C911 917 921 900 921 877 C921 754 611 377 494 239 C517 298 539 354 552 387 L552 387 Z " />
<glyph glyph-name="d_l" unicode="&#xe023;" horiz-adv-x="615" d="M489 39 C447 39 449 95 467 166 C498 202 961 725 961 876 C961 921 935 946 903 946 C737 946 542 497 499 387 C482 343 438 237 418 148 C390 114 322 39 276 39 C256 39 247 50 247 71 C247 109 280 195 315 284 C402 410 590 692 590 775 C590 804 575 816 554 816 C481 816 354 497 312 387 C308 378 304 367 299 355 C295 382 271 403 244 403 C140 403 0 215 0 76 C0 28 20 -2 64 -2 C124 -2 180 73 218 139 C206 104 199 75 199 61 C199 21 217 0 250 0 C307 0 378 79 414 125 C402 55 410 0 463 0 C543 0 651 156 651 156 L644 164 C644 164 548 39 489 39 L489 39 Z M542 387 C578 482 777 917 905 917 C928 917 938 900 938 877 C938 740 549 281 474 194 C493 261 523 336 542 387 L542 387 Z M80 32 C59 32 49 45 49 72 C49 196 174 377 251 377 C276 377 282 358 282 327 C282 273 151 32 80 32 L80 32 Z M556 787 C564 787 566 781 566 772 C566 706 429 483 339 346 C345 360 350 374 355 387 C390 482 517 787 556 787 L556 787 Z " />
<glyph glyph-name="l_b" unicode="&#xe024;" horiz-adv-x="589" d="M514 119 C496 119 482 124 470 132 C509 192 537 263 537 325 C537 373 511 403 481 403 C468 403 456 397 446 387 C585 558 754 784 754 876 C754 921 728 946 695 946 C529 946 360 497 317 387 C298 338 260 238 227 153 C202 122 129 39 80 39 C21 39 48 148 85 255 C158 361 379 685 379 775 C379 804 365 816 344 816 C271 816 133 497 90 387 C57 303 -71 0 55 0 C109 0 176 73 214 119 C188 52 168 0 168 0 L211 0 C211 0 217 15 227 41 C232 16 250 -2 292 -2 C346 -2 411 49 460 118 C475 108 491 103 509 103 C589 103 632 189 632 189 L621 198 C621 198 576 119 514 119 L514 119 Z M345 787 C353 787 356 781 356 772 C356 699 188 436 103 306 C114 336 125 364 133 387 C169 482 307 787 345 787 L345 787 Z M467 369 C478 369 487 356 487 329 C487 280 468 223 440 171 C430 194 426 224 426 258 C426 314 441 369 467 369 L467 369 Z M361 387 C397 481 569 917 698 917 C720 917 730 900 730 877 C730 754 420 377 304 239 C326 298 348 354 361 387 L361 387 Z M285 24 C248 24 242 56 253 109 C265 138 277 170 289 202 C318 235 371 297 432 370 C414 343 403 302 403 257 C403 212 413 177 429 151 C386 80 328 24 285 24 L285 24 Z " />
<glyph glyph-name="l_h" unicode="&#xe025;" horiz-adv-x="597" d="M480 39 C461 39 452 52 452 78 C452 165 549 305 549 363 C549 378 539 398 510 398 C448 398 309 190 240 79 C254 115 270 158 287 202 C383 311 752 740 752 876 C752 921 726 946 693 946 C528 946 358 497 315 387 C296 337 257 235 223 148 C195 115 126 39 80 39 C21 39 48 148 85 255 C158 361 379 685 379 775 C379 804 365 816 344 816 C271 816 133 497 90 387 C57 303 -71 0 55 0 C107 0 172 68 210 115 C185 49 166 0 166 0 L209 0 L209 0 C209 0 440 369 490 369 C495 369 496 365 496 361 C496 306 403 157 403 61 C403 21 421 0 455 0 C534 0 643 156 643 156 L636 164 C636 164 540 39 480 39 L480 39 Z M345 787 C353 787 356 781 356 772 C356 699 188 436 103 306 C114 336 125 364 133 387 C169 482 307 787 345 787 L345 787 Z M359 387 C395 481 568 917 696 917 C718 917 728 900 728 877 C728 754 418 377 302 239 C324 298 346 354 359 387 L359 387 Z " />
<glyph glyph-name="l_k" unicode="&#xe026;" horiz-adv-x="587" d="M461 39 C424 39 383 115 380 160 C444 205 555 294 555 345 C555 368 545 386 517 386 C471 386 336 242 247 97 C259 129 274 165 288 202 C383 311 752 740 752 876 C752 921 726 946 694 946 C528 946 358 497 316 387 C297 337 257 236 224 149 C197 116 127 39 80 39 C21 39 48 148 85 255 C158 361 379 685 379 775 C379 804 365 816 344 816 C271 816 133 497 90 387 C57 303 -71 0 55 0 C107 0 173 69 211 116 C186 50 166 0 166 0 L203 0 L212 0 C283 158 475 369 510 369 C517 369 520 363 520 357 C520 305 350 157 337 157 C330 157 327 150 327 143 L327 143 C327 102 383 0 435 0 C515 0 623 156 623 156 L616 164 C616 164 520 39 461 39 L461 39 Z M345 787 C353 787 356 781 356 772 C356 699 188 436 103 306 C114 336 125 364 133 387 C169 482 307 787 345 787 L345 787 Z M359 387 C396 481 568 917 696 917 C719 917 729 900 729 877 C729 754 419 377 302 239 C325 298 346 354 359 387 L359 387 Z " />
<glyph glyph-name="l_l" unicode="&#xe027;" horiz-adv-x="421" d="M294 39 C252 39 254 95 272 166 C304 202 767 725 767 876 C767 921 741 946 709 946 C543 946 347 497 305 387 C287 343 244 239 224 150 C197 117 127 39 80 39 C21 39 48 148 85 255 C158 361 379 685 379 775 C379 804 365 816 344 816 C271 816 133 497 90 387 C57 303 -71 0 55 0 C112 0 184 81 220 127 C208 56 215 0 269 0 C348 0 457 156 457 156 L450 164 C450 164 354 39 294 39 L294 39 Z M348 387 C383 482 583 917 711 917 C733 917 743 900 743 877 C743 740 354 281 280 194 C299 261 329 336 348 387 L348 387 Z M345 787 C353 787 356 781 356 772 C356 699 188 436 103 306 C114 336 125 364 133 387 C169 482 307 787 345 787 L345 787 Z " />
<glyph glyph-name="z_j" unicode="&#xe028;" horiz-adv-x="527" d="M550 540 C531 540 506 522 493 499 C480 477 484 458 503 458 C522 458 547 477 560 499 C573 522 569 540 550 540 L550 540 Z M336 -37 C342 -23 346 -11 350 -1 C387 95 499 386 499 386 L456 386 C456 386 412 272 370 163 C361 158 292 122 205 68 C201 100 187 126 159 135 C248 218 334 368 334 368 L327 385 L327 386 L95 386 L77 343 L96 343 C89 263 49 185 2 134 L10 125 C55 176 102 260 111 343 L296 343 C255 286 179 186 116 136 C83 129 55 106 55 106 L56 105 C55 105 55 105 55 105 C49 105 55 81 61 81 C84 81 109 94 135 114 C159 109 163 76 163 45 C163 44 163 43 163 42 C0 -63 -199 -214 -199 -329 C-199 -365 -171 -388 -132 -388 C-99 -388 -63 -373 -27 -348 C-64 -403 -86 -453 -86 -490 C-86 -535 -61 -560 -28 -560 C115 -560 261 -226 325 -64 C477 44 555 156 555 156 L548 164 C548 164 458 51 336 -37 L336 -37 Z M361 139 C339 83 319 31 306 -1 C300 -17 290 -43 277 -75 C274 -77 271 -78 269 -80 C218 -108 170 -143 126 -180 C174 -105 207 -22 207 45 C207 46 207 46 207 46 C277 91 336 125 361 139 L361 139 Z M-134 -359 C-162 -359 -176 -347 -176 -324 C-176 -229 6 -87 161 16 C138 -131 -38 -359 -134 -359 L-134 -359 Z M-30 -531 C-53 -531 -63 -515 -63 -491 C-63 -397 85 -218 265 -104 C197 -265 70 -531 -30 -531 L-30 -531 Z " />
<glyph glyph-name="b_i" unicode="&#xe029;" horiz-adv-x="575" d="M599 540 C580 540 554 522 541 499 C528 477 533 458 552 458 C555 458 558 459 561 460 L562 460 C562 460 562 460 562 460 C571 463 580 468 588 475 C639 508 748 598 748 776 C748 878 668 947 571 947 C338 947 212 651 105 387 C66 291 -45 0 -45 0 L-1 0 C-1 0 5 16 14 41 C20 17 38 -2 80 -2 C134 -2 198 49 247 118 C262 108 279 103 296 103 C336 103 367 124 388 146 C377 113 369 84 369 62 C369 21 387 0 421 0 C500 0 608 157 608 157 L602 164 C602 164 506 39 446 39 C427 39 418 53 418 78 C418 166 540 387 540 387 L500 386 C500 386 445 288 406 194 C395 177 355 119 302 119 C284 119 269 124 257 132 C297 192 324 263 324 325 C324 373 299 403 269 403 C224 403 191 335 191 257 C191 213 201 177 216 151 C174 80 116 24 73 24 C36 24 30 57 41 110 L41 110 C76 203 125 329 148 387 C239 615 378 917 573 917 C674 917 724 854 724 763 C724 645 665 564 616 518 C618 531 612 540 599 540 L599 540 Z M214 258 C214 315 229 369 255 369 C266 369 274 356 274 329 C274 280 255 223 228 171 C218 194 214 224 214 258 L214 258 Z " />
<glyph glyph-name="d_i" unicode="&#xe030;" horiz-adv-x="624" d="M646 540 C627 540 601 522 588 499 C575 477 580 458 598 458 C701 458 824 661 824 815 C824 896 788 947 727 947 C561 947 413 638 313 387 C310 379 305 368 300 355 C296 382 272 403 245 403 C141 403 0 216 0 77 C0 28 21 -2 65 -2 C136 -2 203 105 239 176 C215 84 211 0 277 0 C325 0 383 56 422 101 C418 86 416 73 416 62 C416 21 434 0 468 0 C547 0 655 157 655 157 L649 164 C649 164 553 39 493 39 C474 39 465 53 465 78 C465 166 587 387 587 387 L547 386 C547 386 462 236 429 129 C396 92 342 39 303 39 C218 39 310 273 356 387 C451 623 601 917 729 917 C776 917 801 876 801 816 C801 690 723 530 646 485 C650 490 653 495 656 499 C669 522 664 540 646 540 L646 540 Z M80 32 C60 32 50 45 50 73 C50 197 174 377 252 377 C277 377 283 358 283 327 C283 274 152 32 80 32 L80 32 Z " />
<glyph glyph-name="h_i" unicode="&#xe031;" horiz-adv-x="575" d="M599 540 C580 540 554 522 541 499 C528 477 533 458 552 458 C555 458 558 459 561 460 L562 460 C562 460 562 460 562 460 C571 463 580 468 588 475 C639 508 748 598 748 776 C748 878 668 947 571 947 C338 947 212 651 105 387 C66 291 -45 0 -45 0 L-1 0 L-1 0 L-1 0 C-1 0 230 369 279 369 C284 369 286 366 286 361 C286 307 193 157 193 62 C193 21 211 0 244 0 C285 0 333 41 371 81 C370 74 369 68 369 62 C369 21 387 0 421 0 C500 0 608 157 608 157 L602 164 C602 164 506 39 446 39 C427 39 418 53 418 78 C418 166 540 387 540 387 L500 386 C500 386 403 215 376 108 C344 74 302 39 270 39 C250 39 241 53 241 78 C241 166 339 306 339 363 C339 379 329 398 300 398 C237 398 98 188 29 78 C64 172 122 322 148 387 C239 615 378 917 573 917 C674 917 724 854 724 763 C724 645 665 564 616 518 C618 531 612 540 599 540 L599 540 Z " />
<glyph glyph-name="k_i" unicode="&#xe032;" horiz-adv-x="575" d="M599 540 C580 540 554 522 541 499 C528 477 533 458 552 458 C555 458 558 459 561 460 L562 460 C562 460 562 460 562 460 C571 463 580 468 588 475 C639 508 748 598 748 776 C748 878 668 947 571 947 C338 947 212 651 105 387 C66 291 -45 0 -45 0 L-8 0 L1 0 C72 158 264 369 300 369 C306 369 309 364 309 357 C309 305 139 157 126 157 C119 157 116 150 116 144 L116 144 C116 102 173 0 224 0 C276 0 339 65 377 111 C372 92 369 75 369 62 C369 21 387 0 421 0 C500 0 608 157 608 157 L602 164 C602 164 506 39 446 39 C427 39 418 53 418 78 C418 166 540 387 540 387 L500 386 C500 386 421 246 386 140 C354 104 293 39 250 39 C214 39 172 115 169 160 C233 205 344 295 344 345 C344 369 334 386 306 386 C260 386 124 241 35 96 C71 190 124 326 148 387 C239 615 378 917 573 917 C674 917 724 854 724 763 C724 645 665 564 616 518 C618 531 612 540 599 540 L599 540 Z " />
<glyph glyph-name="l_i" unicode="&#xe033;" horiz-adv-x="417" d="M438 540 C419 540 393 522 380 499 C367 477 372 458 391 458 C493 458 617 661 617 815 C617 896 581 947 519 947 C353 947 191 638 90 387 C57 303 -71 0 55 0 C112 0 186 83 221 128 C213 103 208 80 208 62 C208 21 227 0 260 0 C339 0 448 157 448 157 L441 164 C441 164 345 39 286 39 C266 39 257 53 257 78 C257 166 379 387 379 387 L339 386 C339 386 268 261 231 158 C211 133 132 39 80 39 C-5 39 87 273 134 387 C229 623 393 917 522 917 C568 917 593 876 593 816 C593 690 515 530 438 485 C442 490 445 495 448 499 C461 522 457 540 438 540 L438 540 Z " />
<glyph glyph-name="b_j" unicode="&#xe034;" horiz-adv-x="543" d="M573 540 C554 540 529 522 516 499 C502 477 507 458 526 458 C537 458 551 465 564 476 C615 509 722 600 722 776 C722 878 643 947 545 947 C339 947 211 651 104 387 C66 291 -45 0 -45 0 L-2 0 C-2 0 4 16 14 41 C19 17 37 -2 79 -2 C133 -2 198 49 247 118 C262 108 278 103 296 103 C334 103 364 123 385 144 C363 86 342 32 329 -1 C323 -17 313 -43 300 -75 C297 -77 294 -78 292 -80 C98 -189 -64 -391 -64 -490 C-64 -535 -38 -560 -5 -560 C138 -560 283 -226 348 -64 C500 44 578 157 578 157 L571 164 C571 164 481 51 359 -36 C364 -22 369 -10 373 -1 C410 96 522 387 522 387 L479 387 C479 387 442 291 403 191 C390 171 351 119 301 119 C283 119 269 124 257 132 C296 192 324 263 324 325 C324 373 298 403 268 403 C223 403 190 335 190 257 C190 213 200 177 216 151 C173 80 115 24 72 24 C35 24 29 57 41 110 L40 110 C76 203 125 329 148 387 C238 615 379 917 548 917 C648 917 699 854 699 763 C699 645 639 564 590 518 C592 531 586 540 573 540 L573 540 Z M-8 -531 C-30 -531 -40 -514 -40 -491 C-40 -397 107 -218 288 -104 C219 -265 92 -531 -8 -531 L-8 -531 Z M213 258 C213 315 228 369 254 369 C265 369 274 356 274 329 C274 280 255 223 227 171 C217 194 213 224 213 258 L213 258 Z " />
<glyph glyph-name="d_j" unicode="&#xe035;" horiz-adv-x="602" d="M809 815 C809 896 773 947 711 947 C559 947 413 638 312 387 C309 379 305 368 300 355 C295 383 271 403 245 403 C141 403 0 216 0 77 C0 28 21 -2 65 -2 C135 -2 201 104 238 174 C215 83 211 0 277 0 C328 0 391 65 430 111 C412 66 396 26 386 -1 C380 -17 370 -43 357 -75 C354 -77 351 -78 349 -80 C155 -189 -7 -391 -7 -490 C-7 -535 19 -560 52 -560 C195 -560 340 -226 405 -64 C557 44 635 157 635 157 L628 164 C628 164 538 51 416 -36 C421 -22 426 -10 430 -1 C467 96 579 387 579 387 L536 387 C536 387 487 259 443 145 C413 110 347 39 302 39 C217 39 310 273 356 387 C451 623 599 917 714 917 C760 917 785 876 785 816 C785 690 707 530 630 485 C634 490 637 494 640 499 C653 522 649 540 630 540 C611 540 586 522 573 499 C559 477 564 458 583 458 C583 458 583 458 583 458 L583 458 C685 458 809 661 809 815 L809 815 Z M80 32 C60 32 50 45 50 73 C50 197 174 377 252 377 C277 377 282 358 282 327 C282 274 152 32 80 32 L80 32 Z M49 -531 C27 -531 17 -514 17 -491 C17 -397 164 -218 345 -104 C276 -265 149 -531 49 -531 L49 -531 Z " />
<glyph glyph-name="h_j" unicode="&#xe036;" horiz-adv-x="543" d="M573 540 C554 540 529 522 516 499 C502 477 507 458 526 458 C537 458 551 465 564 476 C615 509 722 600 722 776 C722 878 643 947 545 947 C339 947 211 651 104 387 C66 291 -45 0 -45 0 L-2 0 C-2 0 -2 0 -2 0 C5 12 230 369 279 369 C283 369 285 366 285 361 C285 307 192 157 192 62 C192 21 210 0 244 0 C279 0 320 31 355 66 C345 39 336 16 329 -1 C323 -17 313 -43 300 -75 C297 -77 294 -78 292 -80 C98 -189 -64 -391 -64 -490 C-64 -535 -38 -560 -5 -560 C138 -560 283 -226 348 -64 C500 44 578 157 578 157 L571 164 C571 164 481 51 359 -36 C364 -22 369 -10 373 -1 C410 96 522 387 522 387 L479 387 C479 387 416 223 368 100 C337 69 299 39 269 39 C250 39 241 53 241 78 C241 166 338 306 338 363 C338 379 328 398 299 398 C236 398 97 189 28 79 C64 172 122 323 148 387 C238 615 379 917 548 917 C648 917 699 854 699 763 C699 645 639 564 590 518 C592 531 586 540 573 540 L573 540 Z M-8 -531 C-30 -531 -40 -514 -40 -491 C-40 -397 107 -218 288 -104 C219 -265 92 -531 -8 -531 L-8 -531 Z " />
<glyph glyph-name="k_j" unicode="&#xe037;" horiz-adv-x="543" d="M573 540 C554 540 529 522 516 499 C502 477 507 458 526 458 C537 458 551 465 564 476 C615 509 722 600 722 776 C722 878 643 947 545 947 C339 947 211 651 104 387 C66 291 -45 0 -45 0 L-9 0 L0 0 C72 158 263 369 299 369 C305 369 308 364 308 357 C308 305 138 157 126 157 C119 157 115 150 116 144 L116 144 C116 102 172 0 224 0 C272 0 331 57 369 103 C353 61 339 24 329 -1 C323 -17 313 -43 300 -75 C297 -77 294 -78 292 -80 C98 -189 -64 -391 -64 -490 C-64 -535 -38 -560 -5 -560 C138 -560 283 -226 348 -64 C500 44 578 157 578 157 L571 164 C571 164 481 51 359 -36 C364 -22 369 -10 373 -1 C410 96 522 387 522 387 L479 387 C479 387 427 253 382 137 C350 100 291 39 249 39 C213 39 172 115 168 160 C232 205 343 295 343 345 C343 369 333 386 305 386 C259 386 124 242 35 96 C71 190 123 326 148 387 C238 615 379 917 548 917 C648 917 699 854 699 763 C699 645 639 564 590 518 C592 531 586 540 573 540 L573 540 Z M-8 -531 C-30 -531 -40 -514 -40 -491 C-40 -397 107 -218 288 -104 C219 -265 92 -531 -8 -531 L-8 -531 Z " />
<glyph glyph-name="l_j" unicode="&#xe038;" horiz-adv-x="380" d="M587 815 C587 896 551 947 489 947 C337 947 191 638 90 387 C57 303 -71 0 55 0 C106 0 169 65 208 111 C190 66 174 26 164 -1 C158 -17 148 -43 135 -75 C132 -77 129 -78 127 -80 C-67 -189 -229 -391 -229 -490 C-229 -535 -203 -560 -170 -560 C-27 -560 118 -226 183 -64 C335 44 413 157 413 157 L406 164 C406 164 316 51 194 -36 C199 -22 204 -10 208 -1 C245 96 357 387 357 387 L314 387 C314 387 265 259 221 145 C191 110 125 39 80 39 C-5 39 88 273 134 387 C229 623 377 917 492 917 C538 917 563 876 563 816 C563 690 485 530 408 485 C412 490 415 494 418 499 C431 522 427 540 408 540 C389 540 364 522 351 499 C337 477 342 458 361 458 C361 458 361 458 361 458 L361 458 C463 458 587 661 587 815 L587 815 Z M-173 -531 C-195 -531 -205 -514 -205 -491 C-205 -397 -58 -218 123 -104 C54 -265 -73 -531 -173 -531 L-173 -531 Z " />
<glyph glyph-name="r_calt" unicode="&#xe039;" horiz-adv-x="328" d="M356 164 C356 164 259 39 200 39 C180 39 171 53 171 78 C171 166 294 387 294 387 L253 386 C253 386 252 384 249 379 L249 379 C249 379 199 308 150 308 C149 308 149 308 148 308 C183 370 203 432 203 475 C203 496 189 512 170 512 C128 512 65 434 65 358 C65 324 82 295 118 288 C52 180 -56 78 -171 78 L-172 65 C-46 65 68 173 136 286 C136 286 136 286 136 286 C172 286 202 307 223 329 C184 254 123 126 123 62 C123 21 141 0 174 0 C254 0 363 157 363 157 L356 164 L356 164 Z M100 359 C100 413 145 495 171 495 C179 495 183 490 183 472 C183 429 164 370 131 310 C112 316 100 331 100 359 L100 359 Z " />
<glyph glyph-name="C_r" unicode="&#xe040;" horiz-adv-x="765" d="M794 165 C794 165 697 40 638 40 C618 40 609 54 609 79 C609 167 732 388 732 388 L692 387 C692 387 690 385 687 380 L687 380 C687 380 637 309 588 309 C579 309 571 310 564 313 C612 384 641 446 641 476 C641 497 627 513 608 513 C566 513 503 435 503 359 C503 335 512 313 530 300 C435 174 284 30 155 30 C83 30 55 75 55 151 C55 384 282 633 400 633 C432 633 445 616 445 586 C445 531 387 445 327 445 C298 445 288 463 296 486 L276 483 C266 452 280 423 326 423 C396 423 479 506 479 584 C479 629 443 655 394 655 C222 655 0 376 0 163 C0 67 62 0 149 0 C294 0 452 154 549 290 C556 288 565 287 574 287 C610 287 640 308 661 330 C622 255 561 126 561 63 C561 22 579 1 613 1 C692 1 800 158 800 158 L794 165 Z M538 360 C538 414 583 496 609 496 C617 496 621 491 621 473 C621 447 593 390 548 325 C542 333 538 345 538 360 L538 360 Z " />
<glyph glyph-name="E_r" unicode="&#xe041;" horiz-adv-x="760" d="M788 165 C788 165 692 40 633 40 C613 40 604 54 604 79 C604 167 726 388 726 388 L686 387 C686 387 685 385 682 380 L682 380 C682 380 631 309 582 309 C573 309 564 310 557 314 C605 384 635 447 635 476 C635 497 622 513 603 513 C560 513 497 435 497 359 C497 335 506 313 524 300 C430 174 279 30 150 30 C102 30 60 56 60 110 C60 192 126 262 190 279 C238 282 261 297 271 302 C282 309 287 334 267 334 C247 334 216 301 178 301 C141 301 136 326 136 356 C136 484 277 633 390 633 C421 633 435 616 435 586 C435 531 376 445 316 445 C288 445 278 463 285 486 L266 483 C255 452 270 423 316 423 C385 423 469 506 469 584 C469 629 432 655 384 655 C217 655 88 489 88 374 C88 332 114 299 144 285 C70 260 0 190 0 107 C0 38 63 0 135 0 C280 0 441 155 541 291 C549 288 558 287 569 287 C605 287 634 308 655 330 C617 255 555 126 555 63 C555 22 574 1 607 1 C686 1 795 158 795 158 L788 165 Z M532 360 C532 414 578 496 604 496 C612 496 616 491 616 473 C616 447 588 390 542 325 C536 333 532 345 532 360 L532 360 Z " />
<glyph glyph-name="I_r" unicode="&#xe042;" horiz-adv-x="786" d="M815 163 C815 163 719 38 659 38 C640 38 631 52 631 77 C631 165 753 386 753 386 L713 385 C713 385 711 383 709 378 L709 378 C709 378 658 307 609 307 C606 307 604 307 601 307 C641 371 662 436 662 474 C662 495 649 511 630 511 C587 511 524 433 524 357 C524 326 539 299 568 289 C518 219 445 159 354 159 C328 159 308 165 290 173 C336 280 401 433 437 520 C445 539 452 556 459 571 C459 571 460 571 460 571 C524 571 549 613 549 644 C549 670 530 686 504 686 C473 686 451 657 422 596 C370 616 327 671 243 671 C156 671 111 612 111 566 C111 519 157 491 207 491 C261 491 290 523 304 537 L292 550 C276 532 240 513 208 513 C176 513 148 529 148 568 C148 607 185 648 242 648 C315 648 360 599 415 579 C407 562 398 542 389 520 C356 440 298 300 252 195 C221 216 193 239 148 239 C78 239 0 175 0 85 C0 23 46 -9 102 -9 C180 -9 233 44 277 143 C278 147 280 151 282 155 C301 146 323 140 351 140 C452 140 533 208 587 285 C590 285 593 285 596 285 C631 285 661 307 682 328 C643 253 582 125 582 61 C582 20 600 -1 634 -1 C713 -1 821 156 821 156 L815 163 Z M513 666 C519 666 521 659 521 652 C521 632 504 594 467 589 C490 643 502 666 513 666 L513 666 Z M228 143 C186 50 153 13 110 13 C78 13 40 28 40 85 C40 148 87 217 148 217 C186 217 213 197 244 177 C238 165 233 154 228 143 L228 143 Z M559 358 C559 412 605 494 631 494 C638 494 642 489 642 471 C642 436 622 373 584 312 C569 319 559 334 559 358 L559 358 Z " />
<glyph glyph-name="J_r" unicode="&#xe043;" horiz-adv-x="827" d="M856 163 C856 163 759 38 700 38 C680 38 671 52 671 77 C671 165 794 386 794 386 L753 385 C753 385 752 383 749 378 L749 378 C749 378 699 307 650 307 C646 307 643 307 640 307 C677 372 703 437 703 474 C703 495 689 511 670 511 C628 511 565 433 565 357 C565 325 580 298 610 289 C564 216 503 152 447 152 C402 152 372 175 338 195 C384 301 443 441 476 520 C484 539 491 556 498 571 C498 571 498 571 499 571 C563 571 588 613 588 644 C588 670 568 686 543 686 C512 686 490 657 461 596 C409 616 366 671 281 671 C195 671 150 612 150 566 C150 519 196 491 246 491 C300 491 329 523 343 537 L331 550 C315 532 278 513 246 513 C215 513 186 529 186 568 C186 607 223 648 281 648 C353 648 399 599 453 579 C446 562 437 542 428 520 C396 445 343 319 298 215 C281 222 261 227 237 227 C131 227 0 129 0 15 C0 -49 41 -91 97 -91 C203 -91 261 16 304 116 C311 132 320 152 329 173 C359 152 387 128 444 128 C504 128 575 203 627 285 C630 285 633 285 636 285 C672 285 702 307 723 328 C684 253 623 125 623 61 C623 20 641 -1 675 -1 C754 -1 862 156 862 156 L856 163 Z M552 666 C558 666 560 659 560 652 C560 632 543 594 506 589 C529 643 540 666 552 666 L552 666 Z M256 116 C215 22 170 -69 105 -69 C73 -69 40 -42 40 11 C40 115 148 205 236 205 C258 205 275 201 290 195 C277 166 265 138 256 116 L256 116 Z M600 358 C600 412 645 494 671 494 C679 494 683 489 683 471 C683 437 660 373 624 312 C610 319 600 334 600 358 L600 358 Z " />
<glyph glyph-name="L_r" unicode="&#xe044;" horiz-adv-x="892" d="M921 163 C921 163 825 38 765 38 C746 38 737 52 737 77 C737 165 859 386 859 386 L819 385 C819 385 817 383 815 378 L815 378 C815 378 764 307 715 307 C748 379 768 444 768 474 C768 495 755 511 736 511 C693 511 630 433 630 357 C630 322 648 293 685 286 C628 170 537 47 444 47 C375 47 313 84 251 115 C255 124 260 133 264 143 C310 247 360 376 422 520 C428 533 434 545 439 556 C458 550 477 546 497 546 C598 546 626 602 626 632 C626 662 601 697 554 697 C495 697 449 660 409 591 C347 620 286 666 228 666 C141 666 96 612 96 566 C96 519 142 491 192 491 C246 491 275 523 289 537 L277 550 C261 532 225 513 193 513 C161 513 133 529 133 568 C133 607 170 643 227 643 C287 643 341 602 399 573 C390 557 382 539 374 520 C317 386 265 250 216 143 C214 140 213 136 211 133 C181 145 150 154 117 154 C52 154 0 113 0 60 C0 20 37 -9 89 -9 C152 -9 198 25 236 89 C295 50 357 2 438 2 C537 2 641 151 705 285 C739 286 768 307 788 328 C749 253 688 125 688 61 C688 20 706 -1 740 -1 C819 -1 927 156 927 156 L921 163 Z M563 677 C600 677 606 654 606 636 C606 600 565 567 499 567 C482 567 465 571 449 576 C484 643 518 677 563 677 L563 677 Z M97 13 C65 13 40 33 40 65 C40 100 66 135 123 135 C149 135 175 125 200 111 C165 41 135 13 97 13 L97 13 Z M665 358 C665 412 711 494 737 494 C744 494 748 489 748 471 C748 442 729 379 697 309 C678 315 665 330 665 358 L665 358 Z " />
<glyph glyph-name="V_r" unicode="&#xe045;" horiz-adv-x="768" d="M796 163 C796 163 700 38 641 38 C621 38 612 52 612 77 C612 165 735 386 735 386 L694 385 C694 385 693 383 690 378 L690 378 C690 378 640 307 591 307 C590 307 589 307 589 307 C622 373 644 438 644 474 C644 495 630 511 611 511 C569 511 506 433 506 357 C506 323 523 295 557 287 C512 206 450 132 396 132 C350 132 329 177 319 227 C417 375 498 556 498 636 C498 679 481 700 450 700 C397 700 280 548 280 312 C280 287 281 262 285 239 C212 123 133 29 77 29 C35 29 42 96 75 221 C103 330 209 656 209 656 L159 656 C159 656 56 335 25 221 C-13 81 -15 -1 74 -1 C136 -1 220 83 296 193 C312 145 343 110 396 110 C459 110 528 194 577 285 C613 285 643 307 664 328 C625 253 564 125 564 61 C564 20 582 -1 615 -1 C695 -1 803 156 803 156 L796 163 Z M312 319 C312 524 418 675 450 675 C462 675 469 667 469 653 C469 596 398 430 313 284 C312 297 312 309 312 319 L312 319 Z M541 358 C541 412 586 494 612 494 C620 494 624 489 624 471 C624 438 602 374 570 310 C552 316 541 331 541 358 L541 358 Z " />
<glyph glyph-name="W_r" unicode="&#xe046;" horiz-adv-x="1078" d="M1107 164 C1107 164 1011 39 951 39 C932 39 923 53 923 78 C923 166 1045 387 1045 387 L1005 386 C1005 386 1003 384 1001 379 L1001 379 C1001 379 950 308 901 308 C900 308 900 308 899 308 C932 374 954 439 954 475 C954 496 941 512 921 512 C879 512 816 434 816 358 C816 324 833 296 867 288 C822 207 761 133 706 133 C660 133 639 178 630 228 C727 377 808 557 808 637 C808 680 791 701 761 701 C707 701 590 549 590 313 C590 288 592 264 595 240 C523 124 443 30 387 30 C345 30 352 97 385 222 C413 331 494 583 494 583 L443 583 C443 583 420 508 394 422 C318 253 171 30 77 30 C35 30 42 97 74 222 C103 331 209 657 209 657 L159 657 C159 657 56 336 25 222 C-13 82 -15 0 74 0 C155 0 267 135 351 276 C345 256 340 238 336 222 C297 82 296 0 384 0 C446 0 530 84 606 194 C623 146 653 111 706 111 C769 111 839 195 888 286 C923 286 953 308 974 329 C935 254 874 126 874 62 C874 21 892 0 926 0 C1005 0 1113 157 1113 157 L1107 164 Z M622 320 C622 525 728 676 761 676 C772 676 779 668 779 654 C779 597 709 431 623 285 C622 298 622 310 622 320 L622 320 Z M851 359 C851 413 897 495 923 495 C930 495 934 490 934 472 C934 439 913 375 880 311 C863 317 851 332 851 359 L851 359 Z " />
<glyph glyph-name="Z_r" unicode="&#xe047;" horiz-adv-x="874" d="M903 163 C903 163 807 38 747 38 C728 38 719 52 719 77 C719 165 841 386 841 386 L801 385 C801 385 799 383 797 378 L797 378 C797 378 746 307 697 307 C695 307 692 307 690 307 C726 381 750 445 750 474 C750 495 737 511 717 511 C675 511 612 433 612 357 C612 324 628 297 660 288 C589 151 476 -8 392 -8 C389 -8 385 -8 381 -7 C415 58 436 130 436 196 C436 293 374 336 319 336 C299 336 279 326 260 313 C319 389 406 485 485 560 C507 552 530 546 554 546 C655 546 682 630 682 660 C682 684 668 697 645 697 C604 697 539 653 468 590 C405 619 344 666 284 666 C198 666 153 612 153 566 C153 519 199 491 249 491 C303 491 332 523 346 537 L334 550 C317 532 281 513 249 513 C217 513 189 529 189 568 C189 607 226 643 284 643 C342 643 395 604 452 575 C323 456 183 284 153 217 L196 217 C238 269 286 314 326 314 C368 314 386 254 386 201 C386 136 368 65 339 1 C284 17 230 50 167 50 C51 50 0 -39 0 -104 C0 -176 47 -218 129 -218 C215 -218 307 -136 368 -31 C376 -32 385 -33 394 -33 C481 -33 602 138 679 285 C680 285 682 285 684 285 C719 285 749 307 770 328 C731 253 670 125 670 61 C670 20 688 -1 722 -1 C801 -1 909 156 909 156 L903 163 Z M648 677 C659 677 663 670 663 661 C663 625 622 567 556 567 C538 567 520 571 503 577 C566 636 622 677 648 677 L648 677 Z M129 -191 C77 -191 40 -166 40 -102 C40 -48 80 35 168 35 C228 35 271 -3 328 -22 C278 -118 203 -191 129 -191 L129 -191 Z M647 358 C647 412 693 494 719 494 C726 494 730 489 730 471 C730 444 708 382 672 312 C657 319 647 333 647 358 L647 358 Z " />
<glyph glyph-name="x_calt" unicode="&#xe048;" horiz-adv-x="358" d="M230 39 C210 39 190 47 181 78 C174 100 167 131 160 163 L354 387 L307 387 L151 207 C133 296 119 387 119 387 L79 386 C79 386 94 265 112 162 L-30 0 L17 0 L120 118 C124 96 128 77 132 62 C143 22 171 0 205 0 C284 0 393 157 393 157 L386 164 C386 164 289 39 230 39 L230 39 Z " />
<glyph glyph-name="z_calt" unicode="&#xe049;" horiz-adv-x="313" d="M348 157 L341 164 C341 164 272 78 174 -2 C176 14 177 31 177 46 C177 88 164 124 129 135 C218 218 305 368 305 368 L297 386 L298 386 L65 386 L47 343 L267 343 C225 286 149 186 87 136 C54 129 26 106 26 106 L26 106 C26 106 26 106 25 106 C19 106 25 81 31 81 C54 81 80 94 105 114 C129 109 134 76 134 46 C134 20 129 -10 122 -42 C102 -55 82 -68 62 -80 C-132 -189 -168 -275 -168 -328 C-168 -365 -140 -388 -101 -388 C19 -388 140 -187 170 -24 C288 70 348 157 348 157 L348 157 Z M-103 -358 C-130 -358 -144 -347 -144 -324 C-144 -285 -120 -214 63 -101 C81 -89 98 -78 115 -66 C74 -203 -23 -358 -103 -358 L-103 -358 Z " />
<glyph glyph-name="V_b" unicode="&#xe050;" horiz-adv-x="802" d="M739 118 C721 118 706 123 694 131 C734 191 761 262 761 324 C761 372 736 402 706 402 C661 402 628 334 628 256 C628 212 638 176 653 151 C611 79 553 23 510 23 C473 23 467 56 478 109 C512 197 558 316 582 378 C759 493 978 755 978 875 C978 920 952 946 920 946 C754 946 584 496 542 386 C540 380 537 374 534 366 C498 347 465 336 437 336 C419 336 404 341 393 351 C455 465 498 578 498 636 C498 679 481 700 450 700 C397 700 321 583 321 467 C321 423 332 384 354 358 C267 195 151 29 77 29 C35 29 42 96 75 221 C103 330 209 656 209 656 L159 656 C159 656 56 334 25 221 C-13 81 -15 -1 74 -1 C161 -1 291 166 384 334 C399 325 418 321 439 321 C464 321 494 330 526 346 C480 226 392 -1 392 -1 L436 -1 C436 -1 442 15 452 40 C457 16 475 -3 517 -3 C571 -3 635 49 684 117 C699 107 716 102 733 102 C813 102 857 188 857 188 L846 198 C846 198 801 118 739 118 L739 118 Z M357 461 C357 566 418 675 450 675 C462 675 468 667 468 652 C468 609 427 500 368 386 C360 408 357 435 357 461 L357 461 Z M922 916 C945 916 955 900 955 877 C955 764 759 519 591 401 C637 520 800 916 922 916 L922 916 Z M651 257 C651 314 666 369 692 369 C703 369 711 355 711 328 C711 279 692 222 665 170 C655 194 651 223 651 257 L651 257 Z " />
<glyph glyph-name="V_h" unicode="&#xe052;" horiz-adv-x="823" d="M707 38 C687 38 678 52 678 77 C678 165 776 305 776 362 C776 378 766 397 737 397 C674 397 535 189 466 79 C501 168 555 309 582 378 C759 493 978 755 978 875 C978 920 952 946 920 946 C754 946 584 496 542 386 C540 380 537 374 534 366 C498 347 465 336 437 336 C419 336 404 341 393 351 C455 465 498 578 498 636 C498 679 481 700 450 700 C397 700 321 583 321 467 C321 423 332 384 354 358 C267 195 151 29 77 29 C35 29 42 96 75 221 C103 330 209 656 209 656 L159 656 C159 656 56 334 25 221 C-13 81 -15 -1 74 -1 C161 -1 291 166 384 334 C399 325 418 321 439 321 C464 321 494 330 526 346 C480 226 392 -1 392 -1 L436 -1 C436 -1 666 368 716 368 C721 368 723 365 723 360 C723 306 630 156 630 61 C630 20 648 -1 681 -1 C761 -1 869 156 869 156 L862 163 C862 163 766 38 707 38 L707 38 Z M357 461 C357 566 418 675 450 675 C462 675 468 667 468 652 C468 609 427 500 368 386 C360 408 357 435 357 461 L357 461 Z M922 916 C945 916 955 900 955 877 C955 764 759 519 591 401 C637 520 800 916 922 916 L922 916 Z " />
<glyph glyph-name="V_k" unicode="&#xe053;" horiz-adv-x="813" d="M687 38 C650 38 609 114 606 159 C670 204 781 294 781 344 C781 368 771 385 743 385 C697 385 563 243 474 98 C509 187 557 314 582 378 C759 493 978 755 978 875 C978 920 952 946 920 946 C754 946 585 496 542 386 C540 380 537 374 534 366 C498 347 465 336 438 336 C419 336 405 341 393 351 C455 465 498 578 498 636 C498 679 481 700 450 700 C397 700 321 583 321 467 C321 423 332 384 354 358 C267 195 151 29 77 29 C35 29 42 96 74 221 C103 330 209 656 209 656 L159 656 C159 656 56 334 25 221 C-13 81 -15 -1 74 -1 C161 -1 291 166 384 334 C399 325 418 321 439 321 C464 321 494 330 526 346 C480 226 392 -1 392 -1 L429 -1 L438 -1 C509 157 700 368 736 368 C743 368 746 363 746 356 C746 304 576 156 563 156 C556 156 553 149 553 143 L553 143 C553 101 609 -1 661 -1 C740 -1 849 156 849 156 L842 163 C842 163 746 38 687 38 L687 38 Z M357 461 C357 566 418 675 450 675 C462 675 469 667 469 652 C469 609 427 500 369 386 C360 408 357 435 357 461 L357 461 Z M922 916 C945 916 955 900 955 877 C955 764 759 519 591 401 C638 520 800 916 922 916 L922 916 Z " />
<glyph glyph-name="V_l" unicode="&#xe054;" horiz-adv-x="633" d="M979 875 C979 920 953 946 920 946 C754 946 559 496 516 386 C512 377 508 365 502 351 C479 341 457 336 438 336 C419 336 405 341 393 351 C455 465 498 578 498 636 C498 679 481 700 450 700 C397 700 321 583 321 467 C321 423 332 384 354 358 C267 195 151 29 77 29 C35 29 42 96 74 221 C103 330 209 656 209 656 L159 656 C159 656 56 334 25 221 C-13 81 -15 -1 74 -1 C161 -1 291 166 384 334 C400 325 418 321 439 321 C456 321 475 325 495 332 C449 214 374 -1 481 -1 C560 -1 668 156 668 156 L662 163 C662 163 565 38 506 38 C427 38 502 235 548 357 C730 459 979 748 979 875 L979 875 Z M357 461 C357 566 418 675 450 675 C462 675 469 667 469 652 C469 609 427 500 369 386 C360 408 357 435 357 461 L357 461 Z M559 386 C595 481 794 916 922 916 C945 916 955 900 955 877 C955 756 731 484 557 379 C558 381 558 384 559 386 L559 386 Z " />
<glyph glyph-name="W_b" unicode="&#xe055;" horiz-adv-x="1113" d="M1049 118 C1031 118 1017 123 1005 131 C1044 191 1072 262 1072 324 C1072 372 1046 402 1016 402 C971 402 939 334 939 256 C939 212 948 176 964 151 C921 79 864 23 820 23 C783 23 777 56 789 109 C823 197 869 316 892 378 C1070 493 1289 755 1289 875 C1289 920 1263 946 1230 946 C1064 946 895 496 852 386 C850 380 847 374 845 366 C809 347 776 336 748 336 C729 336 715 341 703 351 C765 465 808 578 808 636 C808 679 791 700 761 700 C707 700 631 583 631 467 C631 423 642 384 664 358 C578 195 461 29 387 29 C345 29 352 96 385 221 C413 330 494 582 494 582 L443 582 C443 582 420 507 394 421 C318 252 171 29 77 29 C35 29 42 96 74 221 C103 330 209 656 209 656 L159 656 C159 656 56 334 25 221 C-13 81 -15 -1 74 -1 C155 -1 267 134 351 275 C345 255 340 237 336 221 C297 81 296 -1 384 -1 C471 -1 601 166 694 334 C710 325 728 321 749 321 C775 321 804 330 837 346 C790 226 703 -1 703 -1 L746 -1 C746 -1 752 15 762 40 C767 16 785 -3 827 -3 C881 -3 946 49 995 117 C1010 107 1026 102 1044 102 C1124 102 1167 188 1167 188 L1156 198 C1156 198 1111 118 1049 118 L1049 118 Z M667 461 C667 566 728 675 761 675 C772 675 779 667 779 652 C779 609 737 500 679 386 C670 408 667 435 667 461 L667 461 Z M1233 916 C1255 916 1265 900 1265 877 C1265 764 1070 519 902 401 C948 520 1110 916 1233 916 L1233 916 Z M961 257 C961 314 976 369 1003 369 C1013 369 1022 355 1022 328 C1022 279 1003 222 975 170 C965 194 961 223 961 257 L961 257 Z " />
<glyph glyph-name="W_h" unicode="&#xe056;" horiz-adv-x="1134" d="M1017 38 C998 38 989 52 989 77 C989 165 1086 305 1086 362 C1086 378 1076 397 1047 397 C985 397 846 189 777 79 C811 168 866 309 892 378 C1070 493 1289 755 1289 875 C1289 920 1263 946 1230 946 C1064 946 895 496 852 386 C850 380 847 374 845 366 C809 347 776 336 748 336 C729 336 715 341 703 351 C765 465 808 578 808 636 C808 679 791 700 761 700 C707 700 631 583 631 467 C631 423 642 384 664 358 C578 195 461 29 387 29 C345 29 352 96 385 221 C413 330 494 582 494 582 L443 582 C443 582 420 507 394 421 C318 252 171 29 77 29 C35 29 42 96 74 221 C103 330 209 656 209 656 L159 656 C159 656 56 334 25 221 C-13 81 -15 -1 74 -1 C155 -1 267 134 351 275 C345 255 340 237 336 221 C297 81 296 -1 384 -1 C471 -1 601 166 694 334 C710 325 728 321 749 321 C775 321 804 330 837 346 C790 226 703 -1 703 -1 L746 -1 L746 -1 C746 -1 977 368 1027 368 C1031 368 1033 365 1033 360 C1033 306 940 156 940 61 C940 20 958 -1 992 -1 C1071 -1 1179 156 1179 156 L1173 163 C1173 163 1077 38 1017 38 L1017 38 Z M667 461 C667 566 728 675 761 675 C772 675 779 667 779 652 C779 609 737 500 679 386 C670 408 667 435 667 461 L667 461 Z M1233 916 C1255 916 1265 900 1265 877 C1265 764 1070 519 902 401 C948 520 1110 916 1233 916 L1233 916 Z " />
<glyph glyph-name="W_k" unicode="&#xe057;" horiz-adv-x="1124" d="M997 38 C961 38 919 114 916 159 C980 204 1091 294 1091 344 C1091 368 1081 385 1053 385 C1007 385 873 243 784 98 C819 187 868 314 892 378 C1070 493 1289 755 1289 875 C1289 920 1263 946 1230 946 C1064 946 895 496 852 386 C850 380 847 374 845 366 C809 347 776 336 748 336 C729 336 715 341 703 351 C765 465 808 578 808 636 C808 679 791 700 761 700 C707 700 631 583 631 467 C631 423 642 384 664 358 C578 195 461 29 387 29 C345 29 352 96 385 221 C413 330 494 582 494 582 L443 582 C443 582 420 507 394 421 C318 252 171 29 77 29 C35 29 42 96 74 221 C103 330 209 656 209 656 L159 656 C159 656 56 334 25 221 C-13 81 -15 -1 74 -1 C155 -1 267 134 351 275 C345 255 340 237 336 221 C297 81 296 -1 384 -1 C471 -1 601 166 694 334 C710 325 728 321 749 321 C775 321 804 330 837 346 C790 226 703 -1 703 -1 L739 -1 L748 -1 C819 157 1011 368 1047 368 C1053 368 1056 363 1056 356 C1056 304 886 156 873 156 C866 156 863 149 863 143 L863 143 C863 101 920 -1 972 -1 C1051 -1 1159 156 1159 156 L1153 163 C1153 163 1056 38 997 38 L997 38 Z M667 461 C667 566 728 675 761 675 C772 675 779 667 779 652 C779 609 737 500 679 386 C670 408 667 435 667 461 L667 461 Z M1233 916 C1255 916 1265 900 1265 877 C1265 764 1070 519 902 401 C948 520 1110 916 1233 916 L1233 916 Z " />
<glyph glyph-name="W_l" unicode="&#xe058;" horiz-adv-x="943" d="M1289 875 C1289 920 1263 946 1230 946 C1064 946 869 496 826 386 C823 377 818 365 812 351 C789 341 767 336 748 336 C729 336 715 341 703 351 C765 465 808 578 808 636 C808 679 791 700 761 700 C707 700 631 583 631 467 C631 423 642 384 664 358 C578 195 461 29 387 29 C345 29 352 96 385 221 C413 330 494 582 494 582 L443 582 C443 582 420 507 394 421 C318 252 171 29 77 29 C35 29 42 96 74 221 C103 330 209 656 209 656 L159 656 C159 656 56 334 25 221 C-13 81 -15 -1 74 -1 C155 -1 267 134 351 275 C345 255 340 237 336 221 C297 81 296 -1 384 -1 C471 -1 601 166 694 334 C710 325 728 321 749 321 C766 321 785 325 805 332 C759 214 685 -1 791 -1 C870 -1 978 156 978 156 L972 163 C972 163 875 38 816 38 C738 38 812 235 858 357 C1040 459 1289 748 1289 875 L1289 875 Z M667 461 C667 566 728 675 761 675 C772 675 779 667 779 652 C779 609 737 500 679 386 C670 408 667 435 667 461 L667 461 Z M870 386 C905 481 1104 916 1233 916 C1255 916 1265 900 1265 877 C1265 756 1041 484 867 379 C868 381 869 384 870 386 L870 386 Z " />
<glyph glyph-name="ampersand_ss01" unicode="&#xe059;" horiz-adv-x="439" d="M426 286 C389 286 356 240 313 240 C288 240 273 257 273 257 L262 246 C262 246 273 202 324 202 C332 202 339 204 346 207 C325 140 251 30 150 30 C102 30 60 55 60 110 C60 208 146 298 217 329 C263 333 284 347 294 353 C305 359 310 384 290 384 C270 384 239 352 201 352 C164 352 159 377 159 406 C159 498 307 633 390 633 C421 633 435 616 435 586 C435 530 387 474 345 474 C317 474 307 493 315 515 L295 513 C284 481 299 453 345 453 C400 453 469 506 469 584 C469 629 432 655 384 655 C255 655 111 509 111 414 C111 377 131 344 168 333 C87 293 0 203 0 107 C0 38 63 0 135 0 C284 0 364 147 373 224 C393 239 412 256 433 256 C452 256 469 242 469 242 L479 253 C479 253 461 286 426 286 L426 286 Z " />
<glyph glyph-name="ampersand_ss02" unicode="&#xe060;" horiz-adv-x="438" d="M333 274 L376 274 C373 239 343 162 292 104 C266 165 241 233 232 322 C357 384 473 485 473 583 C473 628 438 663 390 663 C289 663 191 554 191 384 C191 366 192 348 194 331 C109 290 0 231 0 117 C0 46 63 0 135 0 C196 0 248 27 288 65 C318 2 343 -57 343 -118 C343 -233 254 -316 172 -316 C130 -316 95 -285 95 -243 C95 -168 177 -129 201 -129 C210 -129 207 -91 184 -91 C144 -91 60 -147 60 -233 C60 -297 102 -344 174 -344 C277 -344 362 -236 362 -123 C362 -50 334 11 303 80 C363 144 396 230 398 274 L462 274 L478 312 L350 312 L333 274 L333 274 Z M393 636 C422 636 429 619 429 596 C429 511 344 403 230 347 C229 360 229 374 229 387 C229 537 338 636 393 636 L393 636 Z M150 30 C102 30 60 67 60 120 C60 207 134 267 198 304 C212 223 246 153 277 88 C243 54 200 30 150 30 L150 30 Z " />
<glyph glyph-name="T_h" unicode="&#xe061;" horiz-adv-x="808" d="M634 542 C801 555 963 742 963 876 C963 921 938 947 905 947 C790 947 673 730 598 561 C479 575 365 675 240 675 C154 675 109 612 109 565 C109 518 155 490 205 490 C259 490 288 522 302 536 L290 549 C273 531 237 512 205 512 C173 512 145 528 145 567 C145 607 182 642 240 642 C299 642 362 610 433 582 C417 572 401 552 387 519 C330 385 277 249 228 142 C186 49 153 12 110 12 C78 12 40 32 40 107 C40 198 103 291 203 291 L202 306 C86 306 0 213 0 112 C0 37 46 -9 102 -9 C180 -9 233 43 277 142 C323 246 373 376 435 519 C444 538 452 556 461 572 C502 557 544 546 590 542 C561 476 539 418 527 387 C490 291 378 0 378 0 L421 0 L421 0 C421 0 652 369 701 369 C706 369 708 366 708 361 C708 307 615 157 615 62 C615 21 633 0 667 0 C746 0 854 157 854 157 L848 164 C848 164 751 39 692 39 C672 39 664 53 664 78 C664 166 761 306 761 363 C761 379 751 398 722 398 C659 398 521 190 452 80 C488 173 545 323 570 387 C581 415 604 474 634 542 L634 542 Z M907 917 C930 917 940 901 940 878 C940 765 788 575 643 561 C714 718 821 917 907 917 L907 917 Z " />
<glyph glyph-name="T_b" unicode="&#xe062;" horiz-adv-x="787" d="M634 542 C801 555 963 742 963 876 C963 921 938 947 905 947 C790 947 673 730 598 561 C479 575 365 675 240 675 C154 675 109 612 109 565 C109 518 155 490 205 490 C259 490 288 522 302 536 L290 549 C273 531 237 512 205 512 C173 512 145 528 145 567 C145 607 182 642 240 642 C299 642 362 610 433 582 C417 572 401 552 387 519 C330 385 277 249 228 142 C186 49 153 12 110 12 C78 12 40 32 40 107 C40 198 103 291 203 291 L202 306 C86 306 0 213 0 112 C0 37 46 -9 102 -9 C180 -9 233 43 277 142 C323 246 373 376 435 519 C444 538 452 556 461 572 C502 557 544 546 590 542 C561 476 539 418 527 387 C490 291 378 0 378 0 L421 0 C421 0 427 16 437 41 C442 17 460 -2 502 -2 C556 -2 621 49 670 118 C684 108 701 103 719 103 C799 103 842 189 842 189 L831 199 C831 199 786 119 724 119 C706 119 691 124 679 132 C719 192 747 263 747 325 C747 373 721 403 691 403 C646 403 613 335 613 257 C613 213 623 177 639 152 C596 80 538 24 495 24 C458 24 452 57 463 110 L463 110 C499 203 548 329 570 387 C581 415 604 474 634 542 L634 542 Z M907 917 C930 917 940 901 940 878 C940 765 788 575 643 561 C714 718 821 917 907 917 L907 917 Z M636 258 C636 315 651 369 677 369 C688 369 697 356 697 329 C697 280 678 223 650 171 C640 194 636 224 636 258 L636 258 Z " />
<glyph glyph-name="T_k" unicode="&#xe063;" horiz-adv-x="798" d="M634 542 C801 555 963 742 963 876 C963 921 938 947 905 947 C790 947 673 730 598 561 C479 575 365 675 240 675 C154 675 109 612 109 565 C109 518 155 490 205 490 C259 490 288 522 302 536 L290 549 C273 531 237 512 205 512 C173 512 145 528 145 567 C145 607 182 642 240 642 C299 642 362 610 433 582 C417 572 401 552 387 519 C330 385 277 249 228 142 C186 49 153 12 110 12 C78 12 40 32 40 107 C40 198 103 291 203 291 L202 306 C86 306 0 213 0 112 C0 37 46 -9 102 -9 C180 -9 233 43 277 142 C323 246 373 376 435 519 C444 538 452 556 461 572 C502 557 544 546 590 542 C561 476 539 418 527 387 C490 291 378 0 378 0 L414 0 L423 0 C494 158 686 369 722 369 C728 369 731 364 731 357 C731 305 561 157 548 157 C541 157 538 150 538 144 L538 144 C538 102 595 0 646 0 C726 0 834 157 834 157 L828 164 C828 164 731 39 672 39 C636 39 594 115 591 160 C655 205 766 295 766 345 C766 369 756 386 728 386 C682 386 548 243 459 98 C495 191 547 327 570 387 C581 415 604 474 634 542 L634 542 Z M907 917 C930 917 940 901 940 878 C940 765 788 575 643 561 C714 718 821 917 907 917 L907 917 Z " />
<glyph glyph-name="T_l" unicode="&#xe064;" horiz-adv-x="617" d="M613 541 C614 541 615 541 616 541 C788 541 963 737 963 876 C963 921 938 947 905 947 C791 947 662 733 580 564 C467 586 359 675 240 675 C154 675 109 612 109 565 C109 518 155 490 205 490 C259 490 288 522 302 536 L290 549 C273 531 237 512 205 512 C173 512 145 528 145 567 C145 607 182 642 240 642 C299 642 362 610 433 582 C417 572 401 552 387 519 C330 385 277 249 228 142 C186 49 153 12 110 12 C78 12 40 32 40 107 C40 198 103 291 203 291 L202 306 C86 306 0 213 0 112 C0 37 46 -9 102 -9 C180 -9 233 43 277 142 C323 246 373 376 435 519 C444 538 452 556 461 572 C496 560 532 549 570 544 C537 477 513 418 501 387 C468 303 339 0 465 0 C545 0 653 157 653 157 L647 164 C647 164 550 39 491 39 C406 39 501 272 544 387 C555 415 580 474 613 541 L613 541 Z M907 917 C930 917 940 901 940 878 C940 761 776 560 626 560 C625 560 623 560 622 560 C701 718 821 917 907 917 L907 917 Z " />
<glyph glyph-name="a_ss01" unicode="&#xe065;" horiz-adv-x="875" d="M557 32 C537 32 527 45 527 73 C527 197 651 377 729 377 C754 377 760 358 760 327 C760 318 756 305 750 288 C738 263 725 235 713 208 C669 125 602 32 557 32 L557 32 Z M748 39 C728 39 719 53 719 78 C719 166 842 387 842 387 L801 387 C801 387 791 370 777 342 C780 376 752 404 722 404 C684 404 641 379 602 341 C569 315 498 277 394 277 C111 277 -39 410 -39 611 C-39 745 83 886 313 886 C518 886 703 709 725 581 L738 577 C723 745 531 925 313 925 C90 925 -60 765 -60 598 C-60 362 141 244 391 244 C463 244 517 262 561 293 C512 229 477 147 477 77 C477 29 498 -1 541 -1 C593 -1 641 54 678 112 C673 93 670 76 670 62 C670 22 689 0 722 0 C801 0 910 157 910 157 L904 164 C904 164 807 39 748 39 L748 39 Z " />
<glyph glyph-name="a_ss02" unicode="&#xe066;" horiz-adv-x="398" d="M80 32 C60 32 50 45 50 73 C50 197 174 377 252 377 C277 377 283 358 283 327 C283 318 279 305 273 288 C261 263 248 235 236 208 C192 125 125 32 80 32 L80 32 Z M659 1188 C440 1188 249 1009 233 841 L246 845 C269 973 454 1150 659 1150 C889 1150 1010 1009 1010 875 C1010 713 883 560 654 560 C323 560 76 945 -222 945 C-351 945 -492 855 -492 694 C-492 569 -397 467 -266 467 C-173 467 -107 520 -91 561 C-89 519 4 375 152 364 C72 302 0 177 0 77 C0 29 20 -1 64 -1 C115 -1 164 54 201 112 C196 93 193 76 193 62 C193 22 211 0 245 0 C324 0 433 157 433 157 L427 164 C427 164 330 39 270 39 C251 39 242 53 242 78 C242 166 364 387 364 387 L324 387 C324 387 314 370 300 342 C302 376 275 404 245 404 C220 404 194 394 168 376 C42 378 -76 518 -76 586 C-76 598 -74 621 -88 621 C-103 621 -104 598 -104 590 C-104 547 -168 505 -266 505 C-372 505 -471 575 -471 690 C-471 818 -377 907 -236 907 C45 907 283 527 654 527 C864 527 1031 666 1031 862 C1031 1029 881 1188 659 1188 L659 1188 Z " />
<glyph glyph-name="a_ss03" unicode="&#xe067;" horiz-adv-x="782" d="M481 814 C278 814 96 645 56 480 L69 484 C116 630 276 789 481 789 C711 789 796 643 796 476 C796 192 540 -51 339 -51 C208 -51 216 43 255 144 C293 243 365 387 365 387 L325 387 C325 387 314 368 300 338 L300 339 C305 374 277 404 245 404 C141 404 0 216 0 77 C0 29 21 -1 65 -1 C116 -1 165 54 202 111 C180 15 220 -75 336 -75 C577 -75 842 204 842 462 C842 689 698 814 481 814 L481 814 Z M80 33 C60 33 50 46 50 73 C50 197 174 378 252 378 C277 378 283 359 283 328 C283 274 152 33 80 33 L80 33 Z " />
<glyph glyph-name="a_ss04" unicode="&#xe068;" horiz-adv-x="795" d="M855 941 C855 1041 751 1129 581 1129 C481 1129 384 1090 316 1023 C267 1031 216 1036 162 1036 C-18 1036 -189 944 -189 784 C-189 694 -124 543 211 543 C407 543 594 616 716 714 C755 643 776 563 776 477 C776 193 539 -51 339 -51 C207 -51 216 43 255 144 C293 243 365 387 365 387 L324 387 C324 387 314 368 299 338 L300 339 C304 374 277 404 245 404 C141 404 0 216 0 77 C0 29 21 -1 64 -1 C116 -1 164 54 201 111 C180 15 219 -75 336 -75 C560 -75 817 203 817 483 C817 581 793 669 750 744 C816 806 855 875 855 941 L855 941 Z M80 33 C60 33 50 46 50 73 C50 197 174 378 252 378 C277 378 282 359 282 328 C282 274 152 33 80 33 L80 33 Z M215 579 C-50 579 -172 672 -172 784 C-172 936 -5 997 153 997 C199 997 243 993 284 987 C243 933 219 867 219 790 L232 790 C232 865 262 931 309 983 C486 951 621 862 699 741 C578 648 392 579 215 579 L215 579 Z M734 770 C652 895 514 981 345 1017 C409 1070 495 1101 581 1101 C726 1101 835 1037 835 949 C835 889 796 826 734 770 L734 770 Z " />
<glyph glyph-name="a_ss05" unicode="&#xe069;" horiz-adv-x="763" d="M1076 945 C966 945 864 894 762 828 C677 1039 478 1184 202 1184 C-27 1184 -177 1029 -177 862 C-177 666 -10 527 200 527 C413 527 582 652 740 759 C758 700 767 638 767 576 C767 245 531 -51 338 -51 C207 -51 215 43 254 144 C293 243 364 387 364 387 L324 387 C324 387 314 368 299 338 L299 339 C304 374 276 404 244 404 C140 404 0 216 0 77 C0 29 20 -1 64 -1 C115 -1 164 54 201 111 C179 15 219 -75 335 -75 C564 -75 808 245 808 582 C808 653 798 721 778 784 C882 852 983 907 1090 907 C1231 907 1325 818 1325 690 C1325 575 1226 505 1120 505 C1059 505 1011 521 983 544 L967 531 C997 499 1051 467 1120 467 C1251 467 1346 569 1346 694 C1346 855 1205 945 1076 945 L1076 945 Z M80 33 C59 33 49 46 49 73 C49 197 173 378 251 378 C276 378 282 359 282 328 C282 274 151 33 80 33 L80 33 Z M200 560 C-29 560 -157 713 -157 875 C-157 1009 -16 1150 193 1150 C471 1150 649 999 725 804 C561 694 395 560 200 560 L200 560 Z " />
<glyph glyph-name="b_ss01" unicode="&#xe070;" horiz-adv-x="365" d="M149 387 C154 402 163 426 175 454 C357 516 541 742 541 876 C541 921 516 947 483 947 C349 947 212 651 142 481 C120 475 99 471 79 471 C-29 471 -83 529 -94 586 L-107 578 C-100 514 -45 438 85 438 C99 438 113 440 126 442 C118 420 110 401 105 387 C68 291 -44 0 -44 0 L-1 0 C-1 0 5 16 15 41 C20 17 38 -2 80 -2 C134 -2 199 49 248 118 C262 108 279 103 297 103 C377 103 420 189 420 189 L409 199 C409 199 364 119 302 119 C284 119 269 124 257 132 C297 192 325 263 325 325 C325 373 299 403 269 403 C224 403 191 335 191 257 C191 213 201 177 217 152 C174 80 116 24 73 24 C36 24 30 57 41 110 C77 202 126 329 149 387 L149 387 Z M485 917 C508 917 518 901 518 878 C518 756 352 570 194 500 C263 662 387 917 485 917 L485 917 Z M214 258 C214 315 229 369 255 369 C266 369 275 356 275 329 C275 280 256 223 228 171 C218 195 214 224 214 258 L214 258 Z " />
<glyph glyph-name="b_ss02" unicode="&#xe071;" horiz-adv-x="365" d="M571 947 C338 947 212 651 105 387 C66 291 -45 0 -45 0 L-1 0 C-1 0 5 16 14 41 C20 17 38 -2 80 -2 C134 -2 198 49 247 118 C262 108 279 103 296 103 C376 103 420 189 420 189 L409 199 C409 199 364 119 302 119 C284 119 269 124 257 132 C297 192 324 263 324 325 C324 373 299 403 269 403 C224 403 191 335 191 257 C191 213 201 177 216 152 C174 80 116 24 73 24 C36 24 30 57 41 110 L41 110 C76 203 125 329 148 387 C239 615 368 917 573 917 C674 917 714 854 714 778 C714 658 574 533 468 533 C439 533 417 541 401 556 L393 542 C406 529 433 515 473 515 C589 515 738 641 738 791 C738 888 668 947 571 947 L571 947 Z M214 258 C214 315 229 369 255 369 C266 369 274 356 274 329 C274 280 255 223 228 171 C218 195 214 224 214 258 L214 258 Z " />
<glyph glyph-name="b_ss03" unicode="&#xe072;" horiz-adv-x="365" d="M571 947 C528 947 488 936 452 918 C383 1043 232 1148 65 1148 C-158 1148 -308 989 -308 821 C-308 593 -102 475 138 468 C127 441 116 414 105 387 C66 291 -44 0 -44 0 L-1 0 C-1 0 5 16 15 41 C20 17 38 -2 80 -2 C134 -2 199 49 248 118 C262 108 279 103 297 103 C377 103 420 189 420 189 L409 199 C409 199 364 119 302 119 C284 119 269 124 257 132 C297 192 324 263 324 325 C324 373 299 403 269 403 C224 403 191 335 191 257 C191 213 201 177 217 152 C174 80 116 24 73 24 C36 24 30 57 41 110 L41 110 C77 203 125 329 148 387 C159 413 170 441 182 468 C276 474 368 528 377 565 C390 533 430 515 473 515 C589 515 738 641 738 791 C738 888 668 947 571 947 L571 947 Z M214 258 C214 315 229 369 255 369 C266 369 275 356 275 329 C275 280 256 223 228 171 C218 195 214 224 214 258 L214 258 Z M-287 834 C-287 969 -165 1109 65 1109 C218 1109 360 1010 431 907 C310 834 224 670 152 500 C-123 505 -287 636 -287 834 L-287 834 Z M468 533 C434 533 392 548 392 586 C392 597 394 621 379 621 C365 621 364 597 364 590 C364 550 296 508 196 501 C261 650 346 804 450 876 C464 851 473 827 477 804 L490 801 C488 829 480 858 468 887 C501 906 536 917 573 917 C674 917 714 854 714 778 C714 658 574 533 468 533 L468 533 Z " />
<glyph glyph-name="b_ss04" unicode="&#xe073;" horiz-adv-x="365" d="M483 947 C370 947 255 738 180 570 C104 545 20 530 -68 530 C-351 530 -561 656 -561 857 C-561 992 -439 1132 -209 1132 C-4 1132 181 956 204 827 L217 824 C201 991 10 1171 -209 1171 C-431 1171 -581 1012 -581 845 C-581 609 -325 491 -75 491 C9 491 89 506 162 529 C136 468 116 416 105 387 C68 291 -44 0 -44 0 L-1 0 C-1 0 5 16 15 41 C20 17 38 -2 80 -2 C134 -2 199 49 248 118 C262 108 279 103 297 103 C377 103 420 189 420 189 L409 199 C409 199 364 119 302 119 C284 119 269 124 257 132 C297 192 325 263 325 325 C325 373 299 403 269 403 C224 403 191 335 191 257 C191 213 201 177 217 152 C174 80 116 24 73 24 C36 24 30 57 41 110 C77 202 126 329 149 387 C160 416 184 478 215 548 C408 626 541 768 541 876 C541 921 516 947 483 947 L483 947 Z M214 258 C214 315 229 369 255 369 C266 369 275 356 275 329 C275 280 256 223 228 171 C218 195 214 224 214 258 L214 258 Z M234 590 C305 742 404 917 485 917 C508 917 518 901 518 878 C518 778 403 660 234 590 L234 590 Z " />
<glyph glyph-name="b_ss05" unicode="&#xe074;" horiz-adv-x="365" d="M641 1188 C422 1188 231 1008 215 841 L228 844 C251 972 436 1149 641 1149 C871 1149 993 1009 993 874 C993 713 865 560 636 560 C555 560 480 583 407 617 C486 703 541 803 541 876 C541 921 515 947 483 947 C400 947 317 835 249 710 C86 818 -69 945 -240 945 C-369 945 -510 854 -510 694 C-510 569 -415 466 -284 466 C-191 466 -125 524 -109 565 C-107 521 -41 438 85 438 C99 438 112 440 126 442 C117 420 110 401 105 387 C68 291 -45 0 -45 0 L-1 0 C-1 0 5 16 15 41 C20 17 38 -2 80 -2 C134 -2 198 49 247 118 C262 108 279 103 296 103 C376 103 420 189 420 189 L409 199 C409 199 364 119 302 119 C284 119 269 124 257 132 C297 192 324 263 324 325 C324 373 299 403 269 403 C224 403 191 335 191 257 C191 213 201 177 216 152 C174 80 116 24 73 24 C36 24 30 57 41 110 C77 202 126 329 148 387 C154 402 163 426 175 454 C246 479 317 528 378 587 C457 551 542 526 636 526 C846 526 1013 665 1013 861 C1013 1029 863 1188 641 1188 L641 1188 Z M214 258 C214 315 229 369 255 369 C266 369 274 356 274 329 C274 280 255 223 228 171 C218 195 214 224 214 258 L214 258 Z M485 917 C508 917 518 901 518 878 C518 806 459 711 379 631 C346 648 314 667 282 688 C346 808 421 917 485 917 L485 917 Z M78 471 C-5 471 -94 517 -94 586 C-94 597 -92 621 -106 621 C-121 621 -122 597 -122 590 C-122 546 -186 504 -284 504 C-390 504 -489 574 -489 690 C-489 817 -395 906 -254 906 C-91 906 58 778 228 670 C194 603 164 536 142 481 C120 475 99 471 78 471 L78 471 Z M194 500 C213 545 236 597 262 648 C290 632 318 616 347 601 C299 559 246 523 194 500 L194 500 Z " />
<glyph glyph-name="b_ss06" unicode="&#xe075;" horiz-adv-x="365" d="M1126 1188 C927 1188 750 1039 709 885 C679 925 630 947 571 947 C516 947 468 931 424 903 C366 928 307 945 245 945 C116 945 -25 854 -25 694 C-25 589 42 500 140 474 C128 445 116 416 105 387 C66 291 -45 0 -45 0 L-2 0 C-2 0 5 16 14 41 C19 17 38 -2 79 -2 C134 -2 198 49 247 118 C262 108 279 103 296 103 C376 103 420 189 420 189 L409 199 C409 199 364 119 301 119 C284 119 269 124 257 132 C297 192 324 263 324 325 C324 373 298 403 268 403 C224 403 191 335 191 257 C191 213 200 177 216 152 C174 80 116 24 73 24 C36 24 30 57 41 110 L41 110 C76 203 125 329 148 387 C158 413 169 440 181 467 C188 467 194 466 201 466 C294 466 361 524 376 565 C390 533 430 515 472 515 C556 515 657 581 707 674 C830 595 964 526 1121 526 C1331 526 1499 665 1499 861 C1499 1029 1349 1188 1126 1188 L1126 1188 Z M213 258 C213 315 228 369 255 369 C266 369 274 356 274 329 C274 280 255 223 227 171 C218 195 213 224 213 258 L213 258 Z M573 917 C641 917 682 888 701 846 C701 844 700 842 700 841 L703 841 C710 822 714 801 714 778 C714 761 711 745 706 728 C624 784 544 842 463 884 C497 905 534 917 573 917 L573 917 Z M-4 690 C-4 817 90 906 231 906 C283 906 333 893 384 872 C289 791 217 652 155 508 C68 526 -4 591 -4 690 L-4 690 Z M468 533 C433 533 392 548 392 586 C392 597 393 621 379 621 C364 621 363 597 363 590 C363 546 299 504 201 504 C200 504 198 504 197 504 C256 639 331 777 422 854 C509 811 596 746 689 686 C643 601 546 533 468 533 L468 533 Z M1121 560 C977 560 848 633 725 715 C733 740 738 765 738 791 C738 821 731 846 720 868 C759 993 934 1149 1126 1149 C1356 1149 1478 1009 1478 874 C1478 713 1350 560 1121 560 L1121 560 Z " />
<glyph glyph-name="b_ss07" unicode="&#xe076;" horiz-adv-x="365" d="M149 387 C159 413 179 465 206 526 C218 525 229 524 241 524 C374 524 542 720 542 876 C542 921 516 947 483 947 C369 947 252 732 177 563 C106 581 31 629 -47 686 C29 753 76 829 76 900 C76 1001 -28 1089 -198 1089 C-305 1089 -408 1044 -477 968 C-530 988 -585 1000 -641 1000 C-822 1000 -968 890 -968 744 C-968 654 -903 503 -568 503 C-380 503 -200 570 -78 662 C4 604 84 554 165 534 C137 471 117 417 105 387 C68 291 -44 0 -44 0 L-1 0 C-1 0 5 16 15 41 C20 17 39 -2 80 -2 C134 -2 199 49 248 118 C263 108 279 103 297 103 C377 103 420 189 420 189 L409 199 C409 199 364 119 302 119 C284 119 270 124 258 132 C297 192 325 263 325 325 C325 373 299 403 269 403 C224 403 192 335 192 257 C192 213 201 177 217 152 C174 80 117 24 73 24 C36 24 30 57 42 110 C77 202 126 329 149 387 L149 387 Z M-198 1060 C-53 1060 56 996 56 909 C56 840 6 768 -73 706 C-192 795 -319 901 -454 959 C-388 1022 -294 1060 -198 1060 L-198 1060 Z M-564 539 C-829 539 -951 631 -951 744 C-951 870 -798 956 -651 956 C-601 956 -553 947 -506 931 C-540 880 -560 819 -560 750 L-546 750 C-546 816 -524 875 -486 924 C-352 872 -227 770 -106 682 C-227 599 -400 539 -564 539 L-564 539 Z M486 917 C508 917 518 901 518 878 C518 726 360 555 236 555 C230 555 225 555 219 556 C290 715 398 917 486 917 L486 917 Z M214 258 C214 315 229 369 256 369 C266 369 275 356 275 329 C275 280 256 223 228 171 C218 195 214 224 214 258 L214 258 Z " />
<glyph glyph-name="b_ss08" unicode="&#xe077;" horiz-adv-x="365" d="M864 893 C734 893 618 794 603 649 L615 645 C637 773 732 854 864 854 C1002 854 1075 771 1075 693 C1075 579 959 491 809 491 C674 491 556 569 420 631 C492 714 541 807 541 876 C541 921 515 947 483 947 C397 947 309 825 240 694 C198 703 154 708 107 708 C-23 708 -111 639 -111 558 C-111 493 -30 438 85 438 C99 438 112 440 126 442 C117 420 110 401 105 387 C67 291 -45 0 -45 0 L-1 0 C-1 0 5 16 14 41 C20 17 38 -2 79 -2 C134 -2 198 49 247 118 C262 108 279 103 296 103 C376 103 420 189 420 189 L409 199 C409 199 364 119 301 119 C284 119 269 124 257 132 C297 192 324 263 324 325 C324 373 298 403 268 403 C224 403 191 335 191 257 C191 213 200 177 216 152 C174 80 116 24 73 24 C36 24 30 57 41 110 C77 202 126 329 148 387 C154 402 163 426 175 454 C251 480 327 535 391 600 C528 538 654 460 808 460 C968 460 1092 556 1092 686 C1092 797 1009 893 864 893 L864 893 Z M213 258 C213 315 228 369 255 369 C266 369 274 356 274 329 C274 280 255 223 227 171 C218 195 213 224 213 258 L213 258 Z M485 917 C507 917 517 901 517 878 C517 809 469 718 398 640 C361 657 321 672 280 684 C344 806 420 917 485 917 L485 917 Z M92 471 C-16 471 -94 505 -94 561 C-94 618 -13 675 92 675 C138 675 181 669 222 660 C189 595 161 529 140 476 C124 473 108 471 92 471 L92 471 Z M190 491 C210 538 235 594 262 649 C299 638 334 625 369 610 C315 558 253 515 190 491 L190 491 Z " />
<glyph glyph-name="c_ss01" unicode="&#xe078;" horiz-adv-x="809" d="M639 27 C584 27 549 56 549 122 C549 238 667 378 731 378 C748 378 755 365 755 349 C755 325 741 294 718 266 C711 258 722 247 742 247 C761 247 786 296 786 331 C786 371 766 404 725 404 C684 404 640 379 601 340 C567 314 496 277 394 277 C111 277 -40 409 -40 611 C-40 745 82 886 312 886 C517 886 702 709 725 581 L738 577 C722 745 531 924 312 924 C90 924 -60 765 -60 598 C-60 362 140 244 390 244 C463 244 518 262 563 295 C525 242 499 177 499 117 C499 34 560 -4 619 -4 C733 -4 844 157 844 157 L837 164 C837 164 726 27 639 27 L639 27 Z " />
<glyph glyph-name="c_ss02" unicode="&#xe079;" horiz-adv-x="310" d="M635 1188 C417 1188 225 1008 210 841 L223 844 C245 973 430 1149 635 1149 C865 1149 987 1009 987 874 C987 713 859 560 630 560 C299 560 53 945 -245 945 C-375 945 -516 854 -516 694 C-516 569 -421 467 -290 467 C-197 467 -130 520 -115 560 C-113 518 -20 375 128 364 C59 310 0 209 0 117 C0 34 60 -4 119 -4 C233 -4 345 157 345 157 L338 164 C338 164 226 27 139 27 C84 27 50 56 50 122 C50 238 167 378 232 378 C249 378 255 365 255 349 C255 325 241 294 218 266 C211 258 222 247 242 247 C261 247 286 296 286 331 C286 371 266 404 225 404 C199 404 172 393 145 376 C18 377 -99 518 -99 586 C-99 597 -97 621 -112 621 C-127 621 -127 597 -127 590 C-127 547 -191 504 -290 504 C-396 504 -495 575 -495 690 C-495 818 -401 907 -260 907 C21 907 259 527 630 527 C840 527 1008 666 1008 862 C1008 1029 858 1188 635 1188 L635 1188 Z " />
<glyph glyph-name="c_ss03" unicode="&#xe080;" horiz-adv-x="581" d="M281 840 C77 840 -105 670 -145 506 L-132 510 C-85 655 76 815 281 815 C511 815 595 669 595 502 C595 218 351 -11 177 -11 C93 -11 50 36 50 108 C50 245 168 378 232 378 C249 378 256 365 256 349 C256 325 242 294 218 266 C212 258 222 247 243 247 C262 247 287 296 287 331 C287 371 267 404 225 404 C125 404 0 250 0 117 C0 13 73 -34 168 -34 C383 -34 641 230 641 488 C641 715 497 840 281 840 L281 840 Z " />
<glyph glyph-name="c_ss04" unicode="&#xe081;" horiz-adv-x="633" d="M693 981 C693 1082 589 1170 419 1170 C319 1170 222 1131 154 1063 C105 1072 54 1076 1 1076 C-180 1076 -351 985 -351 825 C-351 735 -286 584 49 584 C246 584 433 657 554 755 C593 684 614 604 614 518 C614 234 378 -11 177 -11 C94 -11 50 36 50 108 C50 245 168 378 232 378 C249 378 256 365 256 349 C256 325 242 294 218 266 C212 258 222 247 243 247 C262 247 287 296 287 331 C287 371 267 404 225 404 C125 404 0 250 0 117 C0 13 73 -34 168 -34 C393 -34 656 244 656 524 C656 622 632 709 589 785 C654 847 693 916 693 981 L693 981 Z M53 620 C-212 620 -334 712 -334 825 C-334 976 -166 1037 -9 1037 C37 1037 81 1034 123 1028 C82 974 57 907 57 831 L71 831 C71 906 100 972 147 1024 C324 991 459 903 538 782 C416 689 230 620 53 620 L53 620 Z M573 811 C490 935 353 1022 183 1058 C248 1110 333 1141 419 1141 C564 1141 673 1077 673 990 C673 929 635 867 573 811 L573 811 Z " />
<glyph glyph-name="c_ss05" unicode="&#xe082;" horiz-adv-x="603" d="M915 986 C806 986 703 934 601 868 C516 1079 317 1225 42 1225 C-188 1225 -338 1070 -338 902 C-338 706 -171 567 39 567 C252 567 421 692 580 799 C597 740 606 678 606 616 C606 285 371 -11 177 -11 C94 -11 50 36 50 108 C50 245 168 378 232 378 C249 378 256 365 256 349 C256 325 242 294 219 266 C212 258 223 247 243 247 C262 247 287 296 287 331 C287 371 267 404 226 404 C125 404 0 250 0 117 C0 13 73 -34 169 -34 C398 -34 647 285 647 622 C647 693 637 761 617 824 C721 892 822 947 929 947 C1071 947 1164 858 1164 731 C1164 615 1066 545 959 545 C898 545 850 562 822 585 L806 572 C836 539 891 507 959 507 C1091 507 1186 610 1186 735 C1186 895 1044 986 915 986 L915 986 Z M39 601 C-189 601 -317 754 -317 915 C-317 1050 -176 1191 32 1191 C310 1191 489 1040 564 844 C400 734 234 601 39 601 L39 601 Z " />
<glyph glyph-name="d_ss01" unicode="&#xe083;" horiz-adv-x="403" d="M691 947 C556 947 419 651 349 481 C328 475 306 472 286 472 C179 472 124 529 114 586 L101 578 C107 514 162 438 293 438 C306 438 320 440 334 442 C325 420 318 401 312 387 C309 378 305 367 300 355 C295 383 272 403 245 403 C141 403 0 216 0 77 C0 28 21 -2 65 -2 C124 -2 181 74 219 140 C207 104 199 75 199 62 C199 21 217 0 251 0 C330 0 438 157 438 157 L432 164 C432 164 336 39 276 39 C257 39 248 51 248 72 C248 124 313 272 356 387 C361 402 370 426 382 454 C564 516 749 742 749 876 C749 921 723 947 691 947 L691 947 Z M80 32 C60 32 50 45 50 73 C50 197 174 377 252 377 C277 377 283 358 283 327 C283 274 152 32 80 32 L80 32 Z M401 500 C470 661 595 917 693 917 C715 917 725 901 725 878 C725 756 559 570 401 500 L401 500 Z " />
<glyph glyph-name="d_ss02" unicode="&#xe084;" horiz-adv-x="430" d="M740 947 C563 947 413 638 313 387 C310 379 305 368 300 355 C296 382 272 403 245 403 C141 403 0 216 0 77 C0 28 21 -2 65 -2 C136 -2 203 105 239 176 C215 84 211 0 277 0 C357 0 465 157 465 157 L459 164 C459 164 362 39 303 39 C218 39 310 273 356 387 C451 623 580 917 742 917 C830 917 870 854 870 778 C870 658 729 533 624 533 C595 533 572 541 557 556 L548 542 C562 529 588 515 628 515 C744 515 893 641 893 792 C893 888 827 947 740 947 L740 947 Z M80 32 C60 32 50 45 50 73 C50 197 174 377 252 377 C277 377 283 358 283 327 C283 274 152 32 80 32 L80 32 Z " />
<glyph glyph-name="d_ss03" unicode="&#xe085;" horiz-adv-x="403" d="M772 947 C729 947 689 934 652 912 C585 1039 431 1148 261 1148 C38 1148 -112 989 -112 822 C-112 590 101 472 345 468 C333 439 322 412 312 387 C308 378 304 367 299 356 C295 383 271 403 245 403 C141 403 0 216 0 77 C0 28 21 -2 64 -2 C124 -2 180 73 218 139 C207 104 199 75 199 62 C199 21 217 0 251 0 C330 0 438 157 438 157 L432 164 C432 164 335 39 276 39 C257 39 248 51 248 72 C248 124 309 273 356 387 C365 412 377 439 389 469 C480 479 565 530 573 565 C586 533 627 515 669 515 C785 515 934 641 934 792 C934 888 869 947 772 947 L772 947 Z M80 32 C60 32 50 45 50 73 C50 197 174 377 251 377 C277 377 282 358 282 327 C282 319 279 305 273 289 C271 283 269 277 267 272 C230 182 137 32 80 32 L80 32 Z M-91 834 C-91 969 31 1109 261 1109 C418 1109 563 1006 633 899 C515 818 423 646 359 500 C78 501 -91 634 -91 834 L-91 834 Z M665 533 C630 533 588 548 588 586 C588 597 590 621 576 621 C561 621 560 597 560 590 C560 552 498 511 404 502 C462 634 545 794 649 871 C661 848 670 825 673 804 L687 801 C684 828 677 855 666 882 C700 904 736 917 774 917 C875 917 911 854 911 778 C911 658 770 533 665 533 L665 533 Z " />
<glyph glyph-name="d_ss04" unicode="&#xe086;" horiz-adv-x="403" d="M80 32 C60 32 50 45 50 73 C50 197 174 377 252 377 C277 377 283 358 283 327 C283 274 152 32 80 32 L80 32 Z M762 947 C620 947 478 735 384 546 C333 535 280 530 226 530 C-57 530 -267 656 -267 857 C-267 992 -145 1132 85 1132 C290 1132 475 956 497 827 L511 824 C495 992 303 1171 85 1171 C-138 1171 -288 1012 -288 845 C-288 609 -31 492 219 492 C269 492 317 496 364 505 C344 463 327 423 313 387 C309 378 305 367 300 356 C295 383 272 403 245 403 C141 403 0 216 0 77 C0 28 21 -2 65 -2 C124 -2 180 73 219 139 C207 104 199 75 199 62 C199 21 218 0 251 0 C330 0 438 157 438 157 L432 164 C432 164 336 39 276 39 C257 39 248 51 248 72 C248 124 310 273 356 387 C371 424 390 469 413 516 C656 579 835 746 835 871 C835 919 808 947 762 947 L762 947 Z M434 557 C521 728 647 917 765 917 C797 917 812 904 812 873 C812 756 651 616 434 557 L434 557 Z " />
<glyph glyph-name="d_ss05" unicode="&#xe087;" horiz-adv-x="403" d="M80 32 C60 32 50 45 50 73 C50 197 174 377 252 377 C277 377 283 358 283 327 C283 274 152 32 80 32 L80 32 Z M862 1188 C643 1188 452 1008 436 841 L450 844 C472 972 657 1149 862 1149 C1092 1149 1214 1009 1214 874 C1214 713 1086 560 857 560 C777 560 702 582 630 616 C711 703 767 803 767 876 C767 921 740 947 704 947 C618 947 534 842 463 714 C302 821 150 945 -19 945 C-148 945 -289 854 -289 694 C-289 569 -194 467 -63 467 C30 467 97 524 112 565 C114 521 180 438 306 438 C316 438 325 439 334 440 C327 422 319 404 313 387 C309 378 305 367 300 356 C296 383 272 403 245 403 C141 403 1 216 1 77 C1 28 21 -2 65 -2 C124 -2 181 73 219 139 C207 104 200 75 200 62 C200 21 218 0 251 0 C330 0 438 157 438 157 L432 164 C432 164 336 39 277 39 C257 39 248 51 248 72 C248 124 310 273 356 387 C364 406 372 427 382 450 C457 472 535 523 600 586 C679 550 764 527 857 527 C1067 527 1235 665 1235 862 C1235 1029 1085 1188 862 1188 L862 1188 Z M706 917 C732 917 744 901 744 878 C744 806 684 710 602 630 C565 649 529 671 494 694 C559 815 634 917 706 917 L706 917 Z M300 472 C216 472 127 517 127 586 C127 597 129 621 115 621 C100 621 99 597 99 590 C99 547 35 504 -63 504 C-169 504 -268 574 -268 690 C-268 817 -174 907 -33 907 C128 907 275 781 441 675 C407 609 376 540 350 478 C332 474 316 472 300 472 L300 472 Z M400 493 C421 545 446 601 474 654 C505 635 537 617 570 601 C517 555 457 516 400 493 L400 493 Z " />
<glyph glyph-name="d_ss06" unicode="&#xe088;" horiz-adv-x="403" d="M80 32 C60 32 50 45 50 73 C50 197 174 377 252 377 C277 377 283 358 283 327 C283 274 152 32 80 32 L80 32 Z M1328 1188 C1126 1188 951 1033 911 885 C882 924 833 947 773 947 C723 947 676 929 634 899 C573 927 511 945 448 945 C318 945 177 854 177 694 C177 587 246 497 348 473 C335 443 323 414 313 387 C309 378 305 367 300 356 C296 383 272 403 246 403 C141 403 1 216 1 77 C1 28 21 -2 65 -2 C125 -2 181 73 219 139 C207 104 200 75 200 62 C200 21 218 0 251 0 C331 0 438 157 438 157 L432 164 C432 164 336 39 277 39 C257 39 248 51 248 72 C248 124 310 273 356 387 C366 411 377 438 389 467 C394 467 399 467 403 467 C496 467 563 525 579 565 C592 533 632 515 675 515 C759 515 860 581 909 674 C1032 595 1166 527 1323 527 C1533 527 1701 665 1701 862 C1701 1029 1551 1188 1328 1188 L1328 1188 Z M775 917 C876 917 916 854 916 778 C916 762 914 745 909 728 C827 783 748 841 667 883 C701 904 737 917 775 917 L775 917 Z M198 690 C198 817 292 907 433 907 C488 907 542 892 595 869 C497 781 420 635 363 507 C273 523 198 589 198 690 L198 690 Z M670 533 C636 533 594 548 594 586 C594 597 596 621 581 621 C566 621 566 597 566 590 C566 547 502 505 405 504 C459 626 535 771 628 853 C714 809 799 745 891 686 C846 602 748 533 670 533 L670 533 Z M1323 560 C1179 560 1051 633 927 716 C935 740 940 765 940 792 C940 821 933 846 922 868 C961 993 1136 1149 1328 1149 C1558 1149 1680 1009 1680 874 C1680 713 1552 560 1323 560 L1323 560 Z " />
<glyph glyph-name="d_ss07" unicode="&#xe089;" horiz-adv-x="403" d="M80 32 C60 32 50 45 50 73 C50 197 174 377 252 377 C277 377 283 358 283 327 C283 274 152 32 80 32 L80 32 Z M759 947 C616 947 490 762 400 583 C346 607 290 644 232 687 C309 753 356 829 356 900 C356 1001 252 1089 82 1089 C-25 1089 -128 1044 -197 968 C-251 988 -305 1000 -361 1000 C-542 1000 -688 890 -688 744 C-688 654 -623 503 -288 503 C-101 503 77 569 198 659 C261 615 322 575 384 551 C356 492 332 435 313 387 C309 378 305 367 300 356 C295 383 272 403 245 403 C141 403 0 216 0 77 C0 28 21 -2 65 -2 C124 -2 181 73 219 139 C207 104 199 75 199 62 C199 21 218 0 251 0 C330 0 438 157 438 157 L432 164 C432 164 336 39 277 39 C257 39 248 51 248 72 C248 124 310 273 356 387 C373 430 395 482 421 538 C451 529 481 524 511 524 C684 524 832 732 832 863 C832 908 806 947 759 947 L759 947 Z M82 1060 C227 1060 336 997 336 909 C336 840 286 768 207 706 C88 795 -39 901 -174 959 C-108 1022 -14 1060 82 1060 L82 1060 Z M-284 539 C-549 539 -671 632 -671 744 C-671 870 -518 956 -371 956 C-321 956 -273 947 -226 931 C-260 880 -280 819 -280 750 L-266 750 C-266 816 -244 875 -206 923 C-73 872 51 768 171 679 C50 598 -121 539 -284 539 L-284 539 Z M516 555 C490 555 464 560 437 569 C519 736 636 917 761 917 C793 917 808 898 808 864 C808 747 680 555 516 555 L516 555 Z " />
<glyph glyph-name="d_ss08" unicode="&#xe090;" horiz-adv-x="403" d="M1154 893 C1024 893 908 794 893 649 L905 645 C927 773 1022 854 1154 854 C1292 854 1365 771 1365 693 C1365 579 1249 491 1099 491 C965 491 848 568 712 630 C786 713 837 806 837 875 C837 922 808 947 767 947 C651 947 548 837 467 704 C444 707 421 708 397 708 C267 708 179 639 179 558 C179 501 241 452 334 441 C327 422 319 404 312 387 C309 378 304 367 300 356 C295 383 271 403 245 403 C141 403 0 216 0 77 C0 28 21 -2 65 -2 C124 -2 180 73 218 139 C207 104 199 75 199 62 C199 21 217 0 251 0 C330 0 438 157 438 157 L432 164 C432 164 336 39 276 39 C257 39 248 51 248 72 C248 124 310 273 356 387 C362 403 369 420 377 438 C479 439 594 509 683 599 C820 537 945 460 1098 460 C1258 460 1382 557 1382 686 C1382 797 1299 893 1154 893 L1154 893 Z M80 32 C60 32 50 45 50 73 C50 197 174 377 252 377 C277 377 283 358 283 327 C283 319 279 305 273 289 C271 283 269 277 267 272 C230 182 137 32 80 32 L80 32 Z M775 917 C803 917 814 904 814 877 C814 807 764 717 691 639 C633 665 572 687 504 699 C577 818 668 917 775 917 L775 917 Z M196 561 C196 618 277 675 382 675 C404 675 426 674 447 671 C409 605 375 536 348 473 C258 479 196 511 196 561 L196 561 Z M391 472 C416 532 448 601 485 665 C547 654 605 633 661 609 C581 533 481 475 391 472 L391 472 Z " />
<glyph glyph-name="e_ss01" unicode="&#xe091;" horiz-adv-x="809" d="M639 27 C584 27 550 55 550 122 C550 133 551 144 553 156 C564 151 580 147 599 147 C688 147 786 260 786 330 C786 371 766 403 725 403 C685 403 640 378 602 340 C568 314 497 277 394 277 C111 277 -39 409 -39 610 C-39 745 83 885 313 885 C518 885 703 709 725 580 L739 577 C723 745 531 924 313 924 C90 924 -60 765 -60 598 C-60 362 141 244 391 244 C464 244 519 262 563 295 C526 242 500 177 500 117 C500 34 560 -4 620 -4 C733 -4 844 157 844 157 L838 164 C838 164 726 27 639 27 L639 27 Z M732 377 C749 377 755 365 755 349 C755 283 642 169 576 169 C568 169 561 170 556 172 C582 274 676 377 732 377 L732 377 Z " />
<glyph glyph-name="e_ss02" unicode="&#xe092;" horiz-adv-x="309" d="M636 1188 C417 1188 226 1008 210 841 L224 844 C246 973 431 1149 636 1149 C866 1149 988 1009 988 874 C988 713 860 560 631 560 C300 560 54 945 -245 945 C-374 945 -515 854 -515 694 C-515 569 -420 467 -289 467 C-196 467 -129 520 -114 560 C-112 518 -19 375 129 364 C60 310 0 208 0 117 C0 34 61 -4 120 -4 C234 -4 344 157 344 157 L338 164 C338 164 227 27 140 27 C85 27 50 55 50 122 C50 133 51 144 54 156 C65 151 80 147 99 147 C189 147 287 260 287 330 C287 371 267 403 226 403 C200 403 173 393 146 376 C19 377 -99 518 -99 586 C-99 597 -97 621 -111 621 C-126 621 -127 597 -127 590 C-127 547 -191 504 -289 504 C-395 504 -494 575 -494 690 C-494 818 -400 907 -259 907 C22 907 260 527 631 527 C841 527 1009 665 1009 862 C1009 1029 859 1188 636 1188 L636 1188 Z M232 377 C250 377 256 365 256 349 C256 283 142 169 77 169 C68 169 62 170 57 172 C82 274 177 377 232 377 L232 377 Z " />
<glyph glyph-name="e_ss03" unicode="&#xe093;" horiz-adv-x="581" d="M281 839 C77 839 -105 669 -145 505 L-132 508 C-85 654 76 813 281 813 C511 813 595 668 595 501 C595 217 351 -12 177 -12 C87 -12 50 37 50 114 C50 127 52 141 54 154 C65 150 80 146 99 146 C189 146 287 259 287 329 C287 370 267 402 225 402 C125 402 0 249 0 116 C0 11 73 -36 168 -36 C383 -36 641 229 641 487 C641 714 497 839 281 839 L281 839 Z M232 376 C249 376 255 364 255 348 C255 282 142 168 76 168 C69 168 63 169 58 170 C86 272 178 376 232 376 L232 376 Z " />
<glyph glyph-name="e_ss04" unicode="&#xe094;" horiz-adv-x="634" d="M694 980 C694 1081 590 1169 420 1169 C320 1169 223 1130 154 1062 C106 1071 54 1075 1 1075 C-179 1075 -350 983 -350 824 C-350 734 -285 583 50 583 C246 583 433 656 555 753 C594 683 615 602 615 516 C615 233 378 -12 177 -12 C88 -12 50 37 50 114 C50 127 52 141 55 154 C66 150 81 146 99 146 C189 146 287 259 287 329 C287 370 267 402 226 402 C125 402 0 249 0 116 C0 11 73 -36 169 -36 C393 -36 656 243 656 523 C656 620 632 708 589 783 C655 845 694 915 694 980 L694 980 Z M232 376 C249 376 256 364 256 348 C256 282 142 168 77 168 C69 168 63 169 58 170 C86 272 178 376 232 376 L232 376 Z M54 619 C-211 619 -333 711 -333 824 C-333 975 -166 1036 -8 1036 C37 1036 81 1033 123 1027 C82 973 57 906 57 829 L71 830 C71 905 101 971 148 1022 C325 990 460 902 538 781 C417 688 230 619 54 619 L54 619 Z M573 810 C491 934 353 1021 184 1057 C248 1109 333 1140 420 1140 C565 1140 673 1076 673 989 C673 928 635 866 573 810 L573 810 Z " />
<glyph glyph-name="e_ss05" unicode="&#xe095;" horiz-adv-x="603" d="M916 985 C806 985 704 933 602 867 C517 1078 318 1224 42 1224 C-187 1224 -337 1068 -337 901 C-337 705 -170 566 40 566 C253 566 422 691 581 798 C598 739 607 677 607 615 C607 284 371 -12 178 -12 C88 -12 50 37 50 114 C50 127 52 141 55 154 C66 150 81 146 99 146 C189 146 287 259 287 329 C287 370 267 402 226 402 C125 402 0 249 0 116 C0 11 74 -36 169 -36 C398 -36 648 284 648 621 C648 692 638 760 618 823 C722 891 823 946 930 946 C1071 946 1165 857 1165 730 C1165 614 1066 544 960 544 C899 544 851 560 823 583 L807 570 C837 538 891 506 960 506 C1091 506 1186 608 1186 733 C1186 894 1045 985 916 985 L916 985 Z M232 376 C250 376 256 364 256 348 C256 282 142 168 77 168 C69 168 63 169 58 170 C86 272 178 376 232 376 L232 376 Z M40 600 C-189 600 -317 753 -317 914 C-317 1048 -176 1190 33 1190 C311 1190 489 1039 565 843 C401 733 235 600 40 600 L40 600 Z " />
<glyph glyph-name="f_ss01" unicode="&#xe096;" horiz-adv-x="278" d="M489 946 C355 946 218 651 148 481 C126 475 105 471 85 471 C-23 471 -77 528 -87 586 L-100 578 C-94 514 -39 438 92 438 C105 438 119 439 133 442 C124 419 117 401 111 387 C96 346 46 219 -5 85 C-18 95 -46 55 -32 36 C-30 34 -28 32 -27 29 C-90 -136 -152 -295 -152 -295 L-108 -295 C-108 -295 -53 -151 8 6 C27 -1 48 -4 71 -4 C207 -4 310 157 310 157 L304 164 C304 164 200 27 90 27 C65 27 41 33 23 47 C80 194 137 342 155 387 C160 402 170 425 181 454 C363 516 548 742 548 876 C548 921 522 946 489 946 L489 946 Z M200 500 C269 662 393 917 492 917 C514 917 524 901 524 877 C524 756 358 570 200 500 L200 500 Z " />
<glyph glyph-name="f_ss02" unicode="&#xe097;" horiz-adv-x="278" d="M577 946 C344 946 216 652 111 387 C95 347 46 219 -6 85 C-18 95 -46 55 -32 36 C-30 34 -29 32 -27 30 C-91 -136 -152 -295 -152 -295 L-108 -295 C-108 -295 -53 -151 8 6 C26 -1 48 -4 70 -4 C206 -4 310 157 310 157 L304 164 C304 164 200 27 90 27 C64 27 41 33 23 47 C80 194 137 342 155 387 C244 615 375 917 579 917 C680 917 721 854 721 778 C721 658 580 533 475 533 C445 533 423 541 407 555 L399 542 C412 529 439 515 479 515 C595 515 744 640 744 791 C744 888 674 946 577 946 L577 946 Z " />
</font>
</svg>
